<svg width="720" height="780" viewBox="0 0 720 780" fill="none" xmlns="http://www.w3.org/2000/svg">
<path d="M720 0H0V780H720V0Z" fill="white"/>
<path d="M374 578.311L371.469 595H342.202C338.176 595 335.41 591.437 336.108 587.875C336.216 587.32 336.403 586.765 336.69 586.228C338.953 581.919 343.024 578.536 348.877 578.156L348.696 578.113L343.848 554.14C343.848 554.14 352.885 550.248 362.135 552.962C365.741 554.01 369.375 556.065 372.514 559.741L374 578.311Z" fill="white"/>
<path d="M371.468 595H342.498C340.557 595 338.738 594.173 337.511 592.733C336.263 591.268 335.752 589.364 336.114 587.511C336.231 586.905 336.435 586.323 336.722 585.781C339.181 581.086 343.289 578.234 348.331 577.699L343.605 554.28L343.924 554.142C344.291 553.986 353.008 550.296 362.098 552.969C366.137 554.148 369.619 556.429 372.445 559.749L372.534 559.854L374 578.234L373.993 578.281L371.468 595ZM349.221 577.679L351.801 578.31L349.048 578.49C344.023 578.818 339.922 581.547 337.502 586.169C337.254 586.637 337.075 587.141 336.974 587.669C336.66 589.272 337.103 590.922 338.185 592.191C339.261 593.455 340.793 594.151 342.498 594.151H370.713L373.126 578.205L371.688 560.188C368.988 557.056 365.678 554.9 361.848 553.783C354.026 551.482 346.257 554.157 344.603 554.793L349.221 577.679Z" fill="#650000"/>
<path d="M423 548.477L419.972 589.019C419.682 592.953 416.326 596 412.292 596H375.471C370.832 596 367.276 591.89 368.126 587.435C368.397 586.048 368.84 584.722 369.465 583.474C372.856 576.66 381.331 572.488 392.437 575.997L390.385 557.399C390.385 557.399 389.661 534.066 412.57 543.064C415.612 544.252 419.077 546.019 423 548.477Z" fill="white"/>
<path d="M412.004 597H375.79C373.465 597 371.274 595.975 369.785 594.19C368.314 592.426 367.712 590.132 368.13 587.892C368.41 586.451 368.863 585.075 369.486 583.811C372.611 577.412 380.743 572.557 391.966 575.89L390.019 557.924C390.003 557.466 389.772 547.438 396.144 543.008C400.042 540.3 405.525 540.331 412.447 543.101C415.561 544.337 419.037 546.173 422.778 548.56L423 548.702L422.981 548.965L420.001 589.593C419.702 593.746 416.189 597 412.004 597ZM384.77 575.655C377.303 575.655 372.429 579.813 370.286 584.201C369.698 585.396 369.269 586.695 369.007 588.059C368.636 590.037 369.171 592.066 370.473 593.625C371.792 595.208 373.732 596.115 375.795 596.115H412.009C415.727 596.115 418.85 593.221 419.118 589.528L422.078 549.162C418.467 546.875 415.12 545.111 412.118 543.921C405.494 541.27 400.294 541.207 396.657 543.731C390.682 547.882 390.904 557.764 390.908 557.862L392.997 577.143L392.346 576.933C389.578 576.043 387.052 575.655 384.77 575.655Z" fill="#650000"/>
<path d="M393.165 573.003C394.281 573.063 395.362 573.47 396.382 574.031C397.404 574.59 398.335 575.371 399.187 576.215C400.885 577.921 402.255 579.966 402.978 582.351C403.056 582.611 402.922 582.893 402.678 582.977C402.587 583.007 402.49 583.007 402.404 582.98L402.391 582.977C401.283 582.635 400.291 582.258 399.317 581.936C398.353 581.594 397.419 581.295 396.506 581.027C395.595 580.748 394.697 580.522 393.842 580.197C392.985 579.874 392.137 579.521 391.31 578.879L391.239 578.824C389.895 577.777 389.598 575.762 390.577 574.321C391.191 573.418 392.188 572.957 393.165 573.003Z" fill="#650000"/>
<path d="M411.427 599H375.405C372.296 599 369.373 597.645 367.385 595.286C365.416 592.947 364.611 589.903 365.177 586.93C366.146 581.829 369.264 577.373 373.733 574.709C378.921 571.617 385.575 571.063 392.478 573.15C394.113 573.647 395.032 575.352 394.528 576.965C394.027 578.577 392.299 579.483 390.658 578.988C384.008 576.975 379.527 578.391 376.94 579.934C373.935 581.726 371.92 584.609 371.265 588.056C371.035 589.255 371.351 590.436 372.15 591.386C372.958 592.345 374.144 592.894 375.405 592.894H411.427C413.74 592.894 415.685 591.113 415.853 588.839L418.813 548.829C418.936 547.147 420.431 545.891 422.129 546.008C423.833 546.129 425.117 547.591 424.992 549.273L422.033 589.283C421.629 594.729 416.972 599 411.427 599Z" fill="#4C0505"/>
<path d="M391.977 580C390.453 580 389.147 578.766 388.978 577.102L387.017 557.596C386.841 555.812 388.038 554.211 389.695 554.019C391.352 553.827 392.841 555.114 393.022 556.897L394.983 576.404C395.159 578.187 393.962 579.786 392.305 579.981C392.194 579.993 392.083 580 391.977 580Z" fill="#4C0505"/>
<path d="M374.168 581C372.705 581 371.464 579.772 371.349 578.157L370.009 559.315C369.888 557.621 371.054 556.142 372.611 556.01C374.172 555.872 375.53 557.146 375.651 558.842L376.991 577.682C377.112 579.378 375.946 580.857 374.389 580.988C374.315 580.995 374.24 581 374.168 581Z" fill="#4C0505"/>
<path d="M351.089 574.215C352.16 573.888 353.251 573.971 354.282 574.218C355.317 574.465 356.295 574.953 357.211 575.511C358.128 576.079 358.987 576.741 359.779 577.49C360.564 578.261 361.296 579.09 361.917 580.09C362.06 580.317 362.014 580.639 361.814 580.803C361.745 580.858 361.666 580.891 361.59 580.897H361.582C360.535 580.987 359.566 580.974 358.624 580.985H355.923C355.057 580.985 354.222 581.029 353.43 580.968C352.63 580.91 351.874 580.825 351.096 580.493L350.836 580.383C349.381 579.76 348.636 577.896 349.176 576.219C349.502 575.203 350.242 574.481 351.089 574.215Z" fill="#650000"/>
<path d="M371.848 598H342.396C339.105 598 336.114 596.312 334.396 593.485C332.669 590.643 332.537 587.17 334.042 584.195C337.16 578.043 342.71 574.327 349.271 574.004C351.019 573.92 352.489 575.268 352.574 577.019C352.659 578.771 351.32 580.261 349.581 580.347C344.062 580.618 341.139 584.16 339.658 587.082C338.935 588.508 339.497 589.717 339.771 590.169C340.043 590.614 340.839 591.65 342.398 591.65H371.851C373.592 591.65 375 593.071 375 594.825C375 596.579 373.587 598 371.848 598Z" fill="#4C0505"/>
<path d="M350.181 581C348.861 581 347.683 579.998 347.419 578.554L343.053 554.613C342.755 552.973 343.747 551.378 345.276 551.058C346.805 550.733 348.283 551.805 348.581 553.447L352.947 577.386C353.245 579.029 352.253 580.621 350.726 580.943C350.544 580.982 350.361 581 350.181 581Z" fill="#4C0505"/>
<g opacity="0.3">
<path opacity="0.3" d="M374.564 578.293V578.303C371.42 580.622 369.34 584.023 368.622 587.853C368.044 590.962 369.545 593.902 372.042 595.403H342.994C338.998 595.403 336.252 591.752 336.945 588.102C338.206 587.31 339.271 586.75 339.271 586.75C348.509 590.116 355.777 587.435 361.692 580.575L362.811 568.033C355.59 566.594 352.807 557.665 352.807 557.665L354.229 556.902L356.156 555.872L360.271 553.667C364.163 562.41 369.448 562.711 373.088 559.273L374.564 578.293Z" fill="#650000"/>
</g>
<path d="M318.406 592H288.53C284.527 592 281.226 588.981 281.002 585.133L279.812 564.802L279 551.025L306.349 551L306.096 558.972L305.665 572.566C315.683 569.65 323.715 576.133 324.943 584.925C325.464 588.686 322.336 592 318.406 592Z" fill="#F44906"/>
<g opacity="0.55">
<g opacity="0.55">
<path opacity="0.55" d="M280.217 550.512L307.16 550.484V550.494L285.662 550.512L286.452 564.575L287.625 585.327C287.848 589.255 291.107 592.337 295.051 592.337H289.606C285.662 592.337 282.41 589.255 282.189 585.327L281.016 564.575L280.217 550.512Z" fill="white"/>
</g>
</g>
<path d="M261.407 596H231.531C227.527 596 224.227 592.908 224.002 588.966L222.677 565.885L222 554.028L249.351 554L248.97 566.222L248.665 576.091C258.681 573.104 266.717 579.745 267.942 588.751C268.468 592.604 265.337 596 261.407 596Z" fill="#F44906"/>
<g opacity="0.55">
<g opacity="0.55">
<path opacity="0.55" d="M264.408 595.468C263.403 596.097 262.215 596.47 260.935 596.47H231.504C227.56 596.47 224.309 593.388 224.087 589.463L222.782 566.461L222.115 554.646L228.609 554.639L229.22 565.45L230.525 588.449C230.749 592.377 234.001 595.468 237.945 595.468H264.408Z" fill="white"/>
</g>
</g>
<path d="M306.479 575.118C305.156 575.78 304.216 575.944 303.315 576.155C302.422 576.348 301.552 576.479 300.634 576.719C299.716 576.944 298.773 577.275 297.784 577.662C296.776 578.029 295.785 578.519 294.646 578.961L294.625 578.968C294.397 579.057 294.13 578.956 294.034 578.74C293.994 578.651 293.992 578.557 294.014 578.47C294.653 576.226 296.006 574.181 298.013 572.528C299.017 571.723 300.199 571.012 301.434 570.592C302.656 570.167 303.909 569.951 304.716 570.009L305.34 570.056C306.929 570.171 308.117 571.47 307.991 572.956C307.913 573.897 307.307 574.697 306.479 575.118Z" fill="#4C0505"/>
<path d="M319.308 595H289.616C283.978 595 279.315 590.634 278.995 585.063L277.005 550.282C276.906 548.57 278.231 547.103 279.961 547.006C281.683 546.903 283.174 548.217 283.27 549.933L285.26 584.712C285.392 586.999 287.304 588.787 289.616 588.787H319.308C320.307 588.787 321.255 588.361 321.916 587.613C322.544 586.901 322.821 586.007 322.697 585.096C322.189 581.368 320.265 578.143 317.417 576.247C314.757 574.48 311.54 574.009 308.113 574.892C306.436 575.32 304.722 574.326 304.286 572.663C303.854 571.003 304.86 569.308 306.537 568.877C311.676 567.556 316.782 568.343 320.916 571.089C325.253 573.974 328.167 578.776 328.915 584.267C329.282 586.943 328.452 589.651 326.641 591.703C324.79 593.798 322.118 595 319.308 595Z" fill="#4C0505"/>
<path d="M305.611 575C305.573 575 305.535 575 305.497 575C303.505 574.945 301.942 573.525 302.002 571.821L302.788 549.99C302.851 548.288 304.554 546.935 306.503 547.002C308.495 547.056 310.058 548.478 309.998 550.182L309.212 572.013C309.152 573.682 307.549 575 305.611 575Z" fill="#4C0505"/>
<path d="M478.49 285.108C489.034 287.998 489.034 298.231 476.733 301.346C491.004 307.572 489.666 317.815 474.316 322.699C486.802 328.206 488.375 341.829 473.876 344.944C484.358 352.48 485.08 364.518 472.118 367.413C472.118 367.413 492.11 377.644 468.383 389.212C476.97 395.023 478.268 402.167 469.042 411.235C478.121 418.485 478.646 425.419 467.724 431.923C479.315 435.883 479.149 448.161 467.285 452.387C476.092 459.666 474.535 466.776 464.428 473.742C472.372 482.329 470.405 488.621 462.452 493.541C469.455 504.448 466.591 511.175 456.081 514.672C465.819 528.535 454.158 540.804 445.317 534.468C447.513 547.521 437.127 552.291 425.983 543.214C422.757 555.307 406.447 557.058 400.207 550.038C393.548 559.951 385.909 561.91 377.061 554.159C374.467 562.533 365.769 567.016 360.364 552.861C355.135 561.161 344.668 559.4 344.986 550.93C340.153 555.483 330.575 555.35 329.177 549.443C328.702 547.477 329.143 544.869 330.969 541.586C329.002 485.995 332.5 427.42 340.4 366.437C347.009 315.401 356.71 262.663 368.864 208.592C369.064 208.272 369.27 207.952 369.489 207.64C372.512 203.333 377.223 200.514 382.337 201.385C385.095 201.857 387.97 203.405 390.765 206.368C395.008 198.289 409.95 196.874 413.314 208.147C420.907 201.109 438.508 199.996 440.265 218.086C447.058 205.879 462.305 219.599 455.715 230.542C464.89 225.542 472.271 231.396 466.778 240.25C481.586 236.317 489.987 252.12 482.518 262.796C494.527 269.982 494.308 280.214 478.49 285.108Z" fill="white"/>
<path d="M467.969 235C467.384 234.07 466.732 233.184 466 232.327C466.385 231.249 466.701 230.14 466.946 229C467.723 230.395 468.119 232.475 467.969 235Z" fill="white"/>
<path d="M467.898 236L467.472 235.391C466.828 234.47 466.091 233.575 465.284 232.731L465 232.435L465.19 231.962C465.612 230.905 465.961 229.804 466.229 228.692L466.396 228L466.712 228.506C467.692 230.085 468.136 232.403 467.963 235.035L467.898 236ZM465.869 232.105C466.412 232.694 466.923 233.304 467.395 233.931C467.394 232.342 467.119 230.933 466.599 229.842C466.391 230.607 466.147 231.366 465.869 232.105Z" fill="#650000"/>
<g opacity="0.3">
<path opacity="0.3" d="M479.065 284.876C489.724 287.764 489.724 297.978 477.288 301.087C491.715 307.306 490.363 317.532 474.846 322.409C487.468 327.907 489.057 341.506 474.4 344.618C484.999 352.142 485.726 364.161 472.624 367.049C472.624 367.049 492.836 377.265 468.848 388.815C477.529 394.614 478.843 401.749 469.515 410.8C478.692 418.04 479.225 424.961 468.184 431.455C479.901 435.408 479.731 447.667 467.739 451.888C476.64 459.154 475.067 466.254 464.853 473.209C472.883 481.78 470.892 488.062 462.853 492.973C469.932 503.866 467.037 510.579 456.412 514.073C466.256 527.914 454.468 540.163 445.532 533.837C447.753 546.87 437.252 551.629 425.987 542.569C422.726 554.641 406.239 556.391 399.931 549.382C393.199 559.28 385.479 561.233 376.533 553.496C375.797 555.841 374.578 557.876 373.086 559.28C369.445 562.715 364.158 562.415 360.268 553.674C360.053 553.203 359.851 552.713 359.655 552.198C358.643 553.788 357.436 555.005 356.156 555.874L354.228 556.904C349.235 558.939 343.879 556.319 344.11 550.268C339.224 554.816 329.541 554.683 328.129 548.786C328.103 548.669 328.075 548.546 328.049 548.422C327.826 547.18 327.959 545.695 328.555 543.972C328.644 543.706 328.751 543.438 328.858 543.163C329.143 542.462 329.506 541.725 329.942 540.944C347.422 531.189 357.363 515.047 353.59 488.976C339.704 409.292 346.047 332.327 371.568 257.911C376.223 244.346 376.438 229.538 371.578 216.035C370.617 213.378 369.517 210.856 368.247 208.484C368.449 208.165 368.655 207.845 368.876 207.534C371.932 203.233 376.694 200.419 381.864 201.289C385.223 205.543 387.887 210.491 389.878 216.035C394.736 229.538 394.526 244.346 389.869 257.911C382.347 279.844 376.491 301.989 372.335 324.36C372.335 324.36 372.335 324.376 372.326 324.42C372.146 326.171 365.014 375.855 384.407 381.23L360.937 378.004C360.494 379.407 360.156 380.253 359.862 380.724L365.522 379.855C363.363 415.653 365.452 452.023 371.892 488.976C374.272 505.409 371.198 517.891 364.233 527.315C371.083 530.604 377.167 527.795 382.605 519.8C388.913 526.809 405.4 525.061 408.661 512.987C419.924 522.05 430.425 517.287 428.203 504.255C437.14 510.581 448.93 498.33 439.087 484.491C449.711 480.999 452.608 474.284 445.527 463.394C453.566 458.48 455.555 452.2 447.525 443.627C457.741 436.674 459.315 429.574 450.413 422.306C462.403 418.087 462.573 405.829 450.855 401.875C461.897 395.381 461.366 388.461 452.189 381.221C461.515 372.167 460.203 365.035 451.522 359.233C475.508 347.685 455.298 337.469 455.298 337.469C468.401 334.581 467.671 322.562 457.074 315.036C471.731 311.926 470.142 298.328 457.517 292.826C473.039 287.95 474.386 277.726 459.96 271.506C472.398 268.397 472.398 258.182 461.739 255.295C473.277 251.769 476.608 245.461 472.993 239.528C484.221 240.389 489.649 253.404 483.137 262.598C495.279 269.775 495.055 279.991 479.065 284.876Z" fill="#650000"/>
</g>
<g opacity="0.3">
<path opacity="0.3" d="M356.152 555.875C355.523 556.302 354.882 556.647 354.225 556.905L356.152 555.875Z" fill="#792937"/>
<path opacity="0.3" d="M354.388 557.318L354.018 556.511L355.945 555.483L356.402 556.243C355.735 556.693 355.057 557.057 354.388 557.318Z" fill="#650000"/>
</g>
<g opacity="0.3">
<path opacity="0.3" d="M371.054 331.548C371.028 331.709 371 331.86 370.975 332.012C371 331.797 371.035 331.646 371.054 331.548Z" fill="#792937"/>
<path opacity="0.3" d="M371.41 332.092L370.533 331.957C370.557 331.782 370.582 331.644 370.605 331.542L370.617 331.477L371.494 331.623L371.41 332.092Z" fill="#650000"/>
</g>
<path d="M473 239.419C471.452 239.262 469.781 239.438 468 240C468.956 238.195 469.463 236.502 469.603 235C471.088 236.409 472.228 237.9 473 239.419Z" fill="white"/>
<path d="M466 241L466.638 240.103C467.718 238.588 468.351 237.123 468.521 235.75L468.612 235L469.276 235.469C471.12 236.768 472.548 238.152 473.522 239.584L474 240.286L473.082 240.216C471.201 240.073 469.207 240.246 467.154 240.73L466 241ZM469.323 236.581C469.094 237.589 468.651 238.632 467.999 239.695C469.441 239.426 470.852 239.31 472.22 239.34C471.467 238.393 470.497 237.471 469.323 236.581Z" fill="#650000"/>
<path d="M371.435 258.495C345.973 332.604 339.645 409.253 353.498 488.608C362.998 554.119 285.397 556.668 219.777 552.907C218.856 552.854 217.933 552.803 217.012 552.75C193.376 550.83 177.298 544.193 171.813 520.457C155.691 434.59 151.87 345.29 177.571 260.803C190.91 216.941 228.905 204.406 272.502 192.79C272.509 192.79 272.528 192.781 272.544 192.781C278.174 191.277 283.906 189.791 289.685 188.261C335.152 176.742 361.563 189.348 371.444 216.792C376.293 230.238 376.079 244.985 371.435 258.495Z" fill="#F44906"/>
<g opacity="0.3">
<path opacity="0.3" d="M222.115 554.647L249.059 554.619L248.683 566.798C240.112 566.95 231.406 566.798 222.782 566.46L222.115 554.647Z" fill="#650000"/>
</g>
<g opacity="0.3">
<path opacity="0.3" d="M306.416 550.47L306.167 558.607C298.332 561.353 289.582 563.271 280.272 564.56L279.473 550.498L306.416 550.47Z" fill="#650000"/>
</g>
<g opacity="0.55">
<path opacity="0.55" d="M352.167 191.07C338.559 185.732 320.392 185.375 297.33 191.23C291.537 192.768 285.791 194.26 280.15 195.769C280.132 195.769 280.115 195.777 280.106 195.777C236.41 207.441 198.325 220.029 184.955 264.074C159.195 348.911 163.024 438.578 179.182 524.799C181.89 536.561 187.195 544.146 194.718 549.032C183.063 544.636 175.041 536.4 171.479 520.953C155.322 434.731 151.493 345.062 177.253 260.226C190.623 216.183 228.706 203.595 272.405 191.931C272.412 191.931 272.43 191.923 272.449 191.923C278.09 190.412 283.836 188.92 289.628 187.384C317.355 180.347 338.007 182.275 352.167 191.07Z" fill="white"/>
</g>
<g opacity="0.75">
<g opacity="0.75">
<path opacity="0.75" d="M375.138 229.356C354.176 251.031 326.951 251.039 311.035 245.645C308.907 244.925 306.977 243.744 305.208 242.361C275.53 219.163 200.767 243.862 173.683 272.717L169.646 289.083C207.292 243.283 280.136 227.955 301.662 245.879C308.303 251.409 316.562 254.686 325.144 255.698C344.969 258.033 369.008 254.7 375.138 242.013" fill="white"/>
</g>
<g opacity="0.75">
<path opacity="0.75" d="M356.605 311.549C336.561 330.555 292.886 329.663 282.816 323.15C242.747 295.141 187.469 336.77 159.933 355.995L158.961 374.373C175.137 344.672 246.418 305.078 274.294 324.889C282.856 330.973 292.569 335.264 302.979 336.662C322.864 339.336 345.936 336.621 353.588 326.77" fill="white"/>
</g>
<g opacity="0.75">
<path opacity="0.75" d="M347.003 430.746C319.096 435.149 304.871 425.145 290.738 412.796C280.191 403.579 266.888 407.243 266.888 407.243L190.133 430.786C168.368 437.005 159.574 425.945 159.574 425.945L161.556 451.897C161.556 451.897 164.963 443.075 187.172 438.336L259.333 414.628C273.967 409.819 290.216 414.236 300.001 426.133C300.295 426.492 300.589 426.858 300.88 427.234C314.87 445.221 347.003 441.592 347.003 441.592" fill="white"/>
</g>
<g opacity="0.75">
<path opacity="0.75" d="M352.544 482.744C344.162 497.156 319.61 496.471 296.443 487.184C292.387 485.559 288.559 483.436 284.823 481.173C262.46 467.639 233.421 487.93 205.901 500.52C188.788 510.009 175.697 507.331 166.631 492.485C168.497 507.804 171.266 521.104 175.228 531.736C175.983 517.17 190.134 514.881 212.119 503.333C240.222 489.615 269.156 472.287 290.373 488.583C294.885 492.049 299.72 495.086 304.969 497.289C322.349 504.58 338.999 506.256 354.367 498.072" fill="white"/>
</g>
</g>
<path d="M253.858 558C241.608 558 229.114 557.466 216.874 556.726C195.678 554.996 175.244 549.582 168.88 521.875C168.87 521.833 168.861 521.791 168.853 521.749C149.968 420.608 151.878 334.785 174.689 259.374C189.424 210.652 233.738 198.95 280.655 186.56C283.379 185.839 286.123 185.115 288.879 184.38C311.482 178.622 330.338 178.543 344.956 184.132C359.004 189.504 368.872 199.891 374.284 215.004C379.238 228.847 379.24 244.46 374.284 258.97C348.908 333.246 342.922 410.518 356.485 488.639C356.49 488.67 356.494 488.698 356.497 488.726C359.153 507.124 355.344 522.075 345.179 533.171C327.09 552.92 291.655 558 253.858 558ZM174.934 520.538C180.13 543.049 195.003 548.7 217.313 550.52C262.959 553.281 318.29 553.33 340.62 528.961C349.577 519.183 352.767 506.331 350.372 489.666C336.637 410.518 342.709 332.222 368.421 256.954C372.922 243.778 372.931 229.628 368.449 217.112C358.451 189.186 331.474 179.95 290.438 190.403C287.712 191.132 284.963 191.858 282.228 192.578C235.074 205.031 194.349 215.785 180.621 261.182C158.108 335.599 156.248 420.431 174.934 520.538Z" fill="#4C0505"/>
<path d="M272.075 192H271L271.877 191.019L272.128 191H274L272.242 191.981L272.075 192Z" fill="#650000"/>
<g opacity="0.3">
<path opacity="0.3" d="M344.705 488.972C330.82 409.288 337.162 332.325 362.686 257.907C367.341 244.342 367.553 229.533 362.693 216.031C355.679 196.517 340.344 184.488 315.815 183.228C307.909 183.606 299.196 184.954 289.627 187.381C286.991 188.081 284.369 188.769 281.758 189.456C283.264 189.454 284.718 189.505 286.077 189.639C286.059 189.641 286.04 189.644 286.019 189.646C315.366 187.218 320.913 206.703 307.305 243.844C280.861 328.29 273.071 415.195 281.189 504.216C285.392 543.952 256.805 552.816 219.557 553.537C229.225 554.094 239.153 554.508 249.027 554.609C303 554.019 352.407 542.175 344.705 488.972Z" fill="#650000"/>
</g>
<path d="M368.673 564C366.294 564 362.41 562.969 359.049 557.308C355.417 560.269 351.138 560.81 347.879 559.789C345.238 558.96 343.252 557.196 342.152 554.837C337.474 556.832 331.847 556.597 328.332 553.829C326.399 552.308 322.439 547.814 327.402 538.964C328.243 537.464 330.138 536.93 331.635 537.772C333.133 538.614 333.665 540.511 332.826 542.009C331.744 543.937 330.224 547.399 332.175 548.934C334.252 550.568 339.268 550.248 342.166 547.546C343.087 546.687 344.434 546.466 345.581 546.993C346.725 547.516 347.441 548.682 347.392 549.942C347.315 551.963 348.147 553.349 349.734 553.846C351.769 554.48 354.979 553.575 357.21 550.075C357.841 549.086 358.97 548.538 360.142 548.652C361.308 548.769 362.31 549.532 362.732 550.626C364.485 555.164 366.727 557.84 368.736 557.77C370.629 557.71 372.734 555.33 373.743 552.112C374.058 551.111 374.855 550.337 375.862 550.052C376.869 549.765 377.953 550.005 378.746 550.694C382.186 553.673 385.363 554.994 388.186 554.627C391.309 554.219 394.456 551.716 397.533 547.182C398.069 546.393 398.939 545.894 399.894 545.826C400.85 545.763 401.778 546.141 402.414 546.851C404.803 549.506 409.647 550.6 414.197 549.513C416.365 548.995 421.581 547.156 423.159 541.305C423.435 540.29 424.201 539.482 425.199 539.158C426.197 538.831 427.292 539.032 428.11 539.69C432.695 543.384 437.315 544.639 440.168 542.961C442.488 541.596 443.387 538.292 442.639 533.894C442.429 532.653 442.984 531.409 444.047 530.737C445.112 530.068 446.474 530.105 447.499 530.831C450.404 532.889 453.21 531.846 454.867 530.184C457.686 527.357 458.527 521.684 454.052 515.389C453.481 514.584 453.324 513.556 453.632 512.615C453.94 511.675 454.676 510.94 455.616 510.632C459.996 509.192 462.636 507.26 463.471 504.892C464.382 502.298 463.357 498.69 460.42 494.164C459.961 493.462 459.809 492.601 459.996 491.779C460.182 490.96 460.69 490.251 461.406 489.813C464.816 487.727 466.695 485.566 466.988 483.394C467.305 481.04 465.884 478.151 462.755 474.812C462.133 474.147 461.835 473.247 461.933 472.341C462.033 471.436 462.522 470.622 463.273 470.111C467.963 466.914 470.503 463.799 470.62 461.1C470.72 458.841 469.145 456.37 465.944 453.752C465.072 453.041 464.653 451.914 464.846 450.806C465.04 449.697 465.818 448.78 466.876 448.407C471.238 446.869 473.937 443.965 473.916 440.824C473.897 437.833 471.448 435.22 467.361 433.838C466.208 433.451 465.387 432.422 465.263 431.211C465.138 430 465.73 428.827 466.779 428.208C469.732 426.47 473.291 423.791 473.489 420.896C473.688 417.982 470.485 414.808 467.762 412.66C467.058 412.104 466.629 411.271 466.583 410.375C466.539 409.479 466.879 408.607 467.524 407.981C471.41 404.206 473.252 400.872 472.995 398.072C472.774 395.625 470.855 393.177 467.294 390.795C466.368 390.176 465.844 389.106 465.921 387.99C466 386.875 466.667 385.888 467.674 385.403C474.072 382.32 477.615 379.103 477.648 376.347C477.687 373.151 473.023 370.034 471.387 369.196C470.221 368.599 469.55 367.327 469.718 366.028C469.883 364.726 470.846 363.666 472.128 363.382C476.242 362.474 478.809 360.5 479.352 357.826C480.065 354.301 477.485 349.858 472.771 346.508C471.767 345.791 471.28 344.548 471.529 343.337C471.781 342.128 472.72 341.181 473.928 340.924C478.685 339.914 481.589 337.602 481.895 334.578C482.205 331.503 479.816 327.221 473.776 324.592C472.585 324.071 471.841 322.87 471.911 321.572C471.979 320.278 472.846 319.158 474.084 318.77C481.515 316.432 484.284 313.215 484.401 310.984C484.533 308.408 481.478 305.52 476.231 303.257C475.005 302.727 474.254 301.476 474.364 300.146C474.471 298.814 475.415 297.701 476.708 297.379C481.659 296.14 483.897 293.707 483.916 291.845C483.934 289.917 481.778 288.084 478.426 287.176C477.088 286.812 476.151 285.608 476.128 284.222C476.107 282.836 477.004 281.602 478.328 281.196C484.589 279.28 488.387 276.448 488.748 273.423C489.076 270.661 486.452 267.344 481.727 264.547C480.979 264.104 480.45 263.368 480.268 262.517C480.088 261.667 480.27 260.779 480.771 260.069C483.673 255.968 483.741 250.493 480.937 246.443C478.168 242.44 473.515 240.948 468.182 242.351C466.951 242.676 465.643 242.213 464.888 241.184C464.131 240.155 464.082 238.767 464.76 237.686C466.305 235.221 466.618 232.995 465.574 231.876C464.452 230.674 461.501 230.317 457.686 232.375C456.448 233.04 454.921 232.796 453.956 231.775C452.991 230.755 452.828 229.214 453.56 228.015C455.767 224.393 454.32 220.992 453.595 219.699C452.196 217.2 449.809 215.519 447.655 215.518C447.655 215.518 447.655 215.518 447.653 215.518C445.961 215.518 444.499 216.594 443.304 218.714C442.637 219.896 441.28 220.511 439.954 220.231C438.628 219.952 437.635 218.842 437.502 217.491C436.94 211.781 434.507 207.943 430.465 206.395C425.358 204.438 418.822 206.463 415.453 209.551C414.668 210.274 413.561 210.541 412.53 210.259C411.5 209.976 410.687 209.182 410.379 208.157C408.976 203.516 405.269 202.48 403.186 202.276C399.118 201.879 394.948 203.837 393.298 206.941C392.829 207.823 391.967 208.426 390.976 208.563C389.978 208.697 388.992 208.349 388.302 207.626C385.4 204.575 382.382 203.189 379.328 203.5C376.23 203.817 373.137 206.003 371.058 209.344C370.151 210.802 368.233 211.249 366.774 210.339C365.317 209.43 364.872 207.51 365.778 206.052C368.916 201.015 373.624 197.827 378.697 197.307C381.592 197.008 385.727 197.482 390.118 200.887C393.465 197.475 398.622 195.575 403.794 196.081C408.428 196.535 412.248 198.869 414.589 202.53C419.579 199.615 426.518 198.218 432.691 200.582C437.273 202.337 440.59 205.878 442.364 210.797C443.963 209.809 445.751 209.294 447.658 209.294C447.66 209.294 447.667 209.294 447.669 209.294C452.066 209.298 456.522 212.188 459.026 216.656C460.471 219.238 461.103 222.055 460.923 224.81C464.597 224.314 467.914 225.265 470.124 227.628C472.105 229.749 472.809 232.552 472.238 235.612C477.872 235.677 482.816 238.222 486.056 242.902C489.727 248.208 490.193 255.096 487.477 260.879C492.864 264.781 495.489 269.425 494.925 274.164C494.617 276.741 493.048 281.023 486.613 284.514C488.892 286.504 490.163 289.073 490.137 291.91C490.107 294.822 488.536 298.259 484.564 300.8C489.962 304.706 490.738 308.861 490.615 311.309C490.393 315.597 487.293 319.435 481.902 322.279C486.233 325.793 488.564 330.476 488.086 335.21C487.657 339.459 484.967 342.964 480.634 345.159C484.575 349.438 486.382 354.466 485.45 359.072C484.755 362.493 482.601 365.314 479.312 367.245C481.662 369.427 483.909 372.533 483.869 376.406C483.827 380.872 480.72 385.001 474.622 388.723C477.373 391.418 478.907 394.36 479.193 397.512C479.557 401.514 477.874 405.702 474.184 409.993C478.149 413.765 479.958 417.494 479.697 421.323C479.471 424.638 477.725 427.66 474.384 430.478C478 433.059 480.114 436.729 480.14 440.787C480.168 445.325 477.62 449.441 473.263 452.205C475.776 455.155 476.977 458.228 476.839 461.375C476.659 465.51 474.266 469.404 469.541 473.216C472.413 477.04 473.627 480.736 473.154 484.231C472.697 487.605 470.695 490.676 467.191 493.385C469.977 498.534 470.699 503.091 469.338 506.962C468.14 510.366 465.392 513.101 461.152 515.121C465.226 523.124 463.371 530.469 459.271 534.583C456.411 537.45 452.69 538.635 449.075 538.059C448.763 542.677 446.777 546.295 443.32 548.328C438.961 550.892 433.253 550.318 427.549 546.883C425.129 551.174 420.905 554.31 415.644 555.57C410.199 556.872 404.673 556.023 400.638 553.421C397.057 557.777 393.151 560.255 388.995 560.801C385.393 561.27 381.692 560.292 377.958 557.88C375.767 561.58 372.482 563.879 368.937 563.993C368.851 563.998 368.762 564 368.673 564Z" fill="#4C0505"/>
<path d="M388 382.245L379.937 403L325.557 391.301L306.029 387.104C298.062 394.569 287.68 392.144 280.981 388.101C279.278 387.104 277.796 386.097 276.526 385.1C261.434 373.22 275.399 361.671 289.319 368.827C290.546 369.458 291.773 370.231 292.982 371.167C286.372 355.242 307.895 354.575 309.165 371.388L326.775 373.818L388 382.245Z" fill="white"/>
<path d="M388.08 382.624C381.184 383.638 374.526 382.893 367.872 382.14C361.221 381.356 354.63 380.121 347.998 379.195L308.197 373.699C306.757 373.501 305.684 372.331 305.548 370.938L305.541 370.861C305.421 369.652 305.217 368.468 304.852 367.37C304.473 366.286 303.962 365.282 303.31 364.412C302.031 362.67 300.108 361.483 298.212 361.255C297.269 361.121 296.391 361.295 295.739 361.609C295.071 361.925 294.68 362.421 294.379 363.1C294.088 363.784 294.021 364.765 294.157 365.833C294.308 366.912 294.668 368.063 295.119 369.212L295.126 369.236C295.753 370.836 294.969 372.643 293.378 373.271C292.343 373.68 291.219 373.487 290.389 372.864C288.232 371.236 285.833 369.95 283.31 369.357C280.811 368.722 278.18 368.777 275.996 369.552C274.911 369.943 273.968 370.533 273.316 371.241C272.66 371.95 272.294 372.731 272.195 373.59C271.975 375.299 273.009 377.572 274.812 379.486C276.576 381.437 278.855 383.131 281.357 384.619C282.584 385.361 283.777 386.019 285.056 386.533C286.323 387.057 287.622 387.506 288.937 387.785C291.566 388.415 294.231 388.427 296.707 387.878C299.167 387.259 301.426 386.024 303.345 384.24L303.356 384.231C304.114 383.524 305.15 383.282 306.093 383.477L343.409 391.513L352.737 393.523C355.844 394.202 358.958 394.856 362.093 395.4C365.23 395.944 368.344 396.593 371.398 397.519C372.928 397.965 374.44 398.503 375.929 399.156C377.413 399.817 378.883 400.556 380.294 401.571C380.798 401.933 380.913 402.636 380.553 403.143C380.382 403.385 380.13 403.538 379.864 403.594C378.162 403.941 376.523 404.01 374.9 403.999C373.275 403.985 371.68 403.852 370.101 403.629C366.936 403.215 363.831 402.524 360.747 401.731C357.666 400.936 354.558 400.247 351.447 399.589L342.119 397.579L304.803 389.543L307.55 388.778C304.956 391.213 301.655 393.055 298.129 393.918C294.594 394.721 290.949 394.637 287.585 393.839C284.212 393.09 281.008 391.681 278.171 389.932C275.388 388.264 272.623 386.278 270.235 383.642C269.037 382.338 267.939 380.819 267.13 379.016C266.318 377.237 265.808 375.095 266.069 372.866C266.309 370.645 267.375 368.51 268.836 366.975C270.297 365.416 272.075 364.381 273.883 363.721C275.695 363.063 277.559 362.767 279.392 362.723C281.223 362.681 283.04 362.881 284.767 363.325C288.253 364.156 291.406 365.863 294.155 367.947L289.427 371.599C288.819 370.057 288.292 368.433 288.043 366.635C287.818 364.842 287.844 362.821 288.648 360.809C289.423 358.816 291.041 356.962 292.995 356.045C294.932 355.096 297.026 354.841 298.938 355.089C302.787 355.569 306.086 357.778 308.236 360.669C309.318 362.116 310.123 363.723 310.696 365.372C311.249 367.028 311.538 368.715 311.693 370.387L309.036 367.549L348.841 373.025C355.476 373.929 362.155 374.52 368.769 375.567C375.381 376.641 381.993 377.725 388.364 380.57C388.903 380.812 389.148 381.447 388.908 381.989C388.748 382.342 388.427 382.57 388.08 382.624Z" fill="#4C0505"/>
<path d="M297.385 280C295.546 280 293.716 279.7 291.956 279.078C285.095 276.655 281 270.137 281 261.641C281 259.629 282.625 258 284.63 258C286.636 258 288.261 259.631 288.261 261.641C288.261 266.987 290.486 270.839 294.366 272.209C298.468 273.659 303.359 271.97 306.539 268.006C307.795 266.439 310.082 266.191 311.644 267.451C313.207 268.711 313.455 271.004 312.199 272.57C308.378 277.336 302.856 280 297.385 280Z" fill="#4C0505"/>
<path d="M346.005 286C344.306 286 342.648 285.723 341.115 285.191C335.484 283.232 330.594 277.45 332.37 268.942C332.787 266.941 334.737 265.66 336.723 266.079C338.709 266.5 339.98 268.467 339.563 270.468C338.415 275.959 342.293 277.764 343.511 278.186C346.837 279.344 351.546 278.264 354.026 273.168C354.921 271.331 357.124 270.574 358.943 271.475C360.765 272.377 361.517 274.598 360.623 276.434C357.379 283.093 351.488 286 346.005 286Z" fill="#4C0505"/>
<path d="M323.132 309C322.084 309 321.019 308.897 319.944 308.686C313.587 307.443 309.027 302.827 308.041 296.636C307.768 294.931 308.888 293.323 310.54 293.042C312.19 292.763 313.751 293.916 314.023 295.62C314.868 300.931 319.633 302.262 321.073 302.541C324.043 303.123 328.253 302.501 330.366 298.844C331.22 297.362 333.081 296.875 334.522 297.761C335.957 298.642 336.43 300.565 335.571 302.049C333.024 306.454 328.344 309 323.132 309Z" fill="#4C0505"/>
<path d="M441.864 327C437.701 327 433.59 325.437 430.599 322.561C426.572 318.692 425.094 312.991 426.545 306.926C427.035 304.871 429.071 303.613 431.096 304.108C433.118 304.608 434.359 306.678 433.87 308.733C433.052 312.152 433.714 315.009 435.778 316.993C437.961 319.091 441.449 319.88 444.46 318.956C446.64 318.285 449.471 316.471 450.559 311.642C451.023 309.582 453.048 308.296 455.073 308.765C457.102 309.238 458.37 311.293 457.903 313.356C456.447 319.82 452.341 324.533 446.643 326.287C445.083 326.766 443.469 327 441.864 327Z" fill="#4C0505"/>
<path d="M386.368 315C382.338 315 378.355 313.505 375.455 310.754C371.553 307.053 370.124 301.6 371.527 295.799C372.004 293.833 373.979 292.63 375.938 293.103C377.895 293.581 379.1 295.561 378.623 297.529C377.833 300.798 378.472 303.53 380.472 305.431C382.589 307.437 385.968 308.192 388.883 307.305C390.995 306.664 393.735 304.929 394.791 300.31C395.241 298.339 397.2 297.107 399.164 297.558C401.128 298.01 402.359 299.976 401.906 301.949C400.496 308.132 396.518 312.643 390.998 314.318C389.486 314.777 387.925 315 386.368 315Z" fill="#4C0505"/>
<path d="M410.062 342C408.977 342 407.882 341.896 406.785 341.69C401.698 340.736 397.43 337.614 395.373 333.338C394.493 331.505 395.222 329.289 397.001 328.384C398.783 327.479 400.938 328.228 401.818 330.058C402.872 332.249 405.213 333.881 408.077 334.419C411.351 335.036 414.592 334.091 416.955 331.828C418.406 330.437 420.682 330.519 422.035 332.014C423.39 333.509 423.308 335.847 421.854 337.24C418.614 340.341 414.442 342 410.062 342Z" fill="#4C0505"/>
<path d="M248.287 578.423C247.816 578.794 247.123 579.039 246.38 579.283C245.637 579.527 244.806 579.705 243.961 579.906C242.251 580.294 240.49 580.716 238.493 580.996H238.489C238.253 581.029 238.036 580.859 238.004 580.617C237.992 580.531 238.006 580.445 238.041 580.373C238.473 579.381 239.054 578.531 239.675 577.721C240.31 576.926 241.002 576.195 241.752 575.522C242.507 574.859 243.306 574.224 244.236 573.764C245.166 573.313 246.191 572.945 247.504 573.007C248.949 573.079 250.066 574.353 249.997 575.853C249.96 576.684 249.565 577.412 248.974 577.884L248.287 578.423Z" fill="#4C0505"/>
<path d="M260.308 599H230.614C224.978 599 220.315 594.725 219.995 589.27L218.005 555.213C217.906 553.537 219.231 552.101 220.962 552.005C222.692 551.911 224.172 553.193 224.271 554.871L226.26 588.926C226.39 591.165 228.304 592.916 230.614 592.916H260.308C261.306 592.916 262.256 592.497 262.917 591.767C263.545 591.069 263.822 590.194 263.697 589.302C263.196 585.713 261.32 582.587 258.547 580.722C255.976 578.993 252.858 578.471 249.525 579.21C247.839 579.584 246.155 578.56 245.769 576.921C245.381 575.284 246.439 573.653 248.128 573.279C253.152 572.166 258.121 573.035 262.122 575.721C266.341 578.558 269.182 583.21 269.916 588.486C270.28 591.106 269.45 593.762 267.639 595.769C265.788 597.823 263.117 599 260.308 599Z" fill="#4C0505"/>
<path d="M248.157 581C248.126 581 248.091 581 248.06 580.998C246.317 580.943 244.949 579.47 245.001 577.707L245.69 555.096C245.742 553.333 247.204 551.944 248.94 552.002C250.683 552.057 252.051 553.53 251.999 555.292L251.31 577.904C251.256 579.633 249.855 581 248.157 581Z" fill="#4C0505"/>
<g opacity="0.25">
<path opacity="0.25" d="M232.053 227.104C209.387 239.935 200.183 261.153 199.294 287.554C199.03 295.403 208.598 299.4 214.059 293.757C228.349 278.985 238.715 260.117 243.988 235.939C245.484 229.074 238.167 223.643 232.053 227.104Z" fill="white"/>
</g>
<g opacity="0.25">
<path opacity="0.25" d="M210.662 327.998C209.348 338.665 207.595 347.229 200.635 346.371C193.673 345.513 189.095 336.171 190.411 325.502C191.725 314.836 198.434 306.882 205.394 307.74C212.354 308.598 211.976 317.33 210.662 327.998Z" fill="white"/>
</g>
<g opacity="0.3">
<path opacity="0.3" d="M325.445 391.03L305.562 386.776C297.451 394.34 286.882 391.881 280.059 387.788C278.328 386.776 276.817 385.758 275.523 384.748C287.211 386.956 292.682 383.082 288.222 369.518L288.551 368.264C289.798 368.902 291.048 369.686 292.278 370.632C285.549 354.502 307.462 353.826 308.756 370.858L326.685 373.32C316.578 379.567 316.965 385.441 325.445 391.03Z" fill="#792937"/>
<path opacity="0.3" d="M293.133 392.097C288.354 392.097 283.639 390.452 279.83 388.167C278.128 387.177 276.585 386.142 275.25 385.098L273.807 383.972L275.604 384.312C281.655 385.457 285.743 384.874 287.75 382.583C289.825 380.217 289.841 375.869 287.799 369.655L287.757 369.532L288.259 367.615L288.75 367.867C289.631 368.317 290.499 368.832 291.338 369.406C289.548 364.086 291.182 361.224 292.389 359.949C294.366 357.865 297.608 357.289 300.857 358.443C305.522 360.101 308.612 364.581 309.165 370.469L327.969 373.049L326.917 373.699C322.06 376.702 319.577 379.678 319.535 382.552C319.496 385.214 321.568 387.944 325.689 390.659L327.659 391.96L305.694 387.261C301.881 390.736 297.48 392.097 293.133 392.097ZM277.277 385.489C278.203 386.137 279.21 386.778 280.284 387.403C287.333 391.634 297.592 393.601 305.26 386.452L305.431 386.293L323.444 390.146C320.225 387.648 318.612 385.095 318.649 382.538C318.691 379.562 320.973 376.557 325.433 373.597L308.34 371.249L308.314 370.893C307.88 365.191 304.983 360.851 300.564 359.28C297.697 358.261 294.741 358.763 293.039 360.56C291.035 362.676 290.909 366.194 292.692 370.464L293.333 372.005L292.009 370.986C290.995 370.205 289.93 369.511 288.839 368.919L288.687 369.506C290.823 376.063 290.736 380.531 288.422 383.172C286.377 385.496 282.725 386.258 277.277 385.489Z" fill="#650000"/>
</g>
<g opacity="0.3">
<path opacity="0.3" d="M392.296 400.405C389.739 402.342 386.45 403.022 383.32 402.318L362.288 397.635L353.488 395.677C362.852 392.428 366.001 386.762 362.926 378.659L367.898 379.16L367.285 380.121L369.949 380.407L370.238 381.274C370.318 381.123 370.231 380.806 370.05 380.419L387.634 382.344L386.735 381.06L389.844 381.377C400.732 387.323 398.378 395.796 392.296 400.405Z" fill="#650000"/>
</g>
<g opacity="0.3">
<path opacity="0.3" d="M422.512 548.696L419.538 589.444C419.254 593.397 415.958 596.462 411.995 596.462H375.83C371.273 596.462 367.782 592.332 368.616 587.854C368.882 586.458 369.318 585.127 369.931 583.873C371.76 582.912 373.082 582.248 373.082 582.248C398.73 589.728 409.496 579.787 405.774 552.852C411.258 554.419 418.205 553.13 422.512 548.696Z" fill="#650000"/>
</g>
<path d="M403.746 448.367C405.291 450.535 406.21 453.439 405.959 456.616C405.843 458.192 405.405 459.805 404.657 461.252C403.909 462.692 402.872 463.963 401.651 464.879C399.22 466.755 396.242 467.355 393.572 466.804C390.899 466.263 388.482 464.555 387.135 462.144C386.878 461.688 387 461.079 387.402 460.789C387.625 460.631 387.883 460.599 388.115 460.682L388.16 460.697C390.261 461.427 392.143 461.661 393.887 461.43C395.621 461.211 397.177 460.555 398.39 459.566C399.604 458.565 400.466 457.271 401.099 455.517C401.402 454.635 401.641 453.639 401.81 452.538C401.974 451.434 402.053 450.248 402.191 448.942L402.197 448.876C402.253 448.333 402.689 447.943 403.168 448.007C403.404 448.036 403.609 448.175 403.746 448.367Z" fill="#650000"/>
<g opacity="0.6">
<g opacity="0.6">
<path opacity="0.6" d="M415.365 502.942C415.722 505.583 415.132 508.476 413.321 510.932C412.433 512.156 411.223 513.231 409.816 513.991C408.405 514.75 406.811 515.205 405.226 515.268C402.039 515.431 398.979 514.247 396.779 512.294C394.567 510.345 393.173 507.59 393.121 504.858C393.11 504.338 393.522 503.911 394.04 503.902C394.324 503.895 394.581 504.016 394.755 504.212L394.79 504.249C396.373 506.028 398.002 507.28 399.737 508.072C401.454 508.869 403.224 509.207 404.839 509.084C406.459 508.946 407.902 508.375 409.361 507.294C410.081 506.744 410.794 506.063 411.501 505.259C412.2 504.445 412.862 503.525 413.636 502.532L413.676 502.483C414 502.07 414.596 501.995 415.009 502.317C415.212 502.476 415.333 502.704 415.365 502.942Z" fill="#650000"/>
</g>
</g>
<g opacity="0.6">
<g opacity="0.6">
<path opacity="0.6" d="M434.878 246.259C437.228 247.523 439.223 249.698 440.149 252.607C440.617 254.047 440.776 255.654 440.563 257.242C440.351 258.827 439.783 260.386 438.902 261.707C437.165 264.382 434.407 266.16 431.533 266.798C428.657 267.444 425.608 266.954 423.366 265.391C422.941 265.095 422.837 264.51 423.135 264.084C423.296 263.852 423.545 263.716 423.806 263.687L423.855 263.682C426.226 263.445 428.198 262.86 429.855 261.922C431.51 261 432.822 259.767 433.669 258.388C434.512 256.995 434.895 255.492 434.878 253.677C434.855 252.772 434.722 251.793 434.487 250.75C434.242 249.706 433.883 248.628 433.536 247.418L433.517 247.358C433.372 246.853 433.664 246.327 434.167 246.182C434.412 246.111 434.669 246.147 434.878 246.259Z" fill="#650000"/>
</g>
</g>
<path d="M472.915 464.495C463.65 467.887 454.28 470.933 444.805 473.638C358.89 498.175 264.552 495.016 164.986 474.715C141.702 447.873 159.513 419.134 159.513 419.134C219.604 427.308 278.393 432.23 335.012 431.707C364.088 426.925 422.55 416.26 453.174 410.642C465.183 408.434 472.915 407 472.915 407C485.515 430.565 484.532 449.394 472.915 464.495Z" fill="#6D445B"/>
<g opacity="0.55">
<path opacity="0.55" d="M158.632 424.49C218.905 432.644 277.874 437.558 334.665 437.033C363.83 432.264 422.469 421.621 453.187 416.015C465.233 413.812 472.988 412.381 472.988 412.381C478.489 422.612 481.405 431.945 481.993 440.469C482.697 430.322 479.86 418.943 472.988 406.162C472.988 406.162 465.233 407.593 453.187 409.796C422.469 415.402 363.83 426.045 334.665 430.814C277.874 431.339 218.905 426.427 158.632 418.271C158.632 418.271 151.142 430.301 152.207 446.052C153.047 433.46 158.632 424.49 158.632 424.49Z" fill="white"/>
</g>
<g opacity="0.55">
<path opacity="0.55" d="M474.485 409.946C450.642 414.316 377.557 427.668 343.854 433.176C287.063 433.701 228.094 428.789 167.821 420.643C167.821 420.643 149.955 449.309 173.31 476.1C184.059 478.278 194.745 480.259 205.361 482.026C191.726 479.912 177.974 477.424 164.124 474.618C140.769 447.833 158.635 419.158 158.635 419.158C218.908 427.314 277.876 432.225 334.668 431.703C375.266 425.057 472.991 407.051 472.991 407.051C473.515 408.027 474.014 408.988 474.485 409.946Z" fill="white"/>
</g>
<path d="M312.868 494C266.685 494 217.063 488.559 163.493 477.695C162.824 477.557 162.217 477.205 161.768 476.691C148.935 461.965 148.037 446.673 149.544 436.435C151.166 425.41 155.795 417.884 155.992 417.569C156.639 416.53 157.842 415.973 159.046 416.132C224.737 425.016 282.065 429.1 334.294 428.637C374.517 422.05 471.27 404.23 472.244 404.051C473.577 403.808 474.907 404.449 475.545 405.635C488.244 429.266 488.151 449.695 475.266 466.355C474.907 466.818 474.425 467.172 473.873 467.373C425.143 485.134 371.808 494 312.868 494ZM165.777 471.814C285.692 496.001 385.518 492.739 470.888 461.844C481.409 447.703 481.488 430.904 471.119 410.577C456.237 413.315 371.782 428.807 335.065 434.811C334.909 434.837 334.75 434.851 334.592 434.851C282.552 435.338 225.529 431.316 160.317 422.577C157.105 428.823 148.073 450.704 165.777 471.814Z" fill="#4C0505"/>
<g opacity="0.3">
<path opacity="0.3" d="M279.473 489.949C300.971 484.977 298.416 432.493 280.216 431.652H332.567L349.48 429.216L399.2 435.565C399.2 435.565 417.416 454.598 430.956 441.139C430.956 441.139 416.854 464.989 393.957 453.737L375.878 451.901C375.878 451.901 376.78 483.168 363.109 488.587L317.101 489.951H279.473V489.949Z" fill="#650000"/>
</g>
<g opacity="0.3">
<path opacity="0.3" d="M472.99 464.42C463.697 467.805 454.298 470.844 444.795 473.543C466.951 460.022 453.189 410.685 453.189 410.685C465.235 408.482 472.99 407.051 472.99 407.051C485.628 430.565 484.642 449.353 472.99 464.42Z" fill="#650000"/>
</g>
<path d="M399.82 444.24L366.54 438.556C366.533 438.554 366.533 438.554 366.524 438.552L324 431.288L324.891 405L343.187 408.937L405.769 422.412C416.636 407.207 441.079 412.054 420.612 432.331C445.444 447.469 414.839 470.074 399.82 444.24Z" fill="#F44906"/>
<g opacity="0.55">
<path opacity="0.55" d="M428.983 420.876C424.851 418.005 415.685 419.825 409.594 426.899C408.709 427.916 407.378 428.422 406.056 428.154L345.155 415.664L341.582 414.93C341.729 413.347 342.095 411.683 342.708 409.939L343.13 410.028L406.233 422.965C414.466 411.34 430.711 411.252 428.983 420.876Z" fill="white"/>
</g>
<path d="M324.882 404.155C332.095 403.547 338.916 404.84 345.751 406.061C352.568 407.37 359.305 409.068 366.11 410.432L406.923 418.728L403.759 419.966C406.211 416.54 409.512 413.7 413.371 411.845C415.3 410.922 417.369 410.231 419.578 409.9C421.783 409.59 424.153 409.565 426.642 410.439C427.874 410.89 429.145 411.616 430.188 412.733C431.233 413.846 431.933 415.331 432.166 416.753C432.414 418.18 432.295 419.519 432.026 420.701C431.76 421.894 431.347 422.963 430.881 423.96C429.936 425.944 428.758 427.646 427.508 429.226C426.253 430.803 424.916 432.258 423.528 433.634L422.917 428.798C425.144 430.121 427.309 431.671 429.239 433.641C431.137 435.621 432.857 438.079 433.615 441.095C433.984 442.592 434.112 444.199 433.893 445.772C433.678 447.344 433.162 448.876 432.39 450.224C430.858 452.946 428.457 454.951 425.835 456.223C420.549 458.814 414.248 458.432 409.256 455.983C406.738 454.778 404.511 453.117 402.623 451.223C400.717 449.333 399.154 447.206 397.804 444.999L399.941 446.456L359.555 439.495L349.456 437.756C346.089 437.17 342.726 436.583 339.338 436.132C335.949 435.686 332.578 435.142 329.256 434.312C327.592 433.912 325.945 433.428 324.317 432.813C322.691 432.2 321.082 431.495 319.521 430.51C318.998 430.179 318.842 429.49 319.176 428.972C319.341 428.715 319.598 428.546 319.875 428.481C321.681 428.079 323.435 427.952 325.176 427.919C326.916 427.882 328.633 427.982 330.336 428.16C333.746 428.488 337.103 429.106 340.446 429.82C343.792 430.528 347.156 431.099 350.522 431.678L360.621 433.417L401.007 440.378C401.93 440.536 402.696 441.1 403.146 441.835C405.378 445.529 408.353 448.714 411.962 450.427C415.512 452.171 419.742 452.329 423.099 450.682C424.76 449.882 426.159 448.651 426.957 447.215C427.774 445.781 427.977 444.19 427.575 442.582C427.181 440.97 426.138 439.354 424.753 437.917C423.348 436.479 421.613 435.214 419.742 434.104C418.263 433.227 417.78 431.326 418.664 429.862C418.792 429.647 418.96 429.439 419.13 429.268C421.606 426.8 423.92 424.094 425.242 421.342C425.893 419.996 426.206 418.613 426.036 417.815C425.963 417.412 425.828 417.162 425.606 416.91C425.38 416.665 425.007 416.418 424.491 416.228C423.451 415.846 421.974 415.775 420.502 415.999C419.018 416.219 417.507 416.714 416.079 417.396C413.214 418.772 410.7 420.925 408.836 423.532C408.098 424.559 406.841 425.005 405.672 424.769L364.859 416.478C358.059 415.079 351.194 414.012 344.407 412.555C337.638 411.013 330.854 409.542 324.464 406.17C323.937 405.89 323.736 405.24 324.019 404.72C324.196 404.389 324.532 404.188 324.882 404.155Z" fill="#4C0505"/>
<g opacity="0.3">
<path opacity="0.3" d="M366.672 438.617L323.809 431.715L324.492 405.469L342.941 409.247C337.424 424.077 348.2 432.797 366.672 438.617Z" fill="#650000"/>
</g>
</svg>
