<svg width="290" height="290" viewBox="0 0 290 290" fill="none" xmlns="http://www.w3.org/2000/svg">
<rect width="290" height="290" fill="white"/>
<path d="M197.911 128.877C205.757 126.331 205.168 116.44 196.185 113.223C199.353 119.667 197.018 123.321 190.899 123.871C185.284 123.808 178.912 130.087 184.856 135.27L187.288 136.428" fill="#11C3F2"/>
<path d="M187.208 136.599L184.732 135.413C182.516 133.48 181.771 131.166 182.636 128.896C183.755 125.958 187.335 123.681 190.813 123.681C190.842 123.681 190.872 123.681 190.901 123.681C193.833 123.417 195.883 122.404 196.811 120.753C197.825 118.949 197.557 116.443 196.015 113.306L195.808 112.887L196.248 113.045C200.758 114.661 203.634 118.203 203.577 122.07C203.528 125.322 201.431 127.934 197.969 129.057L197.852 128.697C201.153 127.627 203.152 125.147 203.198 122.065C203.252 118.488 200.661 115.193 196.558 113.567C197.976 116.626 198.173 119.105 197.141 120.939C196.149 122.704 193.996 123.783 190.916 124.06C187.6 124.024 184.048 126.254 182.989 129.032C182.422 130.521 182.305 132.783 184.962 135.111L187.371 136.258L187.208 136.599Z" fill="#390176"/>
<g opacity="0.55">
<path opacity="0.55" d="M197.888 115.051C201.056 121.497 198.72 125.15 192.604 125.699C187.61 125.645 182.02 130.601 185.025 135.348L184.859 135.268C178.913 130.086 185.287 123.806 190.9 123.871C197.017 123.322 199.352 119.669 196.184 113.223C198.735 114.135 200.609 115.589 201.806 117.254C200.753 116.368 199.447 115.607 197.888 115.051Z" fill="white"/>
</g>
<path d="M223.39 151.469C223.39 151.469 232.728 159.074 228.469 175.162C228.163 176.232 227.947 177.285 227.822 178.315C227.383 181.873 228.004 185.197 229.571 188.236C231.237 191.473 231.369 195.333 229.624 198.525C223.821 209.12 205.008 209.99 190.703 203.173C190.809 207.129 191.57 211.115 192.872 215.025C193.683 217.478 194.712 219.904 195.919 222.274V222.278C197.1 224.598 198.455 226.869 199.959 229.065C201.143 230.795 200.893 233.126 199.402 234.599L196.669 237.291C194.916 239.02 192.081 238.952 190.412 237.143C188.451 235.02 186.365 233.025 184.177 231.185H184.174C183.943 230.992 183.708 230.799 183.474 230.606C162.545 213.481 132.724 210.192 113.127 236.711C112.271 237.866 111.439 239.077 110.625 240.345C110.602 240.383 110.575 240.42 110.546 240.458C109.035 242.699 106.09 243.494 103.626 242.343L102.047 241.605L96.7671 239.141C96.3963 238.967 96.0514 238.758 95.7376 238.516C93.8068 237.036 93.0157 234.405 93.9778 232.073C94.8525 229.961 95.8627 227.981 96.904 226.191C98.4292 223.557 100.015 221.323 101.302 219.662H101.298C90.3699 204.91 94.8821 178.409 119.412 172.466C119.612 172.421 119.813 172.371 120.017 172.326L125.846 177.024H127.625C119.725 169.866 117.216 157.113 129.893 142.164C134.481 162.279 158.302 156.034 169.253 137.448C169.301 137.364 169.351 137.281 169.396 137.198C169.548 136.944 169.691 136.686 169.835 136.426C170.032 135.945 170.236 135.476 170.452 135.021C170.755 134.378 171.073 133.761 171.414 133.17C171.659 132.739 171.977 132.368 172.345 132.061C173.31 131.243 174.623 130.899 175.899 131.217C178.507 131.864 180.994 132.908 183.303 134.279C183.303 134.279 183.326 134.294 183.375 134.324C184.707 135.115 185.979 136.02 187.179 137.012C187.773 133.011 191.022 129.562 195.7 129.252C201.719 128.851 206.28 123.639 205.625 117.647C205.618 117.575 205.61 117.507 205.599 117.435C216.247 121.932 216.746 132.985 210.951 139.957L229.188 120.91C230.937 119.082 233.954 120.868 233.197 123.279L225.172 148.846C224.839 149.91 224.207 150.807 223.39 151.469Z" fill="white"/>
<path d="M210.951 139.958L229.189 120.91C230.938 119.084 233.956 120.867 233.199 123.281L225.173 148.846C224.367 151.413 221.822 153.019 219.159 152.641C213.948 151.902 209.206 148.383 208.01 142.727" fill="#FFB612"/>
<g opacity="0.3">
<path opacity="0.3" d="M233.197 123.28L225.172 148.846C224.366 151.413 221.822 153.018 219.157 152.643C214.129 151.927 209.534 148.623 208.145 143.305C209.97 145.292 212.419 146.681 215.069 147.34C217.68 147.987 220.376 146.651 221.439 144.179L231.716 120.309C232.819 120.714 233.633 121.895 233.197 123.28Z" fill="#390176"/>
</g>
<g opacity="0.55">
<path opacity="0.55" d="M233.311 122.19C232.675 122.152 232.017 122.372 231.475 122.936L213.238 141.984L210.297 144.751C210.705 146.693 211.535 148.381 212.655 149.793C210.38 148.086 208.665 145.633 208.01 142.537L210.952 139.77L229.189 120.722C230.71 119.131 233.193 120.278 233.311 122.19Z" fill="white"/>
</g>
<path d="M105.015 218.81L97.6567 227.445L94.242 231.449L88.7078 227.055C87.4134 226.025 87.0123 224.223 87.7694 222.755C88.4695 221.393 89.2118 220.067 89.9496 218.81C93.22 213.261 96.4903 209.075 96.4903 209.075L105.015 218.81Z" fill="#E4E8EB"/>
<g opacity="0.9">
<path opacity="0.9" d="M89.9753 224.556C89.2974 225.87 89.5475 227.452 90.5392 228.508L88.7068 227.055C87.4125 226.025 87.0113 224.223 87.7684 222.755C88.4685 221.393 89.2108 220.067 89.9486 218.81C93.219 213.261 96.4893 209.075 96.4893 209.075L98.4046 211.263C97.5261 212.417 94.839 216.054 92.1548 220.613C91.4177 221.869 90.6761 223.194 89.9753 224.556Z" fill="white"/>
</g>
<path d="M97.6557 227.445L94.241 231.449L88.7068 227.055C87.4125 226.025 87.0113 224.223 87.7684 222.755C88.4685 221.393 89.2108 220.067 89.9487 218.811C89.9487 218.811 96.3421 220.821 97.4174 225.317C97.4174 225.317 97.5277 226.233 97.6557 227.445Z" fill="#4C0505"/>
<g opacity="0.55">
<path opacity="0.55" d="M94.7864 230.773L94.0523 231.636L88.5181 227.241C87.2237 226.212 86.8226 224.41 87.5789 222.941C88.279 221.579 89.0213 220.253 89.7592 218.997C89.7592 218.997 91.1483 219.436 92.7461 220.359C92.0645 221.525 91.3836 222.748 90.7397 224.005C89.9827 225.473 90.3838 227.275 91.6781 228.305L94.7864 230.773Z" fill="white"/>
<path opacity="0.55" d="M94.0782 231.898L88.4005 227.389C87.0328 226.301 86.6169 224.394 87.411 222.854C88.0563 221.599 88.7712 220.305 89.5964 218.901L89.6726 218.771L89.8162 218.816C89.8739 218.834 91.2438 219.272 92.8401 220.196L93.0044 220.291L92.9082 220.455C92.1496 221.753 91.4947 222.942 90.907 224.091C90.1951 225.472 90.5688 227.181 91.7951 228.157L95.0558 230.747L94.0782 231.898ZM89.8451 219.226C89.0561 220.573 88.3694 221.818 87.7477 223.027C87.0358 224.408 87.4095 226.118 88.6358 227.093L94.0264 231.374L94.5156 230.8L91.5613 228.453C90.1936 227.366 89.7777 225.459 90.5718 223.918C91.1379 222.813 91.7648 221.67 92.4863 220.43C91.2852 219.753 90.2195 219.356 89.8451 219.226Z" fill="#390176"/>
</g>
<path d="M199.402 234.599L196.669 237.291C194.917 239.02 192.081 238.952 190.412 237.143C188.451 235.02 186.365 233.025 184.177 231.185C188.822 231.916 195.916 227.021 195.919 222.278C197.101 224.598 198.456 226.87 199.959 229.066C201.144 230.794 200.893 233.126 199.402 234.599Z" fill="#4C0505"/>
<g opacity="0.9">
<path opacity="0.9" d="M195.919 150.515C189.43 142.164 182.777 136.39 175.833 135.11C174.796 134.919 173.757 135.488 173.35 136.461C169.623 145.368 169.302 155.905 169.835 166.853L166.69 168.7C166.69 168.7 165.607 146.942 169.396 137.199C169.706 136.396 170.051 135.677 170.433 135.056C170.44 135.045 170.448 135.033 170.452 135.022C171.16 133.875 171.784 132.899 172.345 132.062C173.31 131.244 174.623 130.9 175.899 131.217C178.507 131.865 180.994 132.909 183.303 134.28C183.303 134.28 183.326 134.295 183.375 134.325C184.314 134.924 194.39 141.518 195.919 150.515Z" fill="white"/>
</g>
<path d="M113.127 236.711C112.271 237.866 111.439 239.077 110.625 240.345C109.133 242.673 106.132 243.513 103.626 242.344L96.7669 239.141C96.3961 238.968 96.0513 238.759 95.7375 238.517C95.6502 238.452 95.5673 238.384 95.4873 238.313C95.4304 238.267 95.3778 238.218 95.3282 238.169C95.2794 238.128 95.2335 238.082 95.1884 238.037C95.158 238.006 95.1277 237.972 95.0936 237.938C95.0181 237.859 94.9464 237.779 94.8775 237.696C94.7939 237.601 94.7147 237.499 94.6392 237.397C94.6355 237.39 94.6318 237.382 94.6244 237.374C94.5526 237.276 94.4846 237.174 94.4202 237.068C94.3558 236.973 94.2988 236.871 94.2426 236.769C94.2315 236.746 94.2159 236.72 94.2048 236.693C94.1597 236.61 94.1138 236.523 94.076 236.436C93.9584 236.182 93.8599 235.921 93.7845 235.652C93.7504 235.534 93.7201 235.414 93.6934 235.289C93.6705 235.187 93.652 235.081 93.6364 234.974C93.629 234.936 93.6216 234.895 93.6172 234.853C93.6024 234.743 93.5906 234.633 93.5832 234.523C93.5721 234.395 93.5684 234.262 93.5684 234.133C93.5684 233.448 93.7008 232.748 93.9769 232.074C94.8516 229.962 95.8618 227.982 96.9031 226.192C96.9823 226.215 98.1183 226.559 99.8175 227.271C103.327 228.735 109.228 231.756 113.127 236.711Z" fill="#4C0505"/>
<g opacity="0.9">
<path opacity="0.9" d="M102.74 217.879L105.015 219.662C105.015 219.662 102.343 222.694 99.8178 227.27C98.1178 226.558 96.9826 226.214 96.9034 226.191C98.4287 223.557 100.015 221.323 101.302 219.662H101.298C90.3694 204.91 94.8815 178.409 119.411 172.466L121.258 173.576C101.108 182.002 95.6808 197.105 102.74 217.879Z" fill="white"/>
</g>
<path d="M126 147.398L119.547 138.759C119.547 138.759 101.959 167.859 131.32 179.743" fill="#11C3F2"/>
<path d="M131.249 179.919C122.892 176.537 117.527 171.432 115.302 164.745C111.201 152.423 119.303 138.798 119.386 138.661L119.531 138.421L126.153 147.285L125.849 147.511L119.568 139.103C118.503 140.99 111.916 153.377 115.662 164.627C117.851 171.203 123.143 176.229 131.391 179.568L131.249 179.919Z" fill="#390176"/>
<g opacity="0.55">
<path opacity="0.55" d="M131.035 180.3C130.588 180.119 130.153 179.933 129.729 179.744L124.895 150.354L118.44 141.716C118.44 141.716 117.044 144.029 115.693 147.618C117.222 142.693 119.262 139.316 119.262 139.316L125.716 147.954L131.035 180.3Z" fill="white"/>
</g>
<g opacity="0.3">
<path opacity="0.3" d="M131.319 179.742C101.96 167.859 119.547 138.758 119.547 138.758L119.634 138.875C116.883 147.431 115.505 160.975 129.616 169.385L131.319 179.742Z" fill="#390176"/>
</g>
<path d="M102.048 183.191L98.3763 189.262C98.0884 188.96 97.8087 188.706 97.5282 188.498L100.079 186.022C94.9957 177.108 88.3181 180.84 88.3181 180.84C67.0257 192.48 58.0805 175.492 69.5804 162.671C66.6616 175.943 76.2047 178.853 87.9392 175.541C95.1393 173.368 100.81 177.528 102.048 183.191Z" fill="#11C3F2"/>
<path d="M98.4095 189.572L98.2385 189.392C97.9536 189.092 97.6842 188.849 97.4148 188.649L97.2365 188.517L99.8422 185.989C94.9178 177.5 88.4756 180.969 88.4112 181.005C77.1237 187.176 69.7031 185.083 66.5216 181.067C62.7399 176.293 63.9403 168.677 69.4404 162.544L69.9207 162.009L69.766 162.712C68.6315 167.871 69.319 171.677 71.8086 174.024C74.8999 176.939 80.6109 177.414 87.8887 175.359C91.2523 174.344 94.5819 174.652 97.2639 176.228C99.7838 177.708 101.595 180.232 102.233 183.151L102.25 183.225L98.4095 189.572ZM97.8159 188.482C97.9891 188.621 98.1623 188.778 98.3406 188.956L99.7778 186.579L97.8159 188.482ZM91.6845 179.894C94.1127 179.894 97.4126 181.004 100.209 185.867L101.846 183.158C101.217 180.373 99.4796 177.969 97.0714 176.554C95.239 175.477 92.1774 174.459 87.9945 175.721C80.5798 177.815 74.7407 177.309 71.5488 174.299C69.0726 171.964 68.3007 168.279 69.2502 163.339C64.2799 169.231 63.2631 176.344 66.8184 180.832C69.9037 184.727 77.1482 186.731 88.2284 180.674C88.2573 180.657 89.6715 179.894 91.6845 179.894Z" fill="#390176"/>
<g opacity="0.55">
<path opacity="0.55" d="M102.047 183.191L98.3759 189.262C98.2397 189.119 98.1036 188.986 97.9674 188.861L99.1219 186.953L100.08 186.022C100.015 185.909 99.9507 185.799 99.8827 185.689L100.08 185.367C98.8414 179.704 93.171 175.544 85.9717 177.717C74.3845 180.988 64.9332 178.19 67.5108 165.343C68.1088 164.443 68.7978 163.545 69.5815 162.671C66.6627 175.943 76.2058 178.853 87.9403 175.541C95.1389 173.368 100.809 177.528 102.047 183.191Z" fill="white"/>
</g>
<g opacity="0.55">
<path opacity="0.55" d="M99.8175 227.27C98.0724 230.442 96.3991 234.356 95.7368 238.516C95.6494 238.452 95.5665 238.384 95.4866 238.312C95.4296 238.267 95.3771 238.217 95.3275 238.168C95.2787 238.127 95.2328 238.081 95.1876 238.036C95.1573 238.006 95.1269 237.971 95.0929 237.937C95.0174 237.858 94.9456 237.778 94.8768 237.695C94.7932 237.601 94.714 237.499 94.6385 237.396C94.6348 237.389 94.6311 237.382 94.6237 237.374C94.5519 237.275 94.4838 237.173 94.4194 237.067C94.3551 236.972 94.2981 236.87 94.2418 236.768C94.2307 236.745 94.2152 236.719 94.2041 236.693C94.1589 236.609 94.1131 236.522 94.0753 236.435C93.9576 236.181 93.8592 235.92 93.7837 235.651C93.7497 235.534 93.7193 235.413 93.6927 235.288C93.6698 235.186 93.6513 235.08 93.6357 234.973C93.6283 234.936 93.6209 234.894 93.6165 234.852C93.6017 234.743 93.5898 234.632 93.5824 234.523C93.5713 234.394 93.5676 234.262 93.5676 234.133C93.5676 233.447 93.7001 232.747 93.9761 232.073C94.8509 229.961 95.8611 227.981 96.9024 226.191C96.9823 226.214 98.1175 226.559 99.8175 227.27Z" fill="white"/>
<path opacity="0.55" d="M95.8751 238.855L95.6243 238.669C95.5325 238.601 95.4444 238.529 95.3601 238.453C95.306 238.41 95.2483 238.356 95.1943 238.302C95.1528 238.268 95.1033 238.219 95.0544 238.17L94.9604 238.072C94.8775 237.986 94.8028 237.903 94.7317 237.815C94.6496 237.723 94.5667 237.616 94.4875 237.51C94.3965 237.383 94.3255 237.277 94.2581 237.166C94.1959 237.075 94.136 236.968 94.0761 236.861C94.0509 236.813 94.0398 236.79 94.0302 236.768C93.9895 236.695 93.9421 236.603 93.9014 236.511C93.7785 236.246 93.6772 235.972 93.6009 235.703C93.5662 235.583 93.5343 235.457 93.5069 235.328C93.484 235.222 93.464 235.112 93.4477 235.002C93.4403 234.968 93.4322 234.92 93.4278 234.871C93.413 234.766 93.4011 234.652 93.3937 234.538C93.3819 234.407 93.3782 234.269 93.3782 234.135C93.3782 233.405 93.5203 232.688 93.8015 232.004C94.6156 230.039 95.6035 228.052 96.7388 226.099L96.8128 225.971L96.9542 226.012C96.9653 226.015 98.1146 226.355 99.89 227.099L100.084 227.18L99.9825 227.364C97.8548 231.233 96.4887 234.996 95.9233 238.549L95.8751 238.855ZM96.9912 226.417C95.8959 228.314 94.9412 230.241 94.1523 232.147C93.8903 232.784 93.7578 233.453 93.7578 234.134C93.7578 234.257 93.7615 234.384 93.7719 234.507C93.7793 234.615 93.7904 234.722 93.8052 234.827C93.8096 234.87 93.8156 234.905 93.8222 234.937C93.8385 235.048 93.8563 235.15 93.8785 235.247C93.9044 235.369 93.9332 235.485 93.9665 235.598C94.0376 235.85 94.1316 236.104 94.2477 236.355C94.2855 236.44 94.3277 236.523 94.3713 236.601L94.3987 236.656C94.4624 236.773 94.5164 236.87 94.5771 236.961C94.6437 237.069 94.7088 237.168 94.7776 237.262L94.8095 237.311C94.865 237.381 94.9404 237.479 95.0204 237.57C95.0899 237.656 95.1588 237.731 95.2313 237.807L95.3231 237.902C95.3645 237.944 95.4067 237.986 95.4511 238.024C95.5066 238.079 95.554 238.123 95.6043 238.163C96.1971 234.719 97.524 231.089 99.551 227.365C98.253 226.828 97.3279 226.524 96.9912 226.417Z" fill="#390176"/>
</g>
<path d="M100.079 186.022L97.5278 188.498C97.5241 188.494 97.5204 188.494 97.5167 188.49C97.4598 188.449 97.4035 188.411 97.3502 188.373C96.0477 187.487 94.8407 187.555 93.9015 187.911C92.7093 188.358 91.9404 189.262 91.9404 189.262C58.3193 216.327 43.1776 174.405 69.5808 162.67C58.081 175.491 67.0254 192.48 88.3185 180.84C88.3177 180.84 94.9953 177.107 100.079 186.022Z" fill="#FF52B9"/>
<path d="M71.5442 198.389C68.4818 198.389 66.1366 197.634 64.5158 196.84C59.1052 194.186 55.823 188.348 55.9496 181.603C56.105 173.342 61.1722 166.199 69.5031 162.497L70.312 162.138L69.7214 162.797C64.3463 168.789 63.1526 176.205 66.8174 180.832C69.9027 184.727 77.1472 186.731 88.2275 180.674C88.2941 180.637 95.1263 176.954 100.244 185.929L100.316 186.056L97.5227 188.767L97.3858 188.628L97.2392 188.527C96.1883 187.813 95.0871 187.663 93.9681 188.088C92.8381 188.512 92.0921 189.377 92.0847 189.385C83.3682 196.404 76.5123 198.389 71.5442 198.389ZM68.8622 163.212C61.1426 166.945 56.4765 173.767 56.3285 181.611C56.2042 188.207 59.4049 193.912 64.6823 196.5C68.8519 198.544 77.9221 200.304 91.8212 189.115C91.8286 189.101 92.6101 188.192 93.8342 187.734C95.056 187.27 96.309 187.436 97.4553 188.216L97.5079 188.253L99.8413 185.989C94.9169 177.499 88.4746 180.969 88.4103 181.005C77.1228 187.176 69.7022 185.083 66.5207 181.067C62.8751 176.465 63.8586 169.221 68.8622 163.212Z" fill="#390176"/>
<path d="M175.918 236.828C174.862 236.878 173.911 236.227 173.529 235.242C173.075 234.073 172.568 232.975 172.019 231.953C164.997 218.851 150.988 217.318 150.988 217.318C150.988 217.318 164.251 217.171 178.575 226.903C180.029 227.895 181.494 228.985 182.955 230.185C184.26 231.256 178.17 236.719 175.918 236.828Z" fill="#E4E8EB"/>
<path d="M175.807 237.021C174.73 237.021 173.754 236.346 173.352 235.311C172.911 234.175 172.407 233.075 171.852 232.042C164.96 219.184 151.105 217.521 150.966 217.507L150.985 217.129C151.111 217.121 164.473 217.094 178.681 226.747C180.189 227.776 181.667 228.884 183.075 230.039C183.255 230.186 183.43 230.478 183.248 231.029C182.63 232.9 178.002 236.916 175.926 237.017C175.886 237.019 175.847 237.021 175.807 237.021ZM153.723 217.69C158.183 218.866 167.074 222.325 172.186 231.864C172.749 232.91 173.259 234.024 173.706 235.174C174.064 236.096 174.955 236.68 175.909 236.639C177.649 236.554 182.281 232.753 182.89 230.911C183.029 230.49 182.883 230.371 182.836 230.332C181.437 229.183 179.968 228.082 178.469 227.06C168.172 220.064 158.336 218.191 153.723 217.69Z" fill="#390176"/>
<g opacity="0.3">
<path opacity="0.3" d="M175.918 236.828C174.862 236.878 173.911 236.227 173.529 235.242C173.075 234.073 172.568 232.975 172.019 231.953C164.997 218.851 150.988 217.318 150.988 217.318C150.988 217.318 164.251 217.171 178.575 226.903C180.029 227.895 181.494 228.985 182.955 230.185C184.26 231.256 178.17 236.719 175.918 236.828Z" fill="#390176"/>
</g>
<path d="M169.835 136.427C159.166 155.798 134.561 162.643 129.893 142.166C98.2229 179.506 161.311 203.169 166.558 160.05" fill="#FF52B9"/>
<path d="M143.831 183.384C135.652 183.384 127.627 179.195 123.583 172.417C120.561 167.351 117.344 156.669 129.749 142.043L129.994 141.754L130.078 142.123C131.673 149.118 135.827 153.429 141.776 154.266C151.311 155.602 163.303 147.897 169.67 136.335L170.002 136.518C163.562 148.21 151.406 156.003 141.723 154.64C135.713 153.796 131.489 149.517 129.796 142.575C117.828 156.873 120.958 167.276 123.908 172.222C128.668 180.201 139.041 184.531 148.572 182.514C158.397 180.436 164.885 172.24 166.371 160.027L166.747 160.073C165.24 172.457 158.645 180.772 148.651 182.885C147.057 183.222 145.441 183.384 143.831 183.384Z" fill="#390176"/>
<g opacity="0.3">
<path opacity="0.3" d="M165.584 165.195C156.874 198.245 108.353 181.268 124.199 150.516C118.014 175.041 153.691 187.547 165.584 165.195Z" fill="#390176"/>
</g>
<path d="M175.918 236.828C174.861 236.878 173.911 236.226 173.529 235.242C173.075 234.073 172.568 232.975 172.019 231.953C172.019 231.953 176.732 230.541 178.518 226.918L178.575 226.903C180.029 227.895 181.494 228.985 182.955 230.185C184.26 231.256 178.17 236.719 175.918 236.828Z" fill="#4C0505"/>
<path d="M169.835 137.888C169.835 137.888 167.397 143.736 166.69 151.469C158.127 175.854 123.332 180.651 129.892 142.165C134.48 162.28 158.301 156.035 169.252 137.449L169.835 137.888Z" fill="#FF1033"/>
<path d="M143.552 170.605C142.289 170.605 141.066 170.457 139.907 170.157C135.789 169.092 132.636 166.231 130.789 161.886C128.681 156.927 128.316 150.281 129.704 142.133L129.864 141.196L130.076 142.123C131.651 149.028 135.731 153.33 141.565 154.236C150.893 155.682 162.47 148.584 169.088 137.352L169.196 137.17L170.065 137.825L170.009 137.96C169.985 138.019 167.574 143.873 166.877 151.486L166.867 151.532C162.57 163.772 152.145 170.605 143.552 170.605ZM129.93 143.106C127.673 157.621 131.408 167.567 140.002 169.791C148.875 172.085 161.636 165.257 166.503 151.429C167.149 144.413 169.239 138.879 169.605 137.951L169.307 137.726C163.183 147.995 152.937 154.8 144.03 154.8C143.175 154.8 142.334 154.738 141.508 154.609C135.769 153.718 131.684 149.646 129.93 143.106Z" fill="#390176"/>
<g opacity="0.55">
<path opacity="0.55" d="M169.835 137.888C169.835 137.888 169.119 139.599 168.355 142.4C156.851 159.055 134.934 163.882 130.555 144.675C129.479 150.973 129.513 156.114 130.362 160.198C128.919 155.781 128.586 149.83 129.892 142.165C134.48 162.28 158.301 156.035 169.252 137.449L169.835 137.888Z" fill="white"/>
</g>
<g opacity="0.3">
<path opacity="0.3" d="M166.928 149.387C166.833 150.065 166.754 150.758 166.689 151.469C158.127 175.854 123.332 180.651 129.892 142.165C130.092 143.047 130.331 143.88 130.607 144.663C129.786 173.243 157.434 169.37 166.928 149.387Z" fill="#390176"/>
</g>
<g opacity="0.3">
<path opacity="0.3" d="M169.835 137.887C169.835 137.887 169.665 138.292 169.4 139.035C169.505 138.603 169.608 138.19 169.714 137.796L169.835 137.887Z" fill="#792937"/>
<path opacity="0.3" d="M169.577 139.098L169.215 138.989C169.322 138.557 169.424 138.142 169.531 137.748L169.603 137.478L170.066 137.825L170.009 137.961C170.007 137.965 169.837 138.372 169.577 139.098Z" fill="#390176"/>
</g>
<g opacity="0.3">
<path opacity="0.3" d="M169.396 139.049C168.907 141.12 168.453 143.588 168.203 146.283C167.825 147.358 167.397 148.391 166.927 149.387C167.56 144.663 168.752 140.867 169.396 139.049Z" fill="#792937"/>
<path opacity="0.3" d="M166.578 150.573L166.74 149.363C167.373 144.633 168.564 140.832 169.217 138.987L169.58 139.093C169.011 141.504 168.612 143.929 168.391 146.301L168.382 146.347C168.012 147.397 167.58 148.448 167.098 149.468L166.578 150.573ZM168.485 142.629C168.072 144.16 167.648 146 167.316 148.053C167.569 147.453 167.803 146.848 168.017 146.242C168.129 145.049 168.285 143.841 168.485 142.629Z" fill="#390176"/>
</g>
<g opacity="0.55">
<path opacity="0.55" d="M160.553 161.898C148.149 178.274 122.62 177.513 128.321 144.069C128.575 145.179 128.885 146.204 129.248 147.155C126.932 174.42 148.402 175.469 160.553 161.898Z" fill="white"/>
</g>
<path d="M187.18 137.017C187.768 133.015 191.022 129.564 195.701 129.253C201.717 128.853 206.278 123.64 205.623 117.646C205.616 117.576 205.608 117.506 205.6 117.436C222.634 124.627 213.697 148.601 194.56 145.805" fill="#FF52B9"/>
<path d="M197.562 146.217C196.583 146.217 195.574 146.144 194.533 145.993L194.588 145.618C204.722 147.098 211.979 140.871 213.911 133.953C215.369 128.732 214.106 121.394 205.824 117.738C206.105 120.586 205.246 123.361 203.399 125.563C201.499 127.829 198.697 129.243 195.714 129.442C191.415 129.727 187.983 132.854 187.367 137.045L186.993 136.99C187.634 132.621 191.21 129.362 195.688 129.064C198.569 128.873 201.274 127.508 203.109 125.32C204.913 123.169 205.739 120.451 205.435 117.668L205.374 117.135L205.673 117.261C214.449 120.967 215.792 128.624 214.276 134.055C212.498 140.421 206.319 146.217 197.562 146.217Z" fill="#390176"/>
<g opacity="0.3">
<path opacity="0.3" d="M194.561 145.806L187.179 137.016C187.221 136.748 187.27 136.479 187.335 136.218L190.821 140.367C204.993 142.437 213.571 129.828 210.145 120.225C220.63 129.393 211.674 148.304 194.561 145.806Z" fill="#390176"/>
</g>
<g opacity="0.55">
<path opacity="0.55" d="M208.105 119.968C208.759 125.964 204.198 131.176 198.18 131.573C193.501 131.888 190.249 135.336 189.658 139.337L195.155 145.882C194.958 145.863 194.761 145.837 194.561 145.807L187.179 137.017C187.77 133.016 191.022 129.564 195.7 129.253C201.719 128.852 206.28 123.64 205.625 117.647C205.618 117.576 205.61 117.508 205.599 117.436C208.21 118.537 210.209 120.036 211.652 121.77C210.618 121.009 209.43 120.331 208.079 119.76C208.085 119.828 208.097 119.899 208.105 119.968Z" fill="white"/>
</g>
<path d="M100.079 186.022L97.528 188.498L97.5243 188.501C97.5206 188.498 97.5206 188.494 97.5169 188.49C92.8989 181.787 84.1846 189.588 84.1846 189.588C69.3271 200.281 49.2344 179.742 69.5809 162.67C58.0811 175.491 67.0255 192.48 88.3186 180.839C88.3179 180.84 94.9955 177.107 100.079 186.022Z" fill="#FF1033"/>
<path d="M75.4259 192.725C70.7095 192.725 66.4082 190.367 63.7906 187C59.5101 181.496 58.4251 171.783 69.4587 162.525L69.7215 162.796C64.3464 168.789 63.1527 176.205 66.8175 180.832C69.9028 184.727 77.1473 186.731 88.2275 180.673C88.2941 180.637 95.1264 176.954 100.244 185.929L100.316 186.056L97.5294 188.761L97.3584 188.594C96.3068 187.069 94.948 186.197 93.3199 186.003C89.0956 185.499 84.3585 189.687 84.3111 189.73C81.3893 191.831 78.3284 192.725 75.4259 192.725ZM67.9387 164.397C59.0061 172.986 60.1539 181.707 64.0896 186.768C68.211 192.068 76.6159 194.802 84.0743 189.434C84.2571 189.269 88.9668 185.102 93.3636 185.627C95.0435 185.827 96.4511 186.696 97.5508 188.212L99.8413 185.989C94.9169 177.5 88.4747 180.97 88.4103 181.006C77.1228 187.176 69.7022 185.084 66.5207 181.068C63.112 176.764 63.7506 170.151 67.9387 164.397Z" fill="#390176"/>
<g opacity="0.55">
<path opacity="0.55" d="M97.3992 188.324L97.3503 188.372C96.0478 187.487 94.8408 187.555 93.9016 187.911C89.1437 184.973 82.5113 190.912 82.5113 190.912C67.6538 201.605 47.561 181.066 67.9076 163.995C67.5857 164.354 67.2793 164.718 66.9877 165.081C66.984 165.088 66.9803 165.092 66.9766 165.096C51.1126 181.604 70.0234 199.777 84.1846 189.587C84.1846 189.588 92.7508 181.918 97.3992 188.324Z" fill="white"/>
</g>
<g opacity="0.55">
<path opacity="0.55" d="M100.079 186.022L98.5682 187.487C93.4995 178.758 86.8945 182.449 86.8945 182.449C65.6021 194.089 56.657 177.101 68.1568 164.28C67.1725 165.105 66.283 165.941 65.4844 166.778C66.6086 165.397 67.9674 164.022 69.5799 162.671C58.0801 175.492 67.0245 192.481 88.3176 180.84C88.3176 180.84 94.9952 177.107 100.079 186.022Z" fill="white"/>
</g>
<path d="M197.158 153.113C196.63 152.455 196.289 151.769 195.908 151.1C195.512 150.439 195.245 149.737 194.878 149.076C194.7 148.744 194.545 148.402 194.377 148.066C194.208 147.731 194.021 147.405 193.846 147.072C193.669 146.74 193.511 146.398 193.32 146.073L192.751 145.098C191.203 142.507 189.16 140.226 186.877 138.261C184.588 136.301 182.013 134.675 179.245 133.514L178.191 133.121C177.839 132.995 177.493 132.845 177.13 132.754L176.052 132.441L175.782 132.363C175.69 132.335 175.6 132.309 175.54 132.301C175.403 132.268 175.265 132.254 175.127 132.241C174.572 132.203 174.005 132.343 173.513 132.624C173.268 132.765 173.04 132.939 172.842 133.144C172.747 133.25 172.652 133.356 172.57 133.473C172.524 133.528 172.49 133.591 172.451 133.65L172.392 133.742L172.328 133.867C170.873 136.465 169.891 139.369 169.188 142.334C168.488 145.307 168.066 148.361 167.836 151.43C167.609 154.501 167.574 157.592 167.721 160.673L167.868 162.981C167.932 163.75 168.064 164.51 168.158 165.274C168.27 166.036 168.337 166.8 168.339 167.577C168.343 168.354 168.288 169.139 167.992 169.983L167.987 169.999C167.91 170.221 167.666 170.338 167.444 170.26C167.363 170.232 167.297 170.181 167.248 170.119C166.705 169.418 166.385 168.661 166.155 167.891C165.962 167.116 165.815 166.331 165.749 165.538C165.699 164.743 165.669 163.949 165.602 163.158L165.453 160.782C165.302 157.612 165.339 154.434 165.572 151.264C165.809 148.095 166.244 144.931 166.979 141.813C167.72 138.7 168.75 135.613 170.355 132.743L170.427 132.607L170.524 132.45C170.592 132.346 170.654 132.238 170.731 132.141C170.876 131.938 171.039 131.75 171.208 131.568C171.553 131.209 171.951 130.902 172.384 130.654C173.248 130.159 174.265 129.907 175.273 129.975C175.524 129.995 175.775 130.025 176.021 130.082C176.154 130.106 176.251 130.135 176.346 130.164L176.64 130.249L177.815 130.59C178.211 130.691 178.586 130.852 178.97 130.989L180.115 131.417C183.12 132.677 185.897 134.432 188.358 136.54C188.993 137.044 189.551 137.634 190.144 138.187C190.445 138.459 190.707 138.769 190.984 139.065L191.806 139.959C192.314 140.589 192.842 141.205 193.323 141.856L194.038 142.839L194.397 143.329L194.73 143.838L195.397 144.857C195.623 145.195 195.8 145.562 196.003 145.913C196.192 146.274 196.395 146.626 196.565 146.995C196.721 147.371 196.89 147.742 197.035 148.122C197.359 148.866 197.571 149.66 197.745 150.454C197.842 150.848 197.87 151.265 197.896 151.676C197.921 152.088 197.93 152.501 197.89 152.921C197.87 153.142 197.673 153.305 197.451 153.284C197.339 153.273 197.242 153.217 197.176 153.136L197.158 153.113Z" fill="#4C0505"/>
<path d="M174.813 140.526C174.813 140.526 171.406 151.503 175.57 161.345C175.57 161.345 179.733 157.56 182.004 159.831C182.199 158.814 181.247 144.22 174.813 140.526Z" fill="#F883A0"/>
<path d="M175.419 139.655C177.072 140.455 178.511 141.729 179.625 143.24C180.741 144.756 181.512 146.508 181.983 148.299C182.458 150.094 182.667 151.929 182.662 153.74C182.662 155.551 182.486 157.345 182.099 159.096C182.053 159.302 181.849 159.433 181.641 159.387C181.476 159.351 181.36 159.213 181.343 159.053V159.05C181.157 157.291 181.025 155.559 180.797 153.86C180.562 152.164 180.269 150.499 179.808 148.901C179.346 147.304 178.735 145.777 177.932 144.342C177.735 143.98 177.502 143.641 177.296 143.28L176.588 142.249C176.326 141.924 176.068 141.587 175.805 141.248C175.524 140.929 175.239 140.606 174.964 140.259L174.949 140.24C174.817 140.073 174.845 139.831 175.012 139.699C175.132 139.606 175.29 139.594 175.419 139.655Z" fill="#4C0505"/>
<path d="M197.573 147.164C196.546 147.164 195.487 147.089 194.396 146.93C193.776 146.839 193.346 146.262 193.437 145.642C193.528 145.021 194.103 144.592 194.725 144.682C204.761 146.15 211.236 140.017 212.999 133.699C214.27 129.148 213.307 122.862 206.812 119.282C206.707 121.798 205.781 124.197 204.124 126.172C202.059 128.636 199.017 130.172 195.777 130.387C191.927 130.643 188.854 133.437 188.304 137.183C188.213 137.803 187.635 138.232 187.016 138.141C186.396 138.05 185.966 137.473 186.057 136.853C186.765 132.039 190.699 128.449 195.626 128.121C198.251 127.947 200.714 126.704 202.385 124.714C204.022 122.761 204.771 120.296 204.495 117.772L204.472 117.57C204.425 117.169 204.595 116.772 204.919 116.529C205.242 116.287 205.67 116.234 206.042 116.391C213.73 119.637 217.32 126.672 215.188 134.311C213.309 141.036 206.794 147.163 197.573 147.164Z" fill="#4C0505"/>
<path d="M219.946 153.833C219.633 153.833 219.317 153.811 218.999 153.766C212.852 152.894 208.102 148.653 206.898 142.961C206.769 142.348 207.16 141.745 207.775 141.615C208.389 141.486 208.99 141.877 209.121 142.491C210.125 147.238 214.127 150.781 219.318 151.517C221.443 151.82 223.448 150.551 224.09 148.507L232.115 122.941C232.335 122.24 231.971 121.729 231.556 121.483C231.142 121.238 230.517 121.166 230.01 121.696L211.772 140.743C211.338 141.197 210.619 141.212 210.166 140.778C209.713 140.345 209.697 139.625 210.131 139.173L228.369 120.125C229.526 118.917 231.272 118.677 232.712 119.528C234.153 120.38 234.784 122.024 234.283 123.621L226.258 149.186C225.376 151.991 222.808 153.833 219.946 153.833Z" fill="#4C0505"/>
<path d="M224.104 150.588C224.263 150.718 224.365 150.816 224.488 150.927C224.611 151.035 224.713 151.146 224.825 151.256C225.052 151.473 225.251 151.703 225.458 151.929C225.67 152.153 225.854 152.393 226.046 152.63C226.24 152.865 226.429 153.103 226.599 153.353L227.125 154.096L227.601 154.868C227.935 155.375 228.187 155.925 228.469 156.459C229.534 158.63 230.216 160.974 230.561 163.348C230.778 164.535 230.79 165.734 230.862 166.931C230.853 167.528 230.823 168.124 230.804 168.721L230.771 169.616L230.663 170.501L230.44 172.272C230.35 172.86 230.202 173.437 230.084 174.02L229.896 174.893C229.831 175.177 229.771 175.491 229.7 175.742C229.554 176.271 229.438 176.791 229.337 177.314C228.942 179.409 228.927 181.548 229.357 183.598C229.57 184.623 229.891 185.626 230.31 186.59C230.41 186.834 230.524 187.071 230.641 187.307L231.025 188.103C231.167 188.388 231.275 188.688 231.399 188.981C231.501 189.283 231.618 189.58 231.703 189.887C232.432 192.323 232.451 195.02 231.577 197.469C231.37 198.081 231.092 198.673 230.784 199.238L230.287 200.038C230.112 200.299 229.971 200.583 229.764 200.82C229.009 201.82 228.166 202.755 227.21 203.545C225.31 205.147 223.112 206.298 220.844 207.106C218.571 207.913 216.217 208.389 213.86 208.634C211.502 208.874 209.134 208.896 206.788 208.716C204.444 208.524 202.121 208.151 199.838 207.618C197.555 207.087 195.311 206.39 193.137 205.509C190.962 204.635 188.849 203.601 186.832 202.395C184.819 201.181 182.939 199.73 181.284 198.056C179.635 196.382 178.195 194.483 177.199 192.372C177.152 192.272 177.195 192.151 177.295 192.104C177.376 192.066 177.468 192.085 177.527 192.146L177.529 192.148C179.122 193.804 180.761 195.319 182.509 196.694C184.256 198.064 186.083 199.317 187.997 200.438C189.916 201.55 191.93 202.501 194.003 203.301C196.074 204.108 198.215 204.74 200.387 205.213C204.724 206.165 209.212 206.513 213.581 206.03C215.762 205.787 217.912 205.331 219.938 204.594C221.96 203.858 223.859 202.832 225.444 201.475C226.25 200.811 226.939 200.035 227.562 199.216C227.736 199.023 227.844 198.787 227.987 198.573L228.397 197.92C228.633 197.483 228.844 197.038 229.001 196.568C229.667 194.704 229.658 192.605 229.079 190.676C229.013 190.432 228.918 190.197 228.838 189.958C228.737 189.727 228.655 189.487 228.54 189.261L228.18 188.515C228.042 188.241 227.913 187.962 227.796 187.676C227.311 186.544 226.937 185.358 226.692 184.147C226.196 181.721 226.234 179.205 226.699 176.817C226.817 176.22 226.954 175.626 227.114 175.054C227.2 174.755 227.244 174.507 227.307 174.235L227.489 173.435C227.603 172.901 227.749 172.372 227.839 171.832L228.065 170.207L228.178 169.393L228.218 168.578C228.242 168.034 228.278 167.489 228.295 166.945C228.239 165.863 228.25 164.771 228.065 163.703C227.783 161.56 227.202 159.457 226.281 157.512C226.032 157.037 225.826 156.536 225.538 156.083L225.133 155.386L224.684 154.72C224.539 154.494 224.378 154.281 224.213 154.072C224.05 153.862 223.893 153.643 223.715 153.449C223.542 153.249 223.372 153.043 223.19 152.861C223.1 152.77 223.01 152.667 222.92 152.585C222.834 152.503 222.731 152.402 222.67 152.349L222.643 152.326C222.169 151.916 222.116 151.199 222.526 150.725C222.93 150.258 223.63 150.201 224.104 150.588Z" fill="#4C0505"/>
<path d="M202.737 173.31C202.609 171.075 203.378 168.83 204.927 167.033C205.705 166.143 206.721 165.402 207.895 164.952C208.474 164.709 209.11 164.587 209.746 164.506L210.232 164.49L210.475 164.485L210.719 164.504L211.208 164.547L211.689 164.648C212.98 164.932 214.121 165.725 214.942 166.703C215.755 167.697 216.229 168.889 216.433 170.067L216.504 170.511C216.523 170.658 216.529 170.806 216.54 170.953C216.562 171.247 216.574 171.543 216.555 171.832C216.549 172.415 216.472 172.985 216.354 173.543C216.083 174.649 215.589 175.681 214.819 176.544C214.743 176.629 214.613 176.637 214.528 176.561C214.49 176.527 214.467 176.483 214.46 176.436L214.459 176.428C214.299 175.291 214.31 174.287 214.277 173.312C214.245 172.828 214.257 172.354 214.208 171.891C214.201 171.657 214.154 171.432 214.123 171.206C214.106 171.093 214.097 170.979 214.076 170.868L214.001 170.541C213.81 169.672 213.496 168.867 213.027 168.201C212.542 167.563 211.903 167.044 211.141 166.868C210.769 166.748 210.366 166.758 209.971 166.78C209.574 166.847 209.175 166.937 208.8 167.13C208.042 167.485 207.361 168.05 206.727 168.696C206.091 169.346 205.515 170.097 204.931 170.89C204.332 171.681 203.8 172.548 203.099 173.417L203.093 173.425C203.023 173.511 202.897 173.525 202.81 173.455C202.766 173.418 202.74 173.365 202.737 173.31Z" fill="#4C0505"/>
<path d="M205.781 167.686C204.672 166.79 203.972 165.508 203.77 164.213C203.558 162.91 203.827 161.635 204.33 160.551C204.419 160.36 204.645 160.278 204.836 160.366C205 160.442 205.085 160.621 205.048 160.791L205.046 160.798C204.818 161.854 204.864 162.93 205.236 163.828C205.598 164.728 206.27 165.428 207.047 165.8C207.619 166.073 207.861 166.757 207.588 167.329C207.315 167.9 206.631 168.143 206.059 167.87C205.979 167.831 205.904 167.784 205.837 167.731L205.781 167.686Z" fill="#4C0505"/>
<path d="M208.63 165.629C208.357 164.522 208.362 163.349 208.716 162.283C208.891 161.752 209.155 161.255 209.49 160.827C209.824 160.399 210.225 160.041 210.656 159.759C210.832 159.644 211.068 159.693 211.184 159.87C211.28 160.017 211.262 160.207 211.149 160.332L211.142 160.34C210.552 160.999 210.231 161.8 210.197 162.594C210.159 163.388 210.382 164.174 210.761 164.843C211.075 165.395 210.881 166.097 210.329 166.411C209.777 166.725 209.075 166.531 208.761 165.979C208.708 165.886 208.67 165.79 208.645 165.692L208.63 165.629Z" fill="#4C0505"/>
<path d="M210.193 191.393C210.275 192.497 210.271 193.515 210.362 194.492C210.444 195.466 210.596 196.385 210.88 197.252C211.165 198.118 211.596 198.927 212.165 199.7C212.733 200.476 213.448 201.192 214.221 201.943L214.226 201.948C214.381 202.098 214.385 202.346 214.234 202.5C214.132 202.605 213.986 202.639 213.855 202.606C212.757 202.32 211.704 201.779 210.803 200.991C209.899 200.208 209.174 199.16 208.752 198.004C208.321 196.848 208.203 195.607 208.343 194.443C208.49 193.278 208.851 192.173 209.462 191.201C209.578 191.016 209.823 190.96 210.009 191.076C210.119 191.145 210.183 191.259 210.193 191.38V191.393Z" fill="#4C0505"/>
<path d="M226.157 195.622C226.643 194.669 226.336 193.538 225.472 193.097C224.607 192.656 223.512 193.071 223.025 194.025C222.539 194.978 222.846 196.109 223.71 196.55C224.575 196.991 225.67 196.576 226.157 195.622Z" fill="#4C0505"/>
<path d="M229.5 136.004C229.372 136.004 229.243 135.978 229.119 135.923C225.602 134.369 223.999 130.822 224.217 125.078C224.237 124.556 224.676 124.155 225.198 124.169C225.721 124.189 226.128 124.628 226.108 125.151C225.861 131.651 228.144 133.424 229.883 134.192C230.361 134.403 230.577 134.963 230.366 135.44C230.21 135.794 229.864 136.004 229.5 136.004Z" fill="#4C0505"/>
<path d="M226.769 145.357C226.675 145.357 226.579 145.342 226.484 145.312L226.44 145.3C226.388 145.284 226.334 145.269 226.282 145.251C221.966 143.888 217.666 138.169 218.236 131.288C218.279 130.767 218.739 130.383 219.258 130.423C219.779 130.467 220.166 130.923 220.123 131.444C219.601 137.739 223.704 142.462 226.866 143.451C226.882 143.456 226.897 143.461 226.912 143.467L227.054 143.509C227.552 143.666 227.828 144.199 227.671 144.697C227.544 145.099 227.171 145.357 226.769 145.357Z" fill="#4C0505"/>
<path d="M184.856 136.405C184.591 136.405 184.325 136.313 184.11 136.126C180.687 133.14 181.163 130.104 181.752 128.559C183.002 125.278 186.97 122.735 190.815 122.735C190.828 122.735 190.839 122.735 190.852 122.735C192.676 122.565 195.025 121.999 195.987 120.29C196.827 118.795 196.543 116.525 195.167 113.724C194.962 113.309 195.03 112.812 195.338 112.466C195.647 112.122 196.133 111.998 196.568 112.153C201.466 113.908 204.588 117.805 204.524 122.084C204.469 125.704 202.07 128.72 198.262 129.956C197.664 130.15 197.025 129.823 196.832 129.227C196.638 128.63 196.965 127.989 197.561 127.796C200.46 126.855 202.213 124.708 202.253 122.05C202.292 119.519 200.804 117.135 198.312 115.521C198.979 117.834 198.865 119.805 197.967 121.402C197.164 122.831 195.304 124.615 191.002 125.002C190.964 125.005 190.924 125.008 190.888 125.006C190.863 125.006 190.839 125.006 190.814 125.006C187.898 125.006 184.796 126.95 183.874 129.369C183.212 131.106 183.81 132.851 185.603 134.414C186.076 134.827 186.125 135.544 185.712 136.017C185.488 136.274 185.173 136.405 184.856 136.405Z" fill="#4C0505"/>
<path d="M185.136 232.392C184.744 232.392 184.363 232.363 183.997 232.306C183.377 232.208 182.955 231.626 183.053 231.007C183.15 230.387 183.731 229.965 184.352 230.062C186.497 230.401 189.518 229.282 191.867 227.275C193.721 225.691 194.784 223.868 194.784 222.273C194.784 221.646 195.293 221.137 195.919 221.137C196.546 221.137 197.055 221.646 197.055 222.273C197.055 224.533 195.701 226.986 193.342 229.001C190.846 231.134 187.748 232.392 185.136 232.392Z" fill="#4C0505"/>
<path d="M105.974 244C105.021 244 104.055 243.797 103.145 243.372L96.2866 240.17C93.0525 238.66 91.5768 234.913 92.9275 231.641C96.7114 222.474 102.943 215.911 103.206 215.637C103.64 215.184 104.358 215.168 104.811 215.603C105.264 216.037 105.28 216.755 104.846 217.208C104.784 217.272 98.6407 223.751 95.0263 232.508C94.1397 234.656 95.1151 237.118 97.2465 238.113L104.105 241.314C106.102 242.247 108.494 241.567 109.669 239.733C118.686 225.658 130.959 217.557 145.16 216.306C161.121 214.899 178.346 222.402 191.246 236.373C191.843 237.021 192.656 237.388 193.536 237.409C194.415 237.436 195.245 237.1 195.872 236.484L198.604 233.791C199.716 232.695 199.891 230.977 199.021 229.705C193.064 220.994 189.795 211.829 189.568 203.2C189.552 202.573 190.046 202.052 190.673 202.035C191.303 202.004 191.821 202.513 191.838 203.14C192.054 211.332 195.186 220.074 200.895 228.423C202.387 230.603 202.093 233.541 200.198 235.408L197.466 238.101C196.397 239.154 194.983 239.716 193.483 239.679C191.983 239.644 190.595 239.017 189.577 237.914C177.15 224.455 160.62 217.223 145.36 218.568C131.885 219.755 120.205 227.498 111.582 240.958C110.334 242.906 108.187 244 105.974 244Z" fill="#4C0505"/>
<path d="M113.128 237.846C112.792 237.846 112.459 237.697 112.235 237.412C106.684 230.354 96.6768 227.31 96.5769 227.281C95.976 227.101 95.6333 226.469 95.8124 225.869C95.9908 225.268 96.6221 224.926 97.2237 225.103C97.6618 225.234 108.015 228.373 114.021 236.008C114.409 236.501 114.324 237.215 113.831 237.603C113.622 237.767 113.374 237.846 113.128 237.846Z" fill="#4C0505"/>
<path d="M143.843 184.329C135.335 184.329 126.983 179.965 122.77 172.902C117.407 163.913 119.688 152.443 129.027 141.432C129.305 141.105 129.745 140.962 130.162 141.064C130.58 141.166 130.905 141.495 131 141.914C132.523 148.594 136.295 152.541 141.906 153.33C151.074 154.616 162.652 147.116 168.84 135.88C169.143 135.331 169.833 135.13 170.383 135.433C170.932 135.736 171.132 136.427 170.83 136.976C167.564 142.904 162.787 148.04 157.376 151.436C152.036 154.788 146.43 156.26 141.59 155.579C135.708 154.752 131.435 150.879 129.383 144.589C119.129 157.71 121.995 167.17 124.72 171.739C129.279 179.381 139.227 183.525 148.376 181.59C157.781 179.6 163.997 171.7 165.431 159.914C165.506 159.292 166.07 158.85 166.696 158.924C167.318 159 167.761 159.566 167.686 160.189C166.127 172.999 159.26 181.61 148.846 183.811C147.193 184.161 145.515 184.329 143.843 184.329Z" fill="#4C0505"/>
<path d="M143.524 171.358C142.205 171.358 140.928 171.204 139.718 170.891C130.313 168.457 126.292 157.66 128.96 142.007C129.048 141.492 129.536 141.145 130.052 141.233C130.567 141.321 130.913 141.81 130.826 142.326C128.341 156.904 131.842 166.898 140.192 169.059C141.274 169.339 142.418 169.477 143.597 169.477C151.743 169.478 161.67 162.905 165.796 151.155C165.97 150.663 166.51 150.402 167.003 150.576C167.496 150.749 167.755 151.289 167.582 151.782C163.169 164.35 152.413 171.358 143.524 171.358Z" fill="#4C0505"/>
<path d="M131.319 180.879C131.177 180.879 131.033 180.853 130.893 180.796C122.268 177.306 116.72 172.005 114.403 165.043C110.166 152.311 118.229 138.744 118.574 138.172C118.77 137.848 119.113 137.643 119.491 137.625C119.866 137.609 120.23 137.776 120.456 138.079L126.909 146.717C127.284 147.22 127.181 147.932 126.679 148.307C126.176 148.682 125.464 148.579 125.089 148.077L119.701 140.866C117.793 144.667 113.431 154.951 116.561 164.337C118.66 170.632 123.769 175.461 131.744 178.69C132.325 178.926 132.606 179.587 132.371 180.169C132.193 180.611 131.768 180.879 131.319 180.879Z" fill="#4C0505"/>
<path d="M101.299 220.797C100.951 220.797 100.608 220.638 100.385 220.338C94.3812 212.234 92.8781 200.603 96.5563 190.704C100.283 180.673 108.527 173.752 119.767 171.219C120.378 171.082 120.986 171.466 121.124 172.078C121.263 172.69 120.878 173.297 120.266 173.435C109.8 175.793 102.136 182.207 98.6847 191.495C95.2678 200.692 96.651 211.483 102.21 218.985C102.583 219.489 102.478 220.2 101.974 220.573C101.771 220.725 101.534 220.797 101.299 220.797Z" fill="#4C0505"/>
<path d="M94.2404 232.587C93.9932 232.587 93.7438 232.506 93.5351 232.34L88.0017 227.945C86.2817 226.578 85.7593 224.177 86.7598 222.234C90.5667 214.839 95.3934 208.638 95.5969 208.377C95.9832 207.883 96.6967 207.796 97.191 208.182C97.6846 208.568 97.7727 209.281 97.3864 209.776C97.3376 209.838 92.485 216.075 88.7795 223.273C88.274 224.255 88.5412 225.472 89.4152 226.166L94.9486 230.561C95.44 230.951 95.5214 231.666 95.1314 232.157C94.9064 232.439 94.5749 232.587 94.2404 232.587Z" fill="#4C0505"/>
<path d="M97.4161 226.452C96.9025 226.452 96.437 226.102 96.3127 225.581C95.4031 221.772 89.6647 219.913 89.6069 219.895C89.0097 219.705 88.6774 219.068 88.8661 218.47C89.0548 217.873 89.6913 217.539 90.2885 217.729C90.5749 217.819 97.3118 219.989 98.521 225.053C98.6668 225.663 98.2901 226.275 97.6803 226.421C97.5923 226.442 97.5034 226.452 97.4161 226.452Z" fill="#4C0505"/>
<path d="M71.5471 199.337C68.3057 199.337 65.8176 198.533 64.0991 197.69C58.3547 194.873 54.8698 188.702 55.0037 181.586C55.1665 172.948 60.4432 165.489 69.119 161.632C69.5112 161.459 69.9664 161.52 70.2979 161.79C70.6295 162.061 70.7812 162.495 70.6894 162.914C69.6318 167.725 70.2269 171.231 72.4574 173.335C75.2563 175.974 80.7861 176.379 87.6302 174.448C91.2321 173.361 94.8303 173.702 97.7425 175.413C100.489 177.027 102.463 179.774 103.158 182.949C103.291 183.561 102.904 184.167 102.291 184.301C101.677 184.433 101.073 184.047 100.939 183.434C100.379 180.875 98.7941 178.666 96.5917 177.371C94.1976 175.965 91.3187 175.707 88.2667 176.628C80.5041 178.82 74.3431 178.234 70.8996 174.988C68.4411 172.669 67.4945 169.21 68.0748 164.684C61.4016 168.363 57.4075 174.565 57.2742 181.629C57.1566 187.854 60.1553 193.227 65.099 195.651C69.0598 197.593 77.706 199.233 91.1581 188.434C91.5237 188.042 93.0164 186.584 95.0864 186.531C96.5591 186.494 97.946 187.151 99.2011 188.486C99.6311 188.942 99.6089 189.661 99.1523 190.091C98.6957 190.521 97.9771 190.499 97.5471 190.042C96.773 189.219 95.9833 188.802 95.2011 188.802C95.1863 188.802 95.1722 188.802 95.1582 188.802C93.8394 188.828 92.8114 189.991 92.8011 190.004C92.7574 190.054 92.7041 190.107 92.6516 190.148C83.7656 197.301 76.7046 199.336 71.5471 199.337Z" fill="#4C0505"/>
<path d="M75.4333 193.491C70.4764 193.491 65.9487 191.008 63.1934 187.465C60.5817 184.107 59.5234 179.919 60.2147 175.674C61.0013 170.84 64.0297 166.094 68.9726 161.945C69.353 161.627 69.9154 161.655 70.261 162.012C70.6066 162.369 70.617 162.932 70.2854 163.302C65.162 169.015 63.9801 176.031 67.4125 180.363C70.3062 184.016 77.1984 185.84 87.8649 180.01C87.9323 179.971 95.418 175.935 100.903 185.556C101.162 186.009 101.003 186.588 100.549 186.846C100.095 187.105 99.5165 186.947 99.2582 186.493C94.7246 178.54 89.0172 181.536 88.7767 181.668C77.0748 188.066 69.3026 185.795 65.9294 181.538C63.5324 178.512 62.998 174.434 64.1807 170.275C60.4796 176.625 61.7607 182.539 64.6876 186.303C68.5848 191.314 76.5294 193.901 83.5948 188.846C84.118 188.387 88.8951 184.326 93.4613 184.876C95.4299 185.112 97.0587 186.152 98.3028 187.966C98.5981 188.397 98.4885 188.986 98.0578 189.282C97.6264 189.577 97.038 189.468 96.742 189.036C95.8066 187.672 94.6595 186.926 93.2348 186.755C89.3451 186.289 84.861 190.253 84.8166 190.292C84.7914 190.314 84.7655 190.336 84.7382 190.355C81.6817 192.554 78.4765 193.491 75.4333 193.491Z" fill="#4C0505"/>
<path d="M141.881 218.636C141.806 218.636 141.73 218.625 141.655 218.601C141.255 218.477 141.033 218.052 141.158 217.653C147.668 196.775 139.862 183.467 139.783 183.335C139.566 182.977 139.682 182.512 140.04 182.296C140.398 182.08 140.864 182.195 141.079 182.553C141.418 183.116 149.315 196.582 142.603 218.104C142.502 218.428 142.203 218.636 141.881 218.636Z" fill="#4C0505"/>
<path d="M140.446 208.273C138.951 208.273 137.573 207.24 137.332 205.862C137.141 204.77 137.63 203.587 138.711 202.53C140.027 201.243 142.014 200.338 144.617 199.84C146.148 199.547 147.505 199.603 148.649 200.006C150.13 200.526 151.272 201.687 151.63 203.033C152.059 204.647 151.276 206.4 149.848 207.022C148.242 207.724 146.433 206.854 145.477 205.634C145.179 205.255 144.943 204.847 144.749 204.426C144.589 204.955 144.398 205.457 144.157 205.865C143.371 207.197 142.132 208.088 140.845 208.248C140.712 208.265 140.579 208.273 140.446 208.273ZM143.869 201.557C142.089 202.016 140.684 202.718 139.77 203.612C139.357 204.015 138.686 204.811 138.824 205.601C138.959 206.371 139.904 206.84 140.658 206.746C141.483 206.643 142.304 206.026 142.854 205.095C143.268 204.393 143.533 203.14 143.746 202.133C143.789 201.932 143.829 201.739 143.869 201.557ZM145.36 201.251C145.372 201.284 145.383 201.319 145.391 201.355C145.652 202.491 145.947 203.779 146.669 204.7C147.251 205.443 148.351 206.023 149.243 205.634C149.978 205.314 150.401 204.301 150.168 203.422C149.937 202.552 149.164 201.79 148.148 201.434C147.367 201.159 146.431 201.098 145.36 201.251Z" fill="#4C0505"/>
<path d="M148.889 212.55C148.685 212.55 148.481 212.468 148.333 212.306C145.832 209.595 144.21 206.086 143.766 202.424C143.716 202.009 144.012 201.631 144.427 201.581C144.844 201.533 145.22 201.827 145.27 202.242C145.676 205.591 147.159 208.8 149.446 211.279C149.729 211.587 149.71 212.065 149.403 212.349C149.257 212.484 149.073 212.55 148.889 212.55Z" fill="#4C0505"/>
<path d="M175.801 237.966C174.337 237.966 173.012 237.054 172.469 235.651C166.55 220.374 151.019 218.466 150.863 218.449C150.239 218.379 149.791 217.817 149.86 217.195C149.929 216.572 150.49 216.121 151.111 216.191C151.286 216.21 155.446 216.687 160.427 219.215C165.033 221.552 171.228 226.157 174.588 234.831C174.798 235.373 175.307 235.722 175.863 235.694C178.064 235.586 180.888 234.504 181.845 229.951C181.973 229.336 182.575 228.943 183.189 229.073C183.803 229.202 184.196 229.804 184.067 230.418C182.746 236.704 178.428 237.843 175.972 237.962C175.915 237.966 175.858 237.966 175.801 237.966Z" fill="#4C0505"/>
<path d="M172.017 233.087C171.528 233.087 171.077 232.769 170.929 232.277C170.75 231.676 171.091 231.044 171.691 230.864C171.746 230.848 175.963 229.535 177.499 226.418C177.776 225.856 178.456 225.624 179.019 225.902C179.581 226.179 179.813 226.859 179.536 227.422C177.556 231.443 172.554 232.976 172.343 233.04C172.234 233.072 172.125 233.087 172.017 233.087Z" fill="#4C0505"/>
<path d="M125.709 106.058C124.119 117.023 140.772 108.571 131.017 103.432Z" fill="#FFB612"/>
<path d="M136.802 67.2447C143.88 81.5472 138.267 100.237 128.412 105.114C119.494 109.527 100.294 103.116 93.2169 88.8132C86.1397 74.5107 91.7819 61.3671 103.818 55.4111C115.853 49.455 129.725 52.9422 136.802 67.2447Z" fill="#FFB612"/>
<g opacity="0.3">
<path opacity="0.3" d="M128.412 105.114C121.16 108.703 107.101 105.134 98.2998 95.9731C104.803 98.4752 111.397 98.8349 115.652 96.7301C125.505 91.8509 131.119 73.1628 124.041 58.8618C123.004 56.7608 121.815 54.8951 120.513 53.2595C127.035 54.8381 132.936 59.4257 136.805 67.246C143.879 81.547 138.269 100.239 128.412 105.114Z" fill="#390176"/>
</g>
<g opacity="0.55">
<path opacity="0.55" d="M96.6722 90.6203C99.4126 96.1545 103.966 100.504 109.035 103.506C102.63 100.579 96.5663 95.5795 93.2161 88.8108C86.1373 74.5099 91.7811 61.3671 103.818 55.4088C111.627 51.5442 120.217 51.6574 127.215 56.1244C120.958 53.5276 113.842 53.9672 107.274 57.2183C95.2372 63.1728 89.5971 76.3156 96.6722 90.6203Z" fill="white"/>
</g>
<path d="M121.644 107.614C117.954 107.614 113.789 106.743 109.686 105.029C101.907 101.781 95.5328 96.054 92.1988 89.3164C88.6887 82.2236 88.0248 75.0628 90.2776 68.6072C92.3897 62.5557 97.0188 57.5077 103.314 54.3928C109.609 51.2786 116.431 50.6599 122.522 52.6514C129.021 54.7761 134.311 59.6487 137.82 66.7415C141.207 73.5849 142.022 82.0571 140.059 89.9876C138.18 97.5733 134.015 103.609 128.915 106.132C126.91 107.124 124.41 107.614 121.644 107.614ZM115.281 53.7201C111.721 53.7201 108.012 54.6022 104.321 56.4287C91.8946 62.5779 87.8413 75.3891 94.2347 88.3092C97.3289 94.5627 103.281 99.8934 110.562 102.934C117.151 105.685 123.798 106.131 127.908 104.095C132.417 101.865 136.135 96.3862 137.855 89.4407C139.691 82.0246 138.937 74.1177 135.785 67.748C131.29 58.6659 123.706 53.7201 115.281 53.7201Z" fill="#4C0505"/>
<path d="M150.106 103.796C139.913 108.14 155.794 117.968 155.11 106.963Z" fill="#11C3F2"/>
<path d="M151.816 112.188C149.663 112.188 147.233 110.526 146.632 108.503C146.293 107.365 146.285 105.219 150.032 103.621L150.18 103.969C147.603 105.068 146.473 106.639 146.995 108.395C147.601 110.43 150.34 112.13 152.424 111.757C154.206 111.441 155.094 109.742 154.922 106.974L155.299 106.951C155.55 110.979 153.647 111.925 152.49 112.13C152.27 112.169 152.044 112.188 151.816 112.188Z" fill="#390176"/>
<path d="M189.026 93.0847C180.49 106.568 161.609 111.493 152.316 105.614C151.551 105.129 150.817 104.528 150.128 103.82C143.198 96.7532 140.177 79.3328 147.937 67.0759C152.43 59.975 158.483 56.0571 164.865 54.9855C170.604 54.0167 176.607 55.3563 181.978 58.7554C193.322 65.9399 197.562 79.6015 189.026 93.0847Z" fill="#11C3F2"/>
<path d="M161.96 108.25C158.2 108.25 154.814 107.418 152.215 105.774C151.438 105.281 150.69 104.668 149.993 103.952C146.476 100.366 143.987 94.1823 143.335 87.4122C142.612 79.8991 144.19 72.6413 147.777 66.9746C152.09 60.1579 157.988 55.9477 164.834 54.7984C170.559 53.8318 176.683 55.1802 182.079 58.5949C187.803 62.2197 191.731 67.5178 193.142 73.5138C194.648 79.9169 193.28 86.7188 189.186 93.1855C185.22 99.4501 178.596 104.409 171.012 106.79C167.902 107.767 164.822 108.25 161.96 108.25ZM168.503 54.8724C167.29 54.8724 166.085 54.9715 164.896 55.1721C158.16 56.3029 152.351 60.4539 148.097 67.1774C144.554 72.773 142.997 79.9457 143.712 87.376C144.355 94.0632 146.805 100.161 150.264 103.688C150.941 104.383 151.666 104.978 152.418 105.455C156.902 108.291 163.811 108.655 170.899 106.43C178.399 104.076 184.948 99.1748 188.867 92.9842C196.754 80.5267 193.88 66.5173 181.877 58.9161C177.681 56.26 173.041 54.8724 168.503 54.8724Z" fill="#390176"/>
<g opacity="0.3">
<path opacity="0.3" d="M189.662 92.0362C189.458 92.3847 189.246 92.7363 189.026 93.0848C180.491 106.568 161.609 111.493 152.316 105.614C151.552 105.129 150.817 104.528 150.129 103.82C150.004 103.695 149.883 103.566 149.762 103.434C149.758 103.43 149.754 103.426 149.754 103.423C149.629 103.287 149.504 103.147 149.383 103.002C149.369 102.983 149.349 102.961 149.33 102.942C149.228 102.817 149.126 102.692 149.024 102.567C148.906 102.416 148.789 102.265 148.672 102.109C148.441 101.799 148.217 101.473 147.998 101.14C147.971 101.099 147.945 101.061 147.919 101.019C147.83 100.882 147.746 100.744 147.656 100.603C147.546 100.428 147.44 100.249 147.339 100.068C147.243 99.8979 147.148 99.7284 147.056 99.5582C146.954 99.3724 146.859 99.1874 146.761 98.9979C146.666 98.8085 146.571 98.6198 146.476 98.4229C146.385 98.2298 146.291 98.0329 146.204 97.836C146.197 97.8168 146.185 97.7983 146.178 97.7791C145.837 97.0146 145.523 96.216 145.235 95.3864C145.215 95.3294 145.197 95.2769 145.178 95.2199C145.121 95.046 145.06 94.8676 145.004 94.69C144.981 94.6108 144.955 94.5309 144.928 94.4517C144.887 94.3119 144.841 94.172 144.8 94.0277C144.61 93.3883 144.44 92.7296 144.281 92.0628C144.25 91.9229 144.22 91.7868 144.19 91.6498C143.959 90.5864 143.773 89.4963 143.633 88.3832C143.603 88.1375 143.576 87.8911 143.55 87.6454C143.262 84.8516 143.285 81.9483 143.682 79.0643C143.712 78.8334 143.746 78.6025 143.784 78.3716C143.951 77.3193 144.17 76.2669 144.439 75.2301C144.489 75.0524 144.534 74.8741 144.583 74.6965C144.681 74.3405 144.787 73.989 144.901 73.6367C144.958 73.4628 145.014 73.2844 145.075 73.1105C145.132 72.9366 145.192 72.7619 145.257 72.588C145.382 72.2395 145.514 71.8953 145.651 71.5512C146.275 70.0067 147.032 68.5081 147.937 67.0768C148.156 66.7282 148.384 66.3878 148.615 66.0547C148.69 65.9371 148.77 65.8201 148.853 65.7062C149.137 65.3014 149.424 64.9076 149.719 64.5287C149.863 64.343 150.007 64.158 150.155 63.9796C150.291 63.8057 150.431 63.6392 150.575 63.4727C150.602 63.4386 150.628 63.4046 150.654 63.3742C150.801 63.204 150.949 63.0338 151.097 62.871C151.252 62.6971 151.407 62.5269 151.562 62.3596C151.573 62.3485 151.585 62.3367 151.6 62.3219C151.732 62.1783 151.869 62.0377 152.005 61.8978C152.058 61.8445 152.107 61.792 152.16 61.7461C152.289 61.6136 152.418 61.4848 152.55 61.3598C152.561 61.3487 152.573 61.3368 152.584 61.3257C152.743 61.174 152.902 61.023 153.065 60.875C153.076 60.8639 153.088 60.8521 153.099 60.8447C153.247 60.7085 153.395 60.576 153.542 60.451C153.864 60.1668 154.193 59.8944 154.522 59.6369C154.708 59.4896 154.893 59.349 155.083 59.2091C155.272 59.0693 155.461 58.9331 155.65 58.8006C155.84 58.6645 156.033 58.5357 156.225 58.4106C158.947 56.6167 161.869 55.4881 164.863 54.9849C169.387 59.3002 172.196 65.6825 172.196 73.7906C172.196 79.3307 170.591 84.6659 168.035 89.2713C165.679 93.5155 169.062 98.7249 173.886 98.1854C179.156 97.5963 184.802 95.5041 189.662 92.0362Z" fill="#390176"/>
</g>
<g opacity="0.3">
<path opacity="0.3" d="M143.682 79.0635C143.483 80.5059 143.378 81.9534 143.358 83.3899C143.378 81.9534 143.483 80.5066 143.682 79.0635Z" fill="#792937"/>
<path opacity="0.3" d="M143.548 83.3922L143.17 83.387C143.19 81.9224 143.298 80.4593 143.495 79.0383L143.87 79.0894C143.677 80.4874 143.569 81.9253 143.549 83.364C143.549 83.3737 143.548 83.3825 143.548 83.3922Z" fill="#390176"/>
</g>
<g opacity="0.3">
<path opacity="0.3" d="M143.358 83.3899C143.339 84.8249 143.405 86.2488 143.549 87.6453C143.406 86.2502 143.339 84.8256 143.358 83.3899Z" fill="#792937"/>
<path opacity="0.3" d="M143.361 87.6645C143.215 86.2443 143.15 84.8057 143.17 83.387L143.548 83.3921C143.548 83.3929 143.548 83.3936 143.548 83.3944C143.529 84.7916 143.592 86.2088 143.736 87.6075C143.736 87.6135 143.737 87.6194 143.737 87.6246L143.361 87.6645Z" fill="#390176"/>
</g>
<g opacity="0.3">
<path opacity="0.3" d="M143.633 88.3833C143.773 89.4964 143.959 90.5865 144.19 91.6499C143.954 90.5902 143.769 89.4964 143.633 88.3833Z" fill="#792937"/>
<path opacity="0.3" d="M144.005 91.6904C143.771 90.6358 143.583 89.5309 143.445 88.406L143.821 88.3594C143.96 89.4635 144.147 90.5574 144.375 91.6097L144.005 91.6904Z" fill="#390176"/>
</g>
<g opacity="0.3">
<path opacity="0.3" d="M144.439 75.2292C144.17 76.2661 143.95 77.3184 143.784 78.3708C143.95 77.3147 144.167 76.2661 144.439 75.2292Z" fill="#792937"/>
<path opacity="0.3" d="M143.971 78.4005L143.598 78.3413C143.769 77.257 143.991 76.1943 144.256 75.1819V75.1812L144.623 75.2766C144.356 76.3068 144.137 77.357 143.972 78.3982C143.971 78.399 143.971 78.3997 143.971 78.4005Z" fill="#390176"/>
</g>
<g opacity="0.3">
<path opacity="0.3" d="M144.28 92.063C144.439 92.729 144.609 93.3877 144.798 94.0279C144.605 93.3877 144.435 92.729 144.28 92.063Z" fill="#792937"/>
<path opacity="0.3" d="M144.617 94.0815C144.436 93.4814 144.266 92.8353 144.096 92.1056L144.464 92.019C144.639 92.7517 144.808 93.3911 144.98 93.9735L144.617 94.0815Z" fill="#390176"/>
</g>
<g opacity="0.3">
<path opacity="0.3" d="M145.233 95.3862C145.521 96.2151 145.835 97.0136 146.176 97.7788C145.831 97.0136 145.518 96.2151 145.233 95.3862Z" fill="#792937"/>
<path opacity="0.3" d="M146.004 97.856C145.661 97.0937 145.341 96.2833 145.055 95.4478L145.413 95.3242C145.7 96.1501 146.015 96.9494 146.35 97.7013L146.004 97.856Z" fill="#390176"/>
</g>
<g opacity="0.3">
<path opacity="0.3" d="M147.997 101.14C148.217 101.473 148.44 101.798 148.67 102.108C148.44 101.798 148.213 101.476 147.997 101.14Z" fill="#792937"/>
<path opacity="0.3" d="M148.519 102.221C148.518 102.221 148.518 102.22 148.518 102.219C148.258 101.87 148.035 101.55 147.838 101.242L148.156 101.036C148.399 101.406 148.617 101.719 148.822 101.994C148.822 101.994 148.822 101.995 148.823 101.996L148.519 102.221Z" fill="#390176"/>
</g>
<g opacity="0.55">
<path opacity="0.55" d="M189.026 93.0846C187.864 94.917 186.513 96.5932 185.021 98.1037C185.418 97.5627 185.797 97.0062 186.161 96.4341C194.697 82.9509 190.461 69.2893 179.112 62.1047C169.475 56.0066 157.809 56.5439 149.284 65.1064C157.904 53.4097 171.205 51.937 181.978 58.7545C193.322 65.9398 197.562 79.6013 189.026 93.0846Z" fill="white"/>
</g>
<path d="M162.004 109.194C158.08 109.194 154.488 108.331 151.711 106.572C147.296 103.778 143.825 97.2653 142.651 89.5753C141.379 81.2407 142.956 72.818 146.976 66.4661C151.208 59.7796 156.979 55.488 163.664 54.0544C169.931 52.7105 176.651 54.0396 182.586 57.7962C188.52 61.5528 192.596 67.0574 194.063 73.2961C195.629 79.9515 194.218 87.0036 189.986 93.6901C183.546 103.864 171.751 109.194 162.004 109.194ZM168.511 55.8158C167.038 55.8158 165.575 55.9683 164.14 56.2754C158.066 57.5779 152.794 61.5217 148.895 67.6812C140.458 81.0091 145.369 99.8711 152.925 104.653C161.558 110.117 179.835 105.48 188.066 92.4756C195.775 80.2956 193.085 67.1306 181.37 59.7152C177.313 57.1479 172.869 55.8158 168.511 55.8158ZM189.026 93.0839H189.029H189.026Z" fill="#4C0505"/>
<path d="M151.821 113.134C149.254 113.134 146.447 111.201 145.724 108.773C145.379 107.614 145.072 104.707 149.66 102.751C150.236 102.505 150.903 102.773 151.15 103.35C151.395 103.927 151.128 104.594 150.55 104.84C149.082 105.466 147.43 106.543 147.901 108.125C148.369 109.698 150.649 111.112 152.257 110.825C153.855 110.542 154.073 108.606 153.975 107.033C153.937 106.407 154.413 105.868 155.038 105.829C155.663 105.789 156.203 106.265 156.242 106.892C156.549 111.831 153.835 112.852 152.654 113.061C152.382 113.111 152.103 113.134 151.821 113.134Z" fill="#4C0505"/>
<path d="M128.952 112.547C128.518 112.547 128.091 112.496 127.682 112.389C126.512 112.08 123.869 110.831 124.585 105.895C124.676 105.275 125.252 104.845 125.872 104.935C126.493 105.025 126.923 105.601 126.833 106.222C126.603 107.802 126.666 109.773 128.26 110.194C129.846 110.61 132.241 109.4 132.833 107.877C133.421 106.365 131.882 105.172 130.487 104.438C129.932 104.145 129.72 103.458 130.012 102.903C130.305 102.348 130.991 102.137 131.546 102.428C135.925 104.735 135.385 107.584 134.949 108.702C134.086 110.92 131.407 112.547 128.952 112.547Z" fill="#4C0505"/>
<path d="M136.71 153.453C136.689 153.453 136.667 153.452 136.644 153.45C136.29 153.419 136.004 153.145 135.959 152.792L130.569 110.93C130.516 110.515 130.809 110.136 131.223 110.082C131.639 110.028 132.018 110.322 132.071 110.736L137.017 149.154L148.811 111.186C148.935 110.787 149.359 110.564 149.758 110.687C150.158 110.811 150.381 111.236 150.256 111.635L137.433 152.919C137.333 153.239 137.039 153.453 136.71 153.453Z" fill="#4C0505"/>
<path d="M136.71 153.453C136.674 153.453 136.638 153.45 136.601 153.444C136.187 153.384 135.9 153 135.961 152.587L142.605 106.83C142.665 106.416 143.048 106.128 143.463 106.19C143.876 106.25 144.164 106.634 144.103 107.048L137.459 152.804C137.405 153.182 137.08 153.453 136.71 153.453Z" fill="#4C0505"/>
<path d="M197.12 150.822C196.756 150.054 196.355 149.274 195.92 148.487C196.465 149.232 196.862 150.012 197.12 150.822Z" fill="#792937"/>
<path d="M196.948 150.903C196.591 150.149 196.189 149.367 195.753 148.578L196.072 148.375C196.621 149.127 197.034 149.931 197.299 150.765L196.948 150.903Z" fill="#390176"/>
<g opacity="0.3">
<path opacity="0.3" d="M179.424 177.509C176.179 176.934 174.127 173.773 172.874 170.671C172.486 169.709 173.515 168.768 174.416 169.284C177.616 171.117 182.543 171.58 186.427 170.586C188.367 170.088 189.82 172.371 188.512 173.887C185.867 176.949 182.411 178.039 179.424 177.509Z" fill="#390176"/>
</g>
<g opacity="0.3">
<path opacity="0.3" d="M225.145 153.357C226.463 164.308 213.297 160.198 209.358 151.468C204.031 153.325 196.707 149.792 196.707 149.792L195.164 145.882C195.164 145.882 204.212 146.077 208.25 143.428C208.25 143.428 211.278 154.973 222.571 152.008L225.145 153.357Z" fill="#390176"/>
</g>
<g opacity="0.3">
<path opacity="0.3" d="M192.138 229.436L183.473 230.605C162.544 213.48 132.723 210.191 113.126 236.71C112.271 237.865 111.438 239.076 110.624 240.344C110.601 240.382 110.574 240.42 110.545 240.457L102.047 241.605C120.016 192.54 163.964 192.544 192.138 229.436Z" fill="#390176"/>
</g>
<g opacity="0.3">
<path opacity="0.3" d="M125.179 176.486C133.55 193.054 163.442 195.994 168.162 174.342L166.689 162.455C160.553 183.191 143.668 189.087 125.179 176.486Z" fill="#390176"/>
</g>
<path d="M141.292 100.238C135.004 109.36 153.678 109.171 147.214 100.238Z" fill="#FF1033"/>
<path d="M144.271 107.204C143.004 107.204 141.739 106.828 140.874 106.074C139.979 105.294 138.824 103.484 141.136 100.131L141.448 100.346C139.858 102.652 139.742 104.585 141.123 105.789C142.724 107.184 145.946 107.153 147.509 105.727C148.846 104.506 148.687 102.596 147.061 100.349L147.368 100.127C149.734 103.397 148.632 105.214 147.765 106.006C146.891 106.803 145.58 107.204 144.271 107.204Z" fill="#390176"/>
<path d="M168.448 70.3716C168.448 86.3296 155.128 100.591 144.133 100.591C134.183 100.591 119.818 86.3296 119.818 70.3716C119.818 54.4137 130.705 45.1362 144.133 45.1362C157.562 45.1362 168.448 54.4137 168.448 70.3716Z" fill="#FF1033"/>
<path d="M144.133 100.78C139.174 100.78 133.032 97.258 128.102 91.5898C122.717 85.3977 119.629 77.664 119.629 70.3714C119.629 62.7177 122.111 56.2384 126.808 51.6345C131.207 47.3221 137.36 44.9465 144.133 44.9465C150.908 44.9465 157.061 47.3214 161.459 51.6345C166.155 56.2392 168.638 62.7184 168.638 70.3714C168.638 77.7861 165.693 85.5191 160.558 91.5876C155.689 97.3438 149.548 100.78 144.133 100.78ZM144.133 45.3254C129.929 45.3254 120.007 55.6249 120.007 70.3714C120.007 77.5737 123.062 85.2171 128.387 91.3412C133.247 96.9301 139.28 100.402 144.133 100.402C149.437 100.402 155.47 97.0152 160.269 91.3434C165.347 85.3422 168.258 77.6981 168.258 70.3714C168.259 55.6249 158.338 45.3254 144.133 45.3254Z" fill="#390176"/>
<g opacity="0.3">
<path opacity="0.3" d="M168.45 70.3731C168.45 86.3282 155.129 100.591 144.133 100.591C134.185 100.591 119.819 86.3282 119.819 70.3731C119.819 68.3742 119.99 66.4818 120.311 64.699C124.074 76.9108 135.173 86.4606 143.315 86.4606C153.093 86.4606 164.709 75.1769 167.159 61.4546C167.995 64.1344 168.45 67.1139 168.45 70.3731Z" fill="#390176"/>
</g>
<g opacity="0.55">
<path opacity="0.55" d="M167.302 61.931C163.354 53.3803 155.049 48.6328 145.439 48.6328C132.008 48.6328 121.122 57.9065 121.122 73.866C121.122 76.7693 121.598 79.62 122.439 82.3338C120.804 78.6128 119.819 74.5513 119.819 70.3722C119.819 54.4134 130.706 45.1353 144.133 45.1353C154.981 45.136 164.172 51.1927 167.302 61.931Z" fill="white"/>
</g>
<path d="M144.133 101.726C138.908 101.726 132.492 98.0801 127.388 92.2107C121.856 85.8491 118.683 77.889 118.683 70.3714C118.683 62.4579 121.264 55.7448 126.145 50.9588C130.721 46.4711 137.11 44 144.133 44C151.156 44 157.545 46.4711 162.122 50.9581C167.003 55.7448 169.584 62.4579 169.584 70.3707C169.584 87.2574 155.589 101.726 144.133 101.726ZM144.133 46.2713C130.269 46.2713 120.954 55.9557 120.954 70.3707C120.954 86.1444 135.191 99.4544 144.133 99.4544C154.35 99.4544 167.313 85.761 167.313 70.3707C167.313 55.9565 157.998 46.2713 144.133 46.2713Z" fill="#4C0505"/>
<path d="M144.271 108.148C142.782 108.148 141.294 107.696 140.252 106.787C139.341 105.992 137.526 103.699 140.357 99.5936C140.713 99.0771 141.42 98.9468 141.936 99.3035C142.453 99.6595 142.583 100.367 142.227 100.883C141.321 102.196 140.502 103.991 141.745 105.075C142.982 106.154 145.664 106.129 146.871 105.027C148.069 103.933 147.218 102.181 146.294 100.904C145.926 100.395 146.04 99.6854 146.549 99.3176C147.057 98.949 147.767 99.063 148.135 99.5722C151.036 103.581 149.288 105.895 148.403 106.704C147.35 107.665 145.809 108.148 144.271 108.148Z" fill="#4C0505"/>
<g opacity="0.25">
<path opacity="0.25" d="M156.655 59.027C156.655 61.931 151.106 62.17 144.799 62.17C138.491 62.17 133.814 61.931 133.814 59.027C133.814 56.1229 138.927 53.7681 145.234 53.7681C151.541 53.7681 156.655 56.1222 156.655 59.027Z" fill="white"/>
</g>
<g opacity="0.25">
<path opacity="0.25" d="M182.74 84.3432C180.093 85.5384 178.229 81.9898 176.356 77.8439C174.484 73.6981 173.313 70.5247 175.96 69.3295C178.607 68.1343 182.271 70.5262 184.143 74.672C186.015 78.8186 185.387 83.148 182.74 84.3432Z" fill="white"/>
</g>
<g opacity="0.25">
<path opacity="0.25" d="M107.704 71.3893C108.47 68.4155 107.439 65.5795 105.402 65.0547C103.364 64.5299 101.091 66.5152 100.325 69.4889C99.5596 72.4626 100.591 75.2987 102.628 75.8235C104.666 76.3482 106.938 74.363 107.704 71.3893Z" fill="white"/>
</g>
<g opacity="0.25">
<path opacity="0.25" d="M102.465 84.7492C103.798 84.7492 104.879 83.3046 104.879 81.5226C104.879 79.7405 103.798 78.2959 102.465 78.2959C101.133 78.2959 100.052 79.7405 100.052 81.5226C100.052 83.3046 101.133 84.7492 102.465 84.7492Z" fill="white"/>
</g>
<g opacity="0.3">
<path opacity="0.3" d="M178.338 140.024C181.617 142.471 186.258 147.536 186.476 156.697C186.506 157.924 185.889 159.078 184.865 159.755L178.983 163.65C177.802 164.432 176.194 163.852 175.795 162.493C173.962 156.231 172.177 150.228 174.455 141.594C174.744 139.776 176.863 138.923 178.338 140.024Z" fill="#390176"/>
</g>
<g opacity="0.3">
<path opacity="0.3" d="M228.478 198.205C222.675 208.8 203.862 209.671 189.557 202.853C189.663 206.809 190.424 210.795 191.727 214.705C171.478 204.03 171.114 191.877 172.6 185.732C173.095 183.688 175.498 182.788 177.191 184.033C207.61 206.406 221.49 199.877 226.177 177.284L226.676 177.996C226.237 181.554 226.858 184.878 228.425 187.917C230.091 191.153 230.223 195.014 228.478 198.205Z" fill="#390176"/>
</g>
</svg>
