<svg width="290" height="290" viewBox="0 0 290 290" fill="none" xmlns="http://www.w3.org/2000/svg">
<g clip-path="url(#clip0)">
<path d="M290 0H0V290H290V0Z" fill="white"/>
<g opacity="0.12">
<path opacity="0.12" d="M80.169 296C124.997 296 161.338 293.205 161.338 289.756C161.338 286.308 124.997 283.512 80.169 283.512C35.341 283.512 -1 286.308 -1 289.756C-1 293.205 35.341 296 80.169 296Z" fill="#4C0505"/>
</g>
<path d="M191.998 266H40.0017C40.0017 266 39.8346 250.385 42.8272 227.195C43.36 223.036 43.999 218.625 44.7643 214.016C48.1182 193.694 53.8204 169.525 63.5306 145.502C64.9909 141.888 66.5451 138.279 68.1889 134.686C69.4985 131.833 70.8648 128.994 72.3012 126.171C73.3453 124.104 74.4282 122.046 75.5439 120H156.458C157.575 122.046 158.658 124.104 159.701 126.171C161.155 129.025 162.538 131.903 163.86 134.788C165.742 138.903 167.5 143.037 169.144 147.171C178.444 170.642 183.963 194.164 187.234 214.012C188.001 218.637 188.638 223.061 189.176 227.237C192.164 250.406 191.998 266 191.998 266Z" fill="white"/>
<g opacity="0.35">
<path opacity="0.35" d="M191.614 265.506H40.0671C40.0671 265.506 39.9005 249.981 42.8843 226.923C43.4155 222.787 44.0526 218.403 44.8157 213.819C46.2553 205.119 48.1315 195.705 50.5727 185.903C58.4879 211.261 83.9901 230.568 115.228 230.568H116.585C147.74 230.568 173.169 211.362 181.162 186.101C183.582 195.83 185.437 205.174 186.864 213.813C187.629 218.412 188.265 222.812 188.802 226.964C191.779 250.001 191.614 265.506 191.614 265.506Z" fill="#371A45"/>
</g>
<path d="M192.98 267H38.02L38.001 265.228C37.9998 265.029 37.8401 245.129 42.1344 217.434C46.0981 191.866 54.7805 154.195 73.6229 119.931C74.1013 119.064 75.1933 118.746 76.0655 119.221C76.9376 119.694 77.2571 120.785 76.7801 121.652C44.1675 180.951 41.7769 251.415 41.6103 263.417H189.392C189.325 257.993 188.822 240.607 185.298 217.908C181.376 192.642 172.8 155.435 154.221 121.652C153.744 120.785 154.063 119.694 154.934 119.221C155.806 118.745 156.9 119.064 157.376 119.931C176.22 154.195 184.902 191.866 188.866 217.434C193.159 245.129 193 265.029 192.999 265.228L192.98 267Z" fill="#371A45"/>
<path d="M161.68 261H70.3203C54.1537 261 41 247.825 41 231.631V158.369C41 142.175 54.1537 129 70.3203 129H161.68C177.847 129 191 142.175 191 158.369V231.631C191 247.825 177.847 261 161.68 261ZM70.3203 132.621C56.1454 132.621 44.6133 144.172 44.6133 158.369V231.631C44.6133 245.828 56.1454 257.379 70.3203 257.379H161.68C175.855 257.379 187.387 245.828 187.387 231.631V158.369C187.387 144.172 175.855 132.621 161.68 132.621H70.3203Z" fill="#4C0505"/>
<path d="M232 224.859C232 224.859 219.508 284.842 215.438 286.177C209.607 288.084 195.595 286.079 195.595 286.079C195.595 286.079 166.46 282.108 140.369 280.306C132.713 279.777 125.318 279.433 119.003 279.433C111.76 279.433 103.096 279.88 94.2484 280.55C69.0887 282.443 42.4139 286.079 42.4139 286.079C42.4139 286.079 28.3971 288.084 22.5674 286.177C18.4919 284.842 6 224.859 6 224.859C13.4313 214.043 30.6058 215.189 38.7884 234.276C38.9997 233.937 39.2202 233.602 39.445 233.271C42.5984 228.617 47.0833 224.488 53.4656 222.17C54.4463 221.813 55.4271 221.509 56.3989 221.255C69.9253 217.697 82.251 223.74 90.9422 230.333C91.7387 230.931 92.4891 231.537 93.2127 232.135C93.29 232.198 93.3613 232.257 93.4341 232.32C94.0092 232.8 94.5635 233.276 95.0939 233.751C97.7211 236.065 100.631 237.979 103.744 239.46C104.189 239.663 104.635 239.867 105.099 240.058C109.461 241.914 114.185 242.897 119.003 242.897C127.814 242.897 136.29 239.605 142.907 233.751C150.247 227.258 161.601 219.765 174.575 220.218C177.814 220.332 181.143 220.933 184.542 222.17C189.757 224.066 193.702 227.168 196.693 230.777C197.629 231.899 198.466 233.071 199.22 234.276C207.403 215.189 224.569 214.043 232 224.859Z" fill="white"/>
<g opacity="0.35">
<path opacity="0.35" d="M232.317 224.863C232.317 224.863 219.815 284.511 215.741 285.834C209.905 287.74 195.877 285.741 195.877 285.741C195.877 285.741 166.722 281.792 140.615 280H140.61C139.651 279.933 138.696 279.869 137.75 279.811C137.157 279.776 136.567 279.736 135.976 279.703C134.801 279.631 133.635 279.569 132.483 279.509C131.907 279.483 131.335 279.456 130.768 279.429C130.313 279.407 129.862 279.388 129.413 279.37C128.963 279.347 128.512 279.33 128.072 279.316C127.626 279.298 127.184 279.28 126.748 279.267C126.307 279.254 125.874 279.24 125.443 279.225C124.577 279.203 123.726 279.181 122.889 279.167C121.634 279.145 120.408 279.132 119.225 279.132C118.703 279.132 118.176 279.136 117.639 279.141C116.833 279.145 116.015 279.159 115.177 279.172C115.119 279.176 115.065 279.176 115.006 279.176C114.335 279.19 113.66 279.208 112.976 279.225C112.291 279.245 111.598 279.272 110.896 279.294C108.243 279.388 105.48 279.523 102.662 279.689C102.121 279.721 101.581 279.753 101.036 279.789C99.9509 279.856 98.8578 279.929 97.7587 280.005C96.6597 280.078 95.5577 280.158 94.4498 280.244C69.2733 282.125 42.5673 285.741 42.5673 285.741C42.5673 285.741 28.5433 287.74 22.7085 285.834C18.6341 284.511 6.13184 224.863 6.13184 224.863C7.36084 223.095 8.84207 221.645 10.5123 220.546C14.5192 238.032 20.2099 260.866 22.7085 261.681C28.5433 263.577 42.5673 261.579 42.5673 261.579C42.5673 261.579 45.0986 260.893 49.3351 259.834C54.7956 258.469 56.6516 251.643 52.6288 247.708C47.9034 243.084 43.4801 238.237 39.6005 233.228C42.7565 228.6 47.2451 224.494 53.6341 222.189C54.6157 221.834 55.5957 221.532 56.5683 221.28C70.1061 217.741 82.4423 223.751 91.1408 230.306C91.9379 230.901 92.689 231.503 93.4147 232.098C93.4905 232.161 93.5619 232.22 93.6348 232.283C94.2103 232.76 94.7651 233.233 95.296 233.706C97.9253 236.007 100.839 237.91 103.953 239.382C104.399 239.585 104.845 239.788 105.309 239.977C109.676 241.823 114.403 242.8 119.225 242.8C128.044 242.8 136.527 239.527 143.149 233.706C150.496 227.25 161.859 219.799 174.844 220.248C178.086 220.361 181.417 220.961 184.82 222.189C190.038 224.075 193.987 227.159 196.98 230.748C192.852 236.298 188.017 241.683 182.808 246.82C182.775 246.851 182.744 246.884 182.711 246.915C178.675 250.883 180.529 257.73 186.027 259.071C192.091 260.551 195.877 261.577 195.877 261.577C195.877 261.577 209.905 263.576 215.74 261.68C218.243 260.866 223.93 238.031 227.94 220.544C229.608 221.645 231.093 223.095 232.317 224.863Z" fill="#371A45"/>
</g>
<path d="M30.0126 287.997C26.9773 287.997 24.0164 287.771 21.9378 287.095C20.4602 286.615 18.4344 285.958 10.9302 254.918C7.33121 240.032 4.19019 225.116 4.15882 224.967L4 224.211L4.44016 223.578C8.12468 218.261 14.1129 215.458 20.4501 216.087C27.9475 216.828 34.5941 221.981 39.0214 230.375C42.6699 225.629 47.293 222.227 52.7986 220.24C63.9824 216.204 75.7402 218.019 87.7434 225.641C88.582 226.173 88.8289 227.282 88.295 228.12C87.7612 228.956 86.6489 229.202 85.8088 228.67C74.7974 221.68 64.1028 219.981 54.0224 223.618C48.3285 225.672 43.6952 229.465 40.2504 234.892L38.4261 237.765L37.0744 234.644C33.2527 225.811 27.0628 220.35 20.0944 219.662C15.3205 219.189 10.7997 221.182 7.84676 225.013C13.5007 251.808 20.7179 280.645 23.2995 283.76C27.8957 285.092 38.3799 284.045 42.0994 283.517C42.6002 283.449 91.339 276.913 119 276.913C146.662 276.913 195.399 283.449 195.889 283.516C199.619 284.045 210.104 285.095 214.702 283.762C217.282 280.647 224.499 251.811 230.153 225.015C227.201 221.183 222.675 219.194 217.906 219.664C210.938 220.352 204.747 225.813 200.924 234.645L199.573 237.767L197.75 234.894C194.304 229.468 189.671 225.675 183.977 223.621C173.809 219.95 163.022 221.71 151.917 228.848C151.08 229.385 149.967 229.144 149.429 228.311C148.889 227.478 149.13 226.366 149.967 225.829C161.896 218.162 174.079 216.229 185.202 220.243C190.709 222.23 195.33 225.633 198.979 230.377C203.408 221.984 210.055 216.83 217.551 216.09C223.887 215.461 229.875 218.262 233.56 223.58L234 224.214L233.842 224.969C233.81 225.119 230.669 240.035 227.071 254.921C219.566 285.959 217.54 286.618 216.062 287.098C209.9 289.101 195.982 287.154 195.391 287.071C194.917 287.008 146.416 280.503 118.999 280.503C91.5828 280.503 43.0808 287.008 42.5935 287.071C42.2142 287.125 35.9727 287.997 30.0126 287.997Z" fill="#4C0505"/>
<path d="M212.065 286H215.629C219.813 286 223.605 283.491 225.309 279.586C230.643 267.373 240.369 240.542 231.259 224.167C230.993 223.69 230.711 223.231 230.41 222.79C230.41 222.79 221.664 214.657 215.382 226.162C209.512 236.909 197.194 282.862 212.065 286Z" fill="#AFAFB2"/>
<g opacity="0.7">
<path opacity="0.7" d="M212.218 233.933C212.378 233.678 212.538 233.435 212.694 233.211C220.549 221.767 231.486 229.857 231.486 229.857C231.86 230.296 232.217 230.752 232.546 231.227C233.644 232.796 234.521 234.458 235.207 236.2C234.763 231.921 233.657 227.878 231.637 224.331C231.367 223.856 231.08 223.4 230.773 222.961C230.773 222.961 221.88 214.871 215.491 226.315C214.523 228.047 213.385 230.693 212.218 233.933Z" fill="white"/>
</g>
<path d="M235.189 238C235.091 238 234.99 237.99 234.888 237.972L212.514 233.914C211.526 233.733 210.86 232.72 211.025 231.646C211.19 230.573 212.119 229.846 213.112 230.028L235.486 234.086C236.474 234.265 237.14 235.28 236.975 236.354C236.827 237.317 236.059 238 235.189 238Z" fill="#4C0505"/>
<path d="M235.177 250C235.096 250 235.014 249.993 234.932 249.982L208.582 246.041C207.585 245.892 206.882 244.871 207.016 243.76C207.151 242.65 208.058 241.868 209.067 242.019L235.417 245.957C236.416 246.108 237.116 247.129 236.984 248.24C236.86 249.259 236.077 250 235.177 250Z" fill="#4C0505"/>
<path d="M233.2 261C233.128 261 233.055 260.995 232.98 260.986L206.582 257.676C205.596 257.553 204.893 256.631 205.013 255.621C205.135 254.61 206.035 253.889 207.021 254.014L233.418 257.324C234.405 257.448 235.107 258.369 234.987 259.379C234.875 260.314 234.097 261 233.2 261Z" fill="#4C0505"/>
<path d="M153.671 279.34C153.635 279.34 153.598 279.338 153.561 279.335L137.691 277.903C137.025 277.843 136.534 277.254 136.594 276.588C136.655 275.922 137.242 275.431 137.909 275.491L153.778 276.923C154.444 276.982 154.936 277.571 154.876 278.237C154.819 278.867 154.291 279.34 153.671 279.34Z" fill="#4C0505"/>
<g opacity="0.35">
<path opacity="0.35" d="M212.117 285.837H215.741C219.996 285.837 223.854 283.342 225.585 279.457C226.989 276.308 228.693 272.191 230.287 267.524C228.113 271.135 223.693 273.424 218.839 273.424H214.52C208.374 272.359 206.061 266.332 205.97 258.429C203.891 271.766 204.461 284.257 212.117 285.837Z" fill="#371A45"/>
</g>
<path d="M215.557 288H211.764L211.585 287.962C208.626 287.343 206.393 285.399 204.944 282.186C198.765 268.478 208.864 233.993 213.74 225.128C215.994 221.035 218.833 218.678 222.187 218.123C227.325 217.272 231.56 221.114 231.738 221.278L231.888 221.416L232.003 221.583C232.338 222.072 232.658 222.586 232.953 223.112C242.355 239.89 233.261 266.252 227.003 280.474C224.992 285.045 220.499 288 215.557 288ZM212.143 284.359H215.557C219.085 284.359 222.291 282.252 223.725 278.99C228.541 268.047 238.778 240.871 229.831 224.911C229.628 224.547 229.412 224.194 229.187 223.856C228.547 223.327 225.753 221.209 222.743 221.718C220.534 222.093 218.559 223.836 216.872 226.903C211.774 236.169 202.962 269.04 208.206 280.672C209.136 282.736 210.425 283.943 212.143 284.359Z" fill="#4C0505"/>
<path d="M26.6993 286H23.0166C18.6936 286 14.7743 283.491 13.0142 279.585C7.50173 267.374 -2.54769 240.543 6.86583 224.168C7.14026 223.691 7.43192 223.232 7.74306 222.789C7.74306 222.789 16.7803 214.658 23.2728 226.162C29.3376 236.91 42.0666 282.86 26.6993 286Z" fill="#AFAFB2"/>
<g opacity="0.7">
<path opacity="0.7" d="M26.2319 233.933C26.072 233.677 25.9123 233.433 25.7569 233.21C17.9007 221.765 6.96402 229.855 6.96402 229.855C6.58925 230.296 6.23248 230.752 5.90381 231.226C4.80761 232.794 3.92958 234.458 3.24414 236.2C3.68762 231.921 4.79407 227.877 6.81321 224.33C7.08344 223.856 7.37032 223.399 7.67653 222.959C7.67653 222.959 16.5705 214.871 22.96 226.314C23.928 228.045 25.066 230.693 26.2319 233.933Z" fill="white"/>
</g>
<path d="M2.81058 238C1.94048 238 1.17246 237.317 1.02517 236.354C0.859769 235.28 1.52705 234.265 2.51376 234.087L24.8881 230.027C25.8815 229.849 26.8105 230.573 26.9748 231.647C27.1402 232.72 26.4729 233.734 25.4862 233.914L3.11189 237.972C3.00996 237.99 2.90907 238 2.81058 238Z" fill="#4C0505"/>
<path d="M3.76223 250C2.89233 250 2.13503 249.259 2.01602 248.24C1.8858 247.129 2.56386 246.108 3.52961 245.957L29.0008 242.019C29.9676 241.868 30.8539 242.649 30.984 243.76C31.1141 244.871 30.436 245.892 29.4704 246.041L4.00025 249.982C3.91984 249.993 3.84046 250 3.76223 250Z" fill="#4C0505"/>
<path d="M5.79846 261C4.90141 261 4.12483 260.314 4.01344 259.379C3.89299 258.368 4.59537 257.447 5.58238 257.324L31.9798 254.014C32.967 253.89 33.8651 254.609 33.9866 255.621C34.107 256.632 33.4048 257.553 32.4176 257.676L6.02019 260.986C5.94583 260.995 5.87162 261 5.79846 261Z" fill="#4C0505"/>
<path d="M6.66676 279.34C6.04696 279.34 5.51866 278.867 5.46196 278.238C5.40216 277.572 5.89336 276.983 6.55936 276.923L22.4291 275.491C23.0928 275.43 23.6839 275.922 23.7437 276.589C23.8035 277.255 23.3123 277.844 22.6463 277.904L6.77656 279.335C6.73946 279.338 6.70316 279.34 6.66676 279.34Z" fill="#4C0505"/>
<g opacity="0.35">
<path opacity="0.35" d="M26.3326 285.837H22.7085C18.454 285.837 14.5968 283.342 12.8646 279.456C11.4611 276.308 9.75696 272.19 8.16211 267.524C10.3379 271.134 14.7566 273.424 19.611 273.424H23.9296C30.0761 272.359 32.3892 266.33 32.4803 258.429C34.5591 271.764 33.9885 284.255 26.3326 285.837Z" fill="#371A45"/>
</g>
<path d="M26.2365 288H22.4424C17.499 288 13.0063 285.046 10.9972 280.472C4.73859 266.252 -4.35655 239.891 5.04925 223.111C5.34066 222.588 5.6602 222.074 5.99664 221.584L6.11205 221.417L6.26124 221.279C6.43946 221.115 10.6776 217.27 15.8127 218.124C19.1651 218.678 22.0062 221.035 24.2588 225.128C29.1371 233.993 39.2358 268.478 33.0557 282.186C31.6071 285.4 29.3725 287.343 26.4147 287.961L26.2365 288ZM8.81083 223.857C8.58432 224.196 8.36906 224.55 8.16832 224.909C-0.778819 240.871 9.45659 268.045 14.2733 278.99C15.7073 282.253 18.914 284.361 22.4424 284.361H25.8564C27.5741 283.944 28.8624 282.736 29.7929 280.674C35.0369 269.042 26.2242 236.171 21.1261 226.905C19.4397 223.842 17.4642 222.096 15.2555 221.722C12.2529 221.211 9.46001 223.323 8.81083 223.857Z" fill="#4C0505"/>
<path d="M67.6868 284C67.4757 284 67.2617 283.951 67.061 283.845C66.4009 283.501 66.1452 282.684 66.4916 282.023C72.8883 269.803 72.982 256.063 66.7741 241.188C62.0973 229.983 55.4048 222.32 55.3379 222.244C54.8443 221.685 54.8978 220.831 55.4568 220.338C56.0157 219.844 56.8675 219.898 57.3611 220.457C57.645 220.779 64.3777 228.479 69.2329 240.073C75.7054 255.531 75.585 270.472 68.8835 283.278C68.6427 283.737 68.1729 284 67.6868 284Z" fill="#4C0505"/>
<path d="M172.315 284C171.829 284 171.357 283.737 171.116 283.276C164.415 270.47 164.295 255.531 170.767 240.072C175.622 228.478 182.353 220.78 182.639 220.456C183.132 219.897 183.986 219.845 184.543 220.337C185.102 220.831 185.156 221.684 184.662 222.243C184.595 222.32 177.903 229.982 173.226 241.187C167.017 256.062 167.113 269.801 173.508 282.023C173.855 282.683 173.599 283.498 172.939 283.845C172.74 283.951 172.526 284 172.315 284Z" fill="#4C0505"/>
<g opacity="0.35">
<path opacity="0.35" d="M121.026 213.659C121.58 214.506 122.118 215.339 122.634 216.156C122.112 215.339 121.574 214.502 121.026 213.659Z" fill="#371A45"/>
</g>
<path d="M90 214.499C81.7375 217.896 68.9483 217.186 60.2311 216.115C55.0019 215.472 51.3318 210.573 52.1022 205.284C52.8046 200.457 56.9891 196.946 61.792 197.175C69.9464 197.562 82.1773 197.745 89.9235 196" fill="white"/>
<g opacity="0.35">
<path opacity="0.35" d="M89.8424 214.126C81.6525 217.444 68.9817 216.745 60.3442 215.705C55.1629 215.078 51.5261 210.293 52.2911 205.134C52.4428 204.081 52.7745 203.092 53.2429 202.19C54.6067 204.795 57.1899 206.715 60.3442 207.096C68.9669 208.143 81.6153 208.836 89.8067 205.537L89.8424 214.126Z" fill="#371A45"/>
</g>
<path d="M73.6224 218C68.8128 218 64.0244 217.611 59.9255 217.127C56.8812 216.768 54.1794 215.258 52.3186 212.878C50.4534 210.492 49.6747 207.544 50.1243 204.573C50.9764 198.948 56.0024 194.899 61.8075 195.173C70.41 195.568 82.237 195.695 89.7257 194.072C90.7909 193.843 93.4412 193.854 95.0565 198.93C96.7522 204.254 96.6021 213.184 90.8909 215.441C86.048 217.355 79.817 218 73.6224 218ZM61.2696 198.744C57.5086 198.744 54.3113 201.418 53.7536 205.097C53.4506 207.103 53.9749 209.094 55.2341 210.705C56.4903 212.311 58.3132 213.329 60.3665 213.571C69.3144 214.629 81.6339 215.235 89.512 212.122C91.7668 211.231 92.2062 207.647 92.2911 206.149C92.5366 201.788 91.1091 198.239 90.3288 197.612C82.44 199.276 70.3872 199.152 61.6333 198.753C61.5136 198.747 61.3908 198.744 61.2696 198.744Z" fill="#371A45"/>
<path d="M181.772 216.117C177.682 216.62 172.688 217.045 167.69 216.996C167.346 216.996 167.007 216.99 166.663 216.979C166.303 216.973 165.938 216.964 165.578 216.947C165.332 216.941 165.093 216.931 164.857 216.921C164.571 216.905 164.288 216.888 164.006 216.874C163.646 216.853 163.286 216.827 162.932 216.8H162.906C162.552 216.774 162.192 216.742 161.836 216.704C161.6 216.684 161.366 216.656 161.136 216.63C160.94 216.614 160.74 216.588 160.548 216.566C160.24 216.53 159.931 216.487 159.634 216.445C159.347 216.402 159.065 216.361 158.789 216.312C158.732 216.306 158.675 216.301 158.622 216.286C158.294 216.239 157.969 216.179 157.651 216.115C157.328 216.058 157.01 215.994 156.697 215.925C156.671 215.92 156.644 215.916 156.618 215.91C156.441 215.867 156.264 215.83 156.092 215.788C155.898 215.745 155.704 215.698 155.512 215.645H155.506C154.916 215.495 154.337 215.326 153.774 215.146C153.471 215.05 153.168 214.944 152.871 214.84C152.573 214.733 152.281 214.616 152 214.5L152.036 205.618L152.078 196C154.059 196.45 156.339 196.768 158.766 196.99C165.819 197.643 174.141 197.463 180.209 197.176C180.355 197.17 180.5 197.166 180.652 197.166C185.263 197.166 189.218 200.608 189.896 205.286C190.672 210.576 187 215.477 181.772 216.117Z" fill="white"/>
<g opacity="0.35">
<path opacity="0.35" d="M181.961 215.701C177.908 216.191 172.962 216.606 168.009 216.559C167.667 216.559 167.331 216.553 166.991 216.542C166.634 216.537 166.272 216.528 165.915 216.511C165.673 216.505 165.435 216.495 165.202 216.486C164.918 216.47 164.638 216.453 164.358 216.44C164.001 216.419 163.646 216.394 163.294 216.367H163.268C162.917 216.342 162.56 216.31 162.209 216.273C161.976 216.254 161.744 216.227 161.516 216.202C161.32 216.186 161.124 216.16 160.933 216.139C160.628 216.104 160.322 216.062 160.028 216.02C159.744 215.979 159.464 215.939 159.19 215.891C159.132 215.885 159.077 215.881 159.025 215.866C158.7 215.82 158.378 215.762 158.063 215.699C157.743 215.643 157.428 215.58 157.119 215.515C157.092 215.509 157.067 215.504 157.041 215.498C156.864 215.457 156.689 215.421 156.518 215.38C156.328 215.338 156.136 215.292 155.944 215.24H155.939C155.355 215.094 154.781 214.929 154.222 214.753C153.923 214.66 153.622 214.556 153.328 214.454C153.032 214.35 152.743 214.237 152.464 214.123L152.501 205.454L152.506 204.828C152.769 204.937 153.048 205.045 153.328 205.143C153.622 205.247 153.921 205.35 154.222 205.442C154.781 205.619 155.355 205.784 155.939 205.928H155.944C156.136 205.981 156.328 206.027 156.518 206.068C156.689 206.11 156.864 206.147 157.041 206.189L157.119 206.204C157.43 206.272 157.745 206.333 158.063 206.39C158.378 206.452 158.7 206.508 159.025 206.555C159.077 206.571 159.132 206.575 159.19 206.581C159.464 206.627 159.744 206.669 160.028 206.711C160.322 206.752 160.628 206.793 160.933 206.83C161.124 206.851 161.32 206.876 161.516 206.892C161.744 206.917 161.977 206.943 162.209 206.964C162.56 206.999 162.917 207.03 163.268 207.057H163.294C163.646 207.083 164.001 207.109 164.358 207.129C164.638 207.145 164.918 207.16 165.202 207.175C165.435 207.185 165.673 207.196 165.915 207.201C166.272 207.216 166.634 207.227 166.991 207.233C167.331 207.243 167.667 207.248 168.009 207.248C172.962 207.294 177.908 206.882 181.961 206.391C184.969 206.028 187.462 204.261 188.867 201.831C189.441 202.823 189.838 203.934 190.014 205.128C190.78 210.293 187.14 215.076 181.961 215.701Z" fill="#371A45"/>
</g>
<path d="M168.891 218C162.83 218 156.737 217.357 151.998 215.442C146.412 213.185 146.263 204.255 147.924 198.929C149.504 193.857 152.096 193.842 153.137 194.073C160.463 195.694 172.034 195.565 180.449 195.173C186.127 194.901 191.044 198.948 191.879 204.573C192.318 207.543 191.556 210.491 189.732 212.877C187.912 215.259 185.268 216.768 182.29 217.127C178.28 217.611 173.596 218 168.891 218ZM152.547 197.611C151.784 198.238 150.387 201.787 150.629 206.148C150.712 207.648 151.143 211.231 153.347 212.121C161.053 215.235 173.104 214.627 181.858 213.571C183.867 213.328 185.65 212.311 186.878 210.704C188.109 209.095 188.624 207.102 188.327 205.096C187.765 201.301 184.455 198.58 180.618 198.752C172.051 199.151 160.264 199.275 152.547 197.611Z" fill="#371A45"/>
<path d="M156 189.866V219.127C156 224.556 151.595 229 146.213 229H92.7829C87.4076 229 83 224.556 83 219.127V189.866C83 184.437 87.4061 180 92.7829 180H146.211C149.38 180 152.208 181.54 154.003 183.91C155.254 185.568 156 187.633 156 189.866Z" fill="white"/>
<g opacity="0.35">
<path opacity="0.35" d="M155.63 190.105V219.041C155.63 224.407 151.236 228.801 145.865 228.801H92.5776C87.2119 228.801 82.8232 224.411 82.8232 219.047V208.217C88.531 219.317 107.93 223.682 123.887 222.066C127.452 221.704 130.001 218.318 129.152 214.837C128.898 213.797 128.761 212.697 128.761 211.557C128.761 205.244 132.943 200.128 138.102 200.128C143.091 200.128 147.173 204.916 147.437 210.942C153.832 202.584 154.178 191.397 153.64 184.217C154.885 185.854 155.63 187.896 155.63 190.105Z" fill="#371A45"/>
</g>
<path d="M145.502 231H92.4966C86.1566 231 81 225.82 81 219.453V190.547C81 184.18 86.1566 179 92.4966 179H145.502C151.842 179 157 184.18 157 190.547V219.453C157 225.82 151.842 231 145.502 231ZM92.4966 182.598C88.1329 182.598 84.5827 186.163 84.5827 190.547V219.453C84.5827 223.835 88.1329 227.402 92.4966 227.402H145.502C149.866 227.402 153.416 223.837 153.416 219.453V190.547C153.416 186.165 149.866 182.598 145.502 182.598H92.4966Z" fill="#371A45"/>
<path d="M144.51 210.51C147.83 207.192 147.83 201.81 144.51 198.49C141.191 195.17 135.808 195.17 132.489 198.49C129.17 201.81 129.17 207.192 132.489 210.51C135.808 213.83 141.191 213.83 144.51 210.51Z" fill="#22A7F0"/>
<path d="M147 204.627C147 205.095 146.964 205.553 146.889 206C146.243 201.888 142.733 198.748 138.499 198.748C134.267 198.748 130.757 201.888 130.11 206C130.035 205.553 130 205.095 130 204.627C130 199.864 133.806 196 138.499 196C143.193 196 147 199.864 147 204.627Z" fill="white"/>
<g opacity="0.35">
<path opacity="0.35" d="M146.516 204.571C146.516 209.218 142.747 212.984 138.101 212.984C133.455 212.984 129.688 209.217 129.688 204.571C129.688 203.495 129.891 202.471 130.266 201.526C131.478 204.666 134.531 206.888 138.101 206.888C141.674 206.888 144.725 204.664 145.937 201.526C146.314 202.472 146.516 203.495 146.516 204.571Z" fill="#371A45"/>
</g>
<path d="M138 214C132.486 214 128 209.74 128 204.5C128 199.263 132.486 195 138 195C143.514 195 148 199.262 148 204.5C148 209.738 143.514 214 138 214ZM138 197.629C134.012 197.629 130.767 200.711 130.767 204.5C130.767 208.29 134.012 211.373 138 211.373C141.988 211.373 145.233 208.29 145.233 204.5C145.233 200.711 141.988 197.629 138 197.629Z" fill="#371A45"/>
<path d="M114.583 230C113.803 230 113.168 229.398 113.168 228.654V208.754L102.564 201.16C102.21 200.906 102 200.507 102 200.085V180.346C102 179.602 102.634 179 103.415 179C104.197 179 104.83 179.602 104.83 180.346V199.412L115.434 207.006C115.79 207.261 116 207.66 116 208.082V228.654C116 229.398 115.366 230 114.583 230Z" fill="#371A45"/>
<path d="M193.982 98.9955C193.129 99.0603 192.388 98.4152 192.324 97.5564L189.004 52.7195C188.94 51.86 189.581 51.1109 190.432 51.0462C199.369 50.3729 207.154 57.1376 207.823 66.1564L208.954 81.4461C209.623 90.4653 202.919 98.3224 193.982 98.9955Z" fill="white"/>
<path d="M193.27 100C192.817 100 192.383 99.8365 192.036 99.5321C191.652 99.1945 191.421 98.7251 191.382 98.2103L188.005 52.1224C187.927 51.0589 188.713 50.1284 189.755 50.0494C194.236 49.7055 198.587 51.1667 201.996 54.1586C205.405 57.1495 207.465 61.315 207.801 65.8861L208.952 81.6032C209.287 86.1744 207.856 90.6047 204.921 94.0782C201.987 97.5531 197.9 99.6533 193.416 99.9955C193.368 99.9985 193.319 100 193.27 100ZM191.034 50.659C190.626 50.659 190.214 50.675 189.803 50.7059C189.115 50.7587 188.597 51.3718 188.649 52.073L192.027 98.1618C192.05 98.501 192.203 98.8114 192.457 99.0325C192.711 99.2535 193.031 99.3625 193.368 99.3368C197.68 99.0082 201.611 96.9884 204.43 93.6482C207.253 90.3065 208.628 86.0472 208.308 81.6501L207.156 65.9342C206.834 61.5385 204.851 57.5335 201.574 54.6572C198.61 52.0559 194.907 50.659 191.034 50.659Z" fill="#371A45"/>
<g opacity="0.35">
<path opacity="0.35" d="M208.523 74.311L209.065 81.5509C209.744 90.6525 202.914 98.5881 193.807 99.2707C192.94 99.3361 192.183 98.6803 192.118 97.8132L191.215 85.7805C191.5 86.3099 192.077 86.6475 192.715 86.6059L193.789 86.5226C200.984 85.9872 206.762 80.9174 208.523 74.311Z" fill="#371A45"/>
</g>
<path d="M193.759 101C192.952 101 192.178 100.715 191.559 100.183C190.876 99.5948 190.461 98.7764 190.394 97.8792L187.009 52.6661C186.871 50.8113 188.27 49.1903 190.129 49.052C195.014 48.6878 199.754 50.2448 203.468 53.4362C207.182 56.6277 209.428 61.0715 209.794 65.9492L210.948 81.3664C211.313 86.2444 209.753 90.9723 206.554 94.6798C203.356 98.3858 198.904 100.629 194.017 100.993C193.93 100.999 193.845 101 193.759 101ZM190.623 52.6235L193.973 97.3846C197.812 97.0415 201.303 95.2531 203.823 92.3314C206.394 89.3532 207.647 85.5537 207.354 81.6352L206.2 66.2168C205.907 62.2968 204.102 58.7265 201.117 56.1624C198.188 53.6464 194.468 52.3941 190.623 52.6235Z" fill="#4C0505"/>
<path d="M40.7698 62.0045C41.6641 61.9398 42.4436 62.5853 42.5109 63.4447L45.9954 108.281C46.0626 109.139 45.391 109.889 44.4967 109.954C35.1128 110.627 26.9377 103.863 26.2359 94.8439L25.0481 79.5543C24.3475 70.5348 31.386 62.6778 40.7698 62.0045Z" fill="white"/>
<path d="M42.978 111C34.2583 111 26.8586 104.257 26.1986 95.4327L25.0473 80.0302C24.3559 70.7824 31.3252 62.6955 40.5834 62.0049C41.6212 61.9307 42.5397 62.7112 42.6172 63.7535L45.9945 108.92C46.0327 109.424 45.8708 109.914 45.5402 110.298C45.2097 110.682 44.7488 110.914 44.244 110.951C43.8202 110.984 43.3974 111 42.978 111ZM40.6318 62.6495C31.7288 63.3142 25.0271 71.089 25.6916 79.9827L26.8428 95.3853C27.5083 104.278 35.3017 110.969 44.1957 110.31C44.5285 110.285 44.8331 110.132 45.0512 109.878C45.2693 109.626 45.3751 109.302 45.3502 108.97L41.973 63.8029C41.9225 63.1166 41.322 62.6013 40.6318 62.6495Z" fill="#371A45"/>
<g opacity="0.35">
<path opacity="0.35" d="M44.9087 96.1819L45.8452 108.741C45.9105 109.608 45.2553 110.365 44.3876 110.431C39.6085 110.784 35.147 109.074 31.892 106.046C28.9521 103.313 26.9959 99.4998 26.6718 95.1765L26.1855 88.6731C29.1963 94.1861 35.2527 97.7315 41.9282 97.2348L43.5805 97.1114C44.1838 97.0638 44.6712 96.692 44.9087 96.1819Z" fill="#371A45"/>
</g>
<path d="M43.4912 112C33.9881 112 25.9248 104.659 25.205 95.0521L24.0514 79.6341C23.299 69.5655 30.8936 60.7624 40.9836 60.0103C42.8355 59.8652 44.4667 61.2671 44.6063 63.1219L47.9903 108.334C48.0579 109.233 47.7706 110.102 47.1815 110.785C46.5924 111.468 45.7722 111.881 44.8722 111.948C44.4081 111.982 43.9484 112 43.4912 112ZM41.0275 63.6154C33.0318 64.3315 27.0456 71.3507 27.646 79.3667L28.7995 94.7847C29.4 102.801 36.3549 108.861 44.3777 108.377L41.0275 63.6154Z" fill="#4C0505"/>
<path d="M117.501 158C160.303 158 195 123.302 195 80.5008C195 37.6981 160.303 3 117.501 3C74.6983 3 40 37.6981 40 80.5008C40 123.302 74.6983 158 117.501 158Z" fill="white"/>
<path d="M117.496 158C74.8881 158 40.1533 123.419 40.0005 80.777C39.849 38.0426 74.4905 3.15268 117.224 3C117.315 3 117.414 3 117.505 3C160.112 3 194.847 37.5812 195 80.2235C195.151 122.958 160.51 157.847 117.776 158C117.686 158 117.586 158 117.496 158ZM117.506 3.64456C117.413 3.64456 117.319 3.64456 117.226 3.64456C74.8481 3.79605 40.4946 38.3953 40.6462 80.7725C40.7967 123.057 75.2457 157.353 117.496 157.353C117.589 157.353 117.681 157.353 117.775 157.353C160.152 157.202 194.505 122.603 194.354 80.225C194.203 37.9405 159.754 3.64456 117.506 3.64456Z" fill="#371A45"/>
<g opacity="0.35">
<path opacity="0.35" d="M193.874 69.6614C194.379 73.1573 194.641 76.7308 194.654 80.3671C194.802 123.088 160.295 157.843 117.574 157.999C74.8531 158.145 40.0986 123.64 39.9422 80.9189C39.9367 79.6905 39.9613 78.4607 40.0153 77.2497C45.365 114.886 77.7784 143.763 116.866 143.624C158.358 143.473 192.096 110.688 193.874 69.6614Z" fill="#371A45"/>
</g>
<path d="M116.996 160C73.5623 160 38.1555 124.526 38.0005 80.7845C37.8444 36.9473 73.1586 1.15713 116.719 1C116.811 1 116.912 1 117.005 1C160.438 1 195.845 36.4736 195.999 80.217C196.155 124.052 160.842 159.843 117.281 159.999C117.189 160 117.088 160 116.996 160ZM117.005 4.61731C116.913 4.61731 116.823 4.61731 116.732 4.61731C75.1535 4.76652 41.4468 38.9289 41.5951 80.7696C41.7434 122.52 75.5424 156.382 116.996 156.382C117.088 156.382 117.179 156.382 117.27 156.382C158.848 156.233 192.554 122.07 192.406 80.2289C192.258 38.479 158.459 4.61731 117.005 4.61731Z" fill="#4C0505"/>
<path d="M193.988 82.3408C194.269 97.5016 189.641 111.667 181.497 123.47C175.389 132.319 149.905 148.083 118.089 148.968C88.5898 149.791 61.4514 134.461 55.0209 125.848C46.4433 114.359 41.2931 100.377 41.012 85.216C40.2672 45.0976 74.2014 27.8229 116.447 27.0281C158.693 26.2332 193.243 42.2214 193.988 82.3408Z" fill="#4C0505"/>
<path d="M115.746 151C86.1433 151.001 59.9911 135.858 53.4189 127.052C44.2741 114.8 39.2922 100.341 39.0126 85.2407C38.6476 65.5753 46.1956 50.266 61.4483 39.738C74.7707 30.5413 93.7765 25.4555 116.412 25.029C139.041 24.5982 158.227 28.9715 171.881 37.6604C187.513 47.6071 195.624 62.6225 195.987 82.2879C196.269 97.388 191.827 112.023 183.143 124.612C177.124 133.339 151.879 150.027 118.142 150.967C117.341 150.988 116.539 151 115.746 151ZM119.167 28.6232C118.231 28.6232 117.333 28.6323 116.477 28.6481C93.959 29.0722 41.6832 35.428 42.6051 85.1734C42.8714 99.507 47.6038 113.237 56.2917 124.878C62.3045 132.932 87.743 147.378 115.792 147.379C116.541 147.379 117.289 147.369 118.04 147.348C150.098 146.454 174.708 130.492 180.19 122.547C188.439 110.586 192.659 96.6887 192.393 82.3551C191.507 34.4995 142.907 28.6232 119.167 28.6232Z" fill="#4C0505"/>
<g opacity="0.7">
<path opacity="0.7" d="M179.122 78.972C180.332 71.5092 176.929 64.7491 171.521 63.8731C166.113 62.9972 160.75 68.337 159.541 75.8001C158.332 83.264 161.736 90.0232 167.143 90.8992C172.551 91.7751 177.915 86.4362 179.122 78.972Z" fill="white"/>
</g>
<g opacity="0.7">
<path opacity="0.7" d="M162.851 106.309C163.874 102.993 162.396 99.5933 159.551 98.7159C156.705 97.837 153.568 99.8134 152.545 103.13C151.522 106.446 153 109.847 155.847 110.725C158.692 111.602 161.828 109.626 162.851 106.309Z" fill="white"/>
</g>
<g opacity="0.35">
<path opacity="0.35" d="M178.766 45.27C188.33 54.0603 194.109 66.2668 194.413 82.3511C194.695 97.4891 190.042 111.631 181.862 123.414C175.723 132.247 150.113 147.985 118.143 148.873C106.855 149.188 95.9154 147.162 86.332 144.053C125.605 142.124 156.799 122.813 164.409 111.857C174.798 96.9031 180.7 78.9514 180.338 59.7465C180.246 54.6141 179.703 49.7924 178.766 45.27Z" fill="#111A28"/>
</g>
<path d="M45.8 53C45.3978 53 44.9946 52.8653 44.6613 52.5879C43.9246 51.9748 43.786 50.8958 44.3334 50.1193C57.5094 29.6981 83.5838 17.6377 115.885 17.0246C147.991 16.416 174.497 27.1188 188.618 46.3892C189.125 47.0481 189.137 47.998 188.595 48.6704C187.97 49.4469 186.851 49.5714 186.079 48.9456L185.897 48.7971L185.747 48.5986C172.333 30.2689 146.894 20.0948 115.952 20.6771C84.8369 21.2673 59.8192 32.7453 47.3171 52.1677L47.1864 52.3457C46.8294 52.7763 46.3158 53 45.8 53Z" fill="#4C0505"/>
<g opacity="0.7">
<path opacity="0.7" d="M58.3983 108.729C58.3983 108.729 45.2555 69.4509 66.2551 53.3086C87.254 37.1663 117.891 36.6575 117.212 38.635C117.212 38.635 83.4498 47.4794 70.6809 74.5394C60.8343 95.4056 58.3983 108.729 58.3983 108.729Z" fill="white"/>
</g>
<g opacity="0.3">
<path opacity="0.3" d="M129.813 266.009C129.75 266.049 129.686 266.089 129.624 266.125H108.766C108.702 266.089 108.64 266.049 108.571 266.009H129.813Z" fill="#390075"/>
</g>
<path d="M211 188.438C211 189.753 210.931 191.064 210.791 192.379C209.131 208.519 197.548 224.6 183.059 238.769C159.561 261.739 128.451 279.63 119.811 284.396C118.373 285.191 116.632 285.204 115.184 284.418C105.012 278.948 63.8761 255.757 40.4827 226.857C30.6853 214.757 24 201.656 24 188.438C24 184.956 24.38 181.558 25.1082 178.281C30.0566 155.85 51.0716 139 76.2388 139C93.0152 139 107.946 146.483 117.504 158.117C127.061 146.483 141.989 139 158.761 139C187.615 139 211 161.132 211 188.438Z" fill="#F9195A"/>
<g opacity="0.35">
<path opacity="0.35" d="M210.441 188.451C210.441 195 208.82 201.52 205.998 207.9C203.026 214.432 198.771 220.852 193.719 227.039C190.384 231.121 186.701 235.096 182.806 238.938C159.413 261.979 128.449 279.924 119.85 284.706C118.418 285.503 116.689 285.516 115.244 284.728C105.119 279.24 64.1756 255.978 40.8959 226.988C40.5898 226.61 40.2881 226.228 39.991 225.849C39.6938 225.467 39.3967 225.085 39.1042 224.701C38.7393 224.223 38.3793 223.743 38.0236 223.261C35.7184 220.128 33.634 216.935 31.8287 213.703C31.6937 213.455 31.554 213.203 31.419 212.955C31.23 212.604 31.0453 212.258 30.8607 211.907C29.7667 209.808 28.7898 207.692 27.9524 205.558C27.8127 205.202 27.6777 204.847 27.5471 204.492C27.3986 204.086 27.25 203.677 27.1105 203.272C27.043 203.068 26.9708 202.862 26.9033 202.659C26.8178 202.402 26.7368 202.151 26.6557 201.893C26.4172 201.125 26.1966 200.359 25.9895 199.593C25.8813 199.184 25.7823 198.769 25.6833 198.36C25.5393 197.743 25.4043 197.126 25.2826 196.51C25.2062 196.099 25.1296 195.686 25.0621 195.276C25.0305 195.069 24.9945 194.862 24.963 194.654C24.9044 194.24 24.846 193.83 24.7964 193.417C24.7694 193.21 24.7469 193.002 24.7243 192.795C24.7063 192.637 24.6928 192.48 24.6748 192.322C24.6659 192.215 24.6568 192.106 24.6479 191.998C24.6163 191.642 24.5893 191.291 24.5668 190.936C24.5398 190.521 24.5218 190.108 24.5082 189.693C24.5038 189.486 24.4993 189.279 24.4947 189.071C24.4902 188.968 24.4902 188.864 24.4902 188.762V188.451C24.4902 186.703 24.5848 184.98 24.7694 183.277C24.8144 182.864 24.864 182.453 24.9224 182.04C24.9224 182.022 24.927 182.004 24.9315 181.986C24.9855 181.571 25.0485 181.162 25.116 180.747C25.1205 180.721 25.1251 180.694 25.1296 180.663C25.2646 179.856 25.4176 179.055 25.5933 178.262C35.6285 180.847 45.4385 183.048 48.7791 183.985C59.2426 186.919 67.666 189.626 66.2562 209.561C65.7743 216.391 61.3351 221.798 55.3834 224.765C57.113 226.335 58.8723 227.885 60.6599 229.411C93.9668 257.855 143.441 257.053 175.771 227.51C176.864 226.511 177.949 225.502 179.02 224.494C173.339 221.474 169.142 216.188 168.675 209.561C167.265 189.626 175.689 186.919 186.151 183.985C189.493 183.048 199.302 180.847 209.338 178.262C209.536 179.166 209.711 180.085 209.855 181.009C210.242 183.435 210.441 185.92 210.441 188.451Z" fill="#371A45"/>
</g>
<g opacity="0.35">
<path opacity="0.35" d="M24.7699 183.277C24.5854 184.98 24.4908 186.704 24.4908 188.451V188.76C24.4863 188.658 24.4863 188.554 24.4863 188.451C24.4863 186.708 24.5809 184.98 24.7699 183.277Z" fill="#371A45"/>
</g>
<g opacity="0.35">
<path opacity="0.35" d="M25.684 198.36C25.5308 197.743 25.4002 197.126 25.2832 196.509C25.4049 197.126 25.5399 197.743 25.684 198.36Z" fill="#371A45"/>
</g>
<g opacity="0.35">
<path opacity="0.35" d="M26.6575 201.893C26.4143 201.129 26.1893 200.363 25.9912 199.593C26.1982 200.359 26.4189 201.125 26.6575 201.893Z" fill="#371A45"/>
</g>
<g opacity="0.35">
<path opacity="0.35" d="M30.8615 211.907C29.7584 209.808 28.7859 207.692 27.9531 205.558C28.7906 207.692 29.7675 209.808 30.8615 211.907Z" fill="#371A45"/>
</g>
<g opacity="0.35">
<path opacity="0.35" d="M38.0239 223.261C35.7144 220.128 33.6299 216.939 31.8291 213.703C33.6344 216.935 35.719 220.128 38.0239 223.261Z" fill="#371A45"/>
</g>
<g opacity="0.35">
<path opacity="0.35" d="M210.611 188.451C210.611 189.77 210.544 191.085 210.404 192.404C209.878 197.594 208.329 202.78 205.996 207.899C208.819 201.52 210.44 195 210.44 188.451C210.44 185.92 210.242 183.435 209.855 181.009C209.891 180.865 209.922 180.716 209.953 180.572C210.386 183.133 210.611 185.766 210.611 188.451Z" fill="#371A45"/>
</g>
<g opacity="0.5">
<g opacity="0.5">
<path opacity="0.5" d="M210.618 188.453C210.618 189.623 210.566 190.79 210.45 191.962C208.319 166.441 185.934 146.365 158.622 146.365C143.771 146.365 130.373 152.307 120.895 161.835C120.284 162.451 124.369 167.089 124.233 167.944C123.341 173.593 118.472 166.825 117.556 165.541C108.046 153.871 93.1827 146.365 76.4846 146.365C49.1619 146.365 26.7469 166.477 24.6512 192.032C24.5421 190.837 24.4893 189.647 24.4893 188.453C24.4893 161.06 47.7763 138.86 76.4846 138.86C93.1827 138.86 108.046 146.365 117.556 158.035C127.071 146.365 141.928 138.86 158.62 138.86C187.342 138.86 210.618 161.06 210.618 188.453Z" fill="white"/>
</g>
</g>
<path d="M117.476 287C116.402 287 115.328 286.732 114.346 286.199C99.0929 277.895 23 234.15 23 188.373C23 160.047 47.0398 137 76.5894 137C92.4959 137 107.285 143.602 117.505 155.189C127.718 143.604 142.503 137 158.409 137C187.959 137 212 160.047 212 188.373C212 232.971 135.916 277.66 120.665 286.166C119.668 286.722 118.573 287 117.476 287ZM76.5894 140.601C49.0175 140.601 26.5868 162.031 26.5868 188.373C26.5868 232.112 101.115 274.901 116.056 283.034C116.955 283.523 118.026 283.517 118.919 283.019C125.442 279.381 148.344 266.143 169.193 248.527C195.215 226.54 208.41 206.3 208.41 188.373C208.41 162.031 185.981 140.601 158.409 140.601C142.848 140.601 128.445 147.345 118.894 159.104L117.505 160.815L116.113 159.104C106.557 147.345 92.1508 140.601 76.5894 140.601Z" fill="#4C0505"/>
<path d="M123.242 168C122.652 168 122.075 167.694 121.744 167.137C119.307 163.062 116.371 158.93 116.342 158.888C115.767 158.081 115.934 156.946 116.717 156.351C117.5 155.759 118.601 155.933 119.177 156.739C119.3 156.913 122.228 161.033 124.738 165.232C125.248 166.085 124.991 167.203 124.164 167.729C123.875 167.913 123.557 168 123.242 168Z" fill="#4C0505"/>
<g opacity="0.5">
<g opacity="0.5">
<path opacity="0.5" d="M140.913 157.197C148.871 149.496 172.157 148.251 182.588 158.754C191.51 167.738 176.303 166.291 164.275 165.596C153.851 164.994 132.955 164.896 140.913 157.197Z" fill="white"/>
</g>
</g>
<path d="M55.702 143C55.702 143 14.5352 161.185 20.6122 196.709C26.4044 230.568 64.3832 223.063 65.8463 202.353C67.2488 182.502 58.8608 179.812 48.4414 176.889C40.7169 174.723 37.4553 168.457 38.2175 163.738C39.7664 154.155 55.702 143 55.702 143Z" fill="white"/>
<g opacity="0.35">
<path opacity="0.35" d="M66.2573 202.38C64.7894 223.184 26.6474 230.721 20.8308 196.712C20.0564 192.182 20.0475 187.938 20.6192 183.972C20.6822 184.425 20.7542 184.88 20.8308 185.34C26.4809 218.385 62.6553 212.204 66.0461 192.742C66.4372 195.411 66.5265 198.585 66.2573 202.38Z" fill="#371A45"/>
</g>
<g opacity="0.35">
<path opacity="0.35" d="M205.996 207.9C203.111 214.445 198.969 220.843 194.035 226.988C193.931 227.006 193.828 227.021 193.72 227.039C198.772 220.852 203.025 214.432 205.996 207.9Z" fill="#371A45"/>
</g>
<path d="M179.298 143C179.298 143 220.465 161.185 214.388 196.709C208.596 230.568 170.617 223.063 169.154 202.353C167.751 182.502 176.138 179.812 186.559 176.889C194.284 174.723 197.545 168.457 196.782 163.738C195.235 154.155 179.298 143 179.298 143Z" fill="white"/>
<g opacity="0.35">
<path opacity="0.35" d="M168.673 202.38C170.141 223.184 208.283 230.721 214.099 196.712C214.874 192.182 214.883 187.938 214.312 183.972C214.248 184.425 214.176 184.88 214.099 185.34C208.449 218.385 172.275 212.204 168.884 192.742C168.493 195.411 168.402 198.585 168.673 202.38Z" fill="#371A45"/>
</g>
<path d="M44.3297 222C33.7427 222 21.7946 215.508 18.6326 197.09C16.0201 181.868 21.5312 167.345 34.5737 155.093C44.3015 145.953 54.6438 141.345 55.0785 141.154C55.9314 140.78 56.9278 141.109 57.3848 141.915C57.8419 142.724 57.6104 143.745 56.8471 144.277C56.6917 144.386 41.3791 155.168 39.9593 163.934C39.307 167.957 42.2452 173.249 48.9749 175.129C59.01 177.933 69.3885 180.832 67.847 202.586C67.1046 213.047 57.5432 221.379 45.6049 221.967C45.1832 221.99 44.756 222 44.3297 222ZM40.6659 154.552C39.4392 155.557 38.2025 156.634 36.9828 157.785C24.7452 169.316 19.771 182.336 22.1992 196.482C25.0899 213.32 36.0907 218.834 45.4264 218.37C54.0239 217.946 63.539 212.182 64.2381 202.333C65.572 183.512 57.8165 181.345 47.9982 178.601C39.2494 176.156 35.4871 168.924 36.3881 163.36C36.8652 160.414 38.5258 157.386 40.6659 154.552Z" fill="#4C0505"/>
<path d="M190.671 222C190.242 222 189.818 221.988 189.395 221.969C177.457 221.381 167.895 213.048 167.153 202.586C165.611 180.835 175.989 177.934 186.025 175.129C192.754 173.247 195.691 167.958 195.04 163.934C193.619 155.169 178.307 144.387 178.153 144.278C177.391 143.745 177.158 142.725 177.615 141.916C178.072 141.108 179.07 140.779 179.922 141.154C180.356 141.345 190.697 145.954 200.426 155.093C213.468 167.346 218.98 181.867 216.367 197.091C213.207 215.507 201.257 222 190.671 222ZM194.335 154.552C196.477 157.385 198.136 160.414 198.613 163.359C199.514 168.922 195.751 176.154 187.002 178.599C177.184 181.344 169.43 183.51 170.763 202.331C171.461 212.18 180.976 217.944 189.574 218.369C198.916 218.837 209.911 213.32 212.802 196.481C215.229 182.336 210.255 169.315 198.018 157.783C196.798 156.634 195.561 155.556 194.335 154.552Z" fill="#4C0505"/>
<path d="M212.679 180C212.202 180 211.742 179.732 211.507 179.268C206.242 168.852 195.948 164.666 195.845 164.624C195.166 164.354 194.826 163.569 195.089 162.87C195.351 162.17 196.113 161.822 196.793 162.091C197.251 162.272 208.111 166.66 213.851 178.017C214.187 178.682 213.934 179.501 213.287 179.846C213.092 179.951 212.884 180 212.679 180Z" fill="#4C0505"/>
<path d="M21.389 180C21.1723 180 20.9546 179.952 20.7495 179.848C20.0684 179.501 19.8031 178.682 20.1564 178.017C26.1988 166.661 37.6288 162.271 38.1119 162.091C38.8336 161.821 39.6329 162.173 39.9075 162.872C40.1819 163.57 39.8251 164.356 39.1093 164.625C39.0004 164.666 28.1658 168.852 22.6238 179.269C22.376 179.734 21.8906 180 21.389 180Z" fill="#4C0505"/>
</g>
<defs>
<clipPath id="clip0">
<rect width="290" height="290" fill="white"/>
</clipPath>
</defs>
</svg>
