<svg width="290" height="290" viewBox="0 0 290 290" fill="none" xmlns="http://www.w3.org/2000/svg">
<rect width="290" height="290" fill="white"/>
<path d="M167.768 227.876L166.69 235.212H154.224C152.509 235.212 151.331 233.646 151.628 232.08C151.674 231.836 151.754 231.592 151.876 231.356C152.84 229.462 154.574 227.975 157.067 227.808L156.99 227.789L154.925 217.251C154.925 217.251 158.774 215.54 162.714 216.733C164.25 217.194 165.798 218.097 167.135 219.713L167.768 227.876Z" fill="white"/>
<path d="M166.853 235.403H154.223C153.377 235.403 152.584 235.032 152.049 234.386C151.505 233.729 151.282 232.875 151.44 232.044C151.491 231.772 151.58 231.511 151.705 231.268C152.777 229.162 154.568 227.883 156.766 227.643L154.706 217.139L154.845 217.077C155.005 217.007 158.805 215.352 162.768 216.551C164.529 217.08 166.047 218.103 167.279 219.592L167.318 219.639L167.957 227.883L167.954 227.904L166.853 235.403ZM157.154 227.634L158.279 227.917L157.079 227.998C154.888 228.145 153.1 229.369 152.045 231.442C151.937 231.652 151.859 231.878 151.815 232.115C151.678 232.834 151.871 233.574 152.343 234.143C152.812 234.71 153.48 235.022 154.223 235.022H166.524L167.576 227.87L166.949 219.789C165.772 218.384 164.329 217.417 162.659 216.916C159.249 215.884 155.862 217.084 155.141 217.369L157.154 227.634Z" fill="#650000"/>
<path d="M188.339 215.174L187.063 232.655C186.941 234.351 185.527 235.665 183.827 235.665H168.312C166.357 235.665 164.859 233.893 165.217 231.972C165.331 231.374 165.518 230.802 165.781 230.264C167.21 227.326 170.781 225.527 175.461 227.04L174.596 219.021C174.596 219.021 174.291 208.96 183.944 212.84C185.226 213.352 186.686 214.114 188.339 215.174Z" fill="white"/>
<path d="M183.827 235.857H168.312C167.316 235.857 166.377 235.416 165.739 234.648C165.109 233.889 164.851 232.902 165.03 231.938C165.15 231.318 165.344 230.726 165.611 230.182C166.95 227.429 170.434 225.34 175.242 226.774L174.408 219.044C174.401 218.847 174.302 214.532 177.032 212.626C178.702 211.461 181.051 211.474 184.017 212.666C185.351 213.198 186.84 213.988 188.443 215.015L188.538 215.076L188.53 215.189L187.253 232.67C187.125 234.457 185.62 235.857 183.827 235.857ZM172.159 226.673C168.96 226.673 166.872 228.462 165.954 230.35C165.702 230.864 165.518 231.423 165.406 232.01C165.247 232.861 165.476 233.734 166.034 234.405C166.599 235.086 167.43 235.476 168.314 235.476H183.829C185.422 235.476 186.76 234.231 186.875 232.642L188.143 215.274C186.596 214.29 185.162 213.531 183.876 213.019C181.038 211.878 178.81 211.851 177.252 212.937C174.692 214.723 174.787 218.975 174.789 219.017L175.684 227.313L175.405 227.223C174.219 226.84 173.137 226.673 172.159 226.673Z" fill="#650000"/>
<path d="M175.979 226.007C176.419 226.029 176.845 226.179 177.247 226.386C177.65 226.592 178.017 226.88 178.353 227.191C179.022 227.82 179.562 228.574 179.847 229.453C179.878 229.549 179.825 229.653 179.729 229.684C179.693 229.695 179.655 229.695 179.621 229.685L179.616 229.684C179.179 229.558 178.788 229.419 178.404 229.3C178.024 229.174 177.656 229.064 177.296 228.965C176.937 228.862 176.583 228.779 176.246 228.659C175.908 228.54 175.574 228.41 175.248 228.173L175.22 228.153C174.69 227.767 174.573 227.024 174.959 226.493C175.201 226.16 175.594 225.99 175.979 226.007Z" fill="#650000"/>
<path d="M183.827 237H168.313C166.974 237 165.715 236.408 164.859 235.377C164.011 234.355 163.664 233.025 163.908 231.726C164.325 229.497 165.668 227.55 167.593 226.386C169.827 225.035 172.693 224.793 175.666 225.705C176.37 225.922 176.766 226.667 176.549 227.372C176.333 228.076 175.589 228.472 174.882 228.256C172.018 227.376 170.088 227.995 168.974 228.669C167.68 229.452 166.812 230.712 166.53 232.218C166.431 232.742 166.567 233.258 166.911 233.673C167.259 234.092 167.77 234.332 168.313 234.332H183.827C184.823 234.332 185.661 233.554 185.733 232.56L187.008 215.078C187.061 214.343 187.705 213.794 188.436 213.845C189.17 213.898 189.723 214.537 189.669 215.272L188.395 232.754C188.221 235.134 186.215 237 183.827 237Z" fill="#4C0505"/>
<path d="M175.46 228.376C174.787 228.376 174.21 227.869 174.135 227.185L173.269 219.168C173.191 218.435 173.72 217.777 174.452 217.698C175.184 217.619 175.842 218.148 175.922 218.881L176.788 226.898C176.866 227.631 176.337 228.288 175.605 228.368C175.556 228.373 175.507 228.376 175.46 228.376Z" fill="#4C0505"/>
<path d="M167.767 229.212C167.077 229.212 166.492 228.68 166.438 227.98L165.806 219.814C165.749 219.08 166.299 218.439 167.033 218.382C167.769 218.322 168.409 218.874 168.466 219.609L169.098 227.774C169.155 228.509 168.605 229.15 167.871 229.207C167.836 229.21 167.801 229.212 167.767 229.212Z" fill="#4C0505"/>
<path d="M157.542 226.646C157.991 226.527 158.448 226.557 158.88 226.647C159.314 226.737 159.724 226.915 160.108 227.118C160.492 227.325 160.852 227.566 161.184 227.839C161.513 228.12 161.82 228.422 162.08 228.786C162.14 228.869 162.121 228.986 162.037 229.046C162.008 229.066 161.975 229.078 161.943 229.08H161.94C161.501 229.113 161.095 229.108 160.7 229.112H159.568C159.205 229.112 158.855 229.128 158.523 229.106C158.188 229.085 157.871 229.054 157.545 228.933L157.436 228.893C156.826 228.666 156.514 227.987 156.74 227.376C156.877 227.006 157.187 226.743 157.542 226.646Z" fill="#650000"/>
<path d="M166.689 236.548H154.223C152.83 236.548 151.564 235.839 150.837 234.651C150.106 233.457 150.05 231.998 150.687 230.748C152.007 228.163 154.356 226.602 157.133 226.466C157.873 226.431 158.495 226.997 158.531 227.733C158.567 228.469 158 229.095 157.264 229.131C154.928 229.245 153.691 230.733 153.064 231.961C152.758 232.56 152.996 233.068 153.112 233.258C153.227 233.445 153.564 233.88 154.224 233.88H166.69C167.427 233.88 168.023 234.477 168.023 235.214C168.023 235.951 167.425 236.548 166.689 236.548Z" fill="#4C0505"/>
<path d="M156.99 229.124C156.365 229.124 155.807 228.683 155.682 228.047L153.614 217.506C153.473 216.784 153.943 216.082 154.667 215.941C155.391 215.798 156.091 216.27 156.232 216.993L158.3 227.533C158.441 228.256 157.971 228.957 157.248 229.099C157.162 229.116 157.075 229.124 156.99 229.124Z" fill="#4C0505"/>
<g opacity="0.3">
<path opacity="0.3" d="M167.768 227.872V227.876C166.419 228.871 165.527 230.33 165.219 231.973C164.971 233.307 165.615 234.568 166.686 235.212H154.224C152.51 235.212 151.332 233.646 151.629 232.08C152.17 231.74 152.627 231.5 152.627 231.5C156.59 232.944 159.708 231.794 162.246 228.851L162.726 223.47C159.628 222.853 158.434 219.022 158.434 219.022L159.044 218.695L159.871 218.253L161.636 217.307C163.306 221.058 165.573 221.187 167.135 219.712L167.768 227.872Z" fill="#650000"/>
</g>
<path d="M143.629 233.89H131.002C129.31 233.89 127.915 232.568 127.82 230.883L127.317 221.98L126.974 215.947L138.533 215.936L138.426 219.427L138.244 225.38C142.478 224.103 145.873 226.942 146.392 230.792C146.612 232.439 145.29 233.89 143.629 233.89Z" fill="#F44906"/>
<g opacity="0.55">
<g opacity="0.55">
<path opacity="0.55" d="M127.292 215.953L138.851 215.941V215.945L129.628 215.953L129.967 221.986L130.47 230.889C130.566 232.574 131.964 233.896 133.656 233.896H131.32C129.628 233.896 128.233 232.574 128.138 230.889L127.635 221.986L127.292 215.953Z" fill="white"/>
</g>
</g>
<path d="M119.021 235.67H106.395C104.703 235.67 103.308 234.348 103.213 232.663L102.653 222.796L102.367 217.727L113.926 217.715L113.765 222.94L113.636 227.159C117.869 225.882 121.265 228.721 121.783 232.571C122.005 234.218 120.682 235.67 119.021 235.67Z" fill="#F44906"/>
<g opacity="0.55">
<g opacity="0.55">
<path opacity="0.55" d="M120.511 235.24C120.08 235.51 119.57 235.67 119.021 235.67H106.395C104.703 235.67 103.308 234.348 103.213 232.664L102.653 222.796L102.367 217.727L105.153 217.724L105.415 222.362L105.975 232.229C106.071 233.914 107.466 235.24 109.158 235.24H120.511Z" fill="white"/>
</g>
</g>
<path d="M138.447 226.512C137.921 226.794 137.547 226.864 137.189 226.954C136.834 227.036 136.488 227.092 136.123 227.194C135.758 227.29 135.383 227.431 134.99 227.596C134.589 227.752 134.195 227.961 133.742 228.149L133.734 228.152C133.643 228.19 133.537 228.147 133.499 228.055C133.483 228.017 133.482 227.977 133.491 227.94C133.745 226.984 134.283 226.113 135.081 225.409C135.48 225.066 135.95 224.763 136.441 224.584C136.927 224.403 137.425 224.311 137.746 224.336L137.994 224.356C138.626 224.405 139.098 224.958 139.048 225.591C139.017 225.992 138.776 226.333 138.447 226.512Z" fill="#4C0505"/>
<path d="M143.628 235.224H131.003C128.606 235.224 126.623 233.349 126.487 230.957L125.641 216.021C125.599 215.286 126.162 214.656 126.898 214.614C127.63 214.57 128.264 215.134 128.305 215.871L129.151 230.806C129.207 231.788 130.02 232.556 131.003 232.556H143.628C144.053 232.556 144.456 232.373 144.737 232.052C145.004 231.746 145.122 231.362 145.069 230.971C144.853 229.37 144.035 227.985 142.824 227.171C141.693 226.412 140.325 226.21 138.868 226.589C138.155 226.773 137.426 226.346 137.241 225.632C137.057 224.919 137.485 224.191 138.198 224.006C140.383 223.439 142.554 223.777 144.312 224.956C146.156 226.195 147.395 228.257 147.713 230.615C147.869 231.764 147.516 232.927 146.746 233.808C145.959 234.708 144.823 235.224 143.628 235.224Z" fill="#4C0505"/>
<path d="M138.243 226.712C138.229 226.712 138.215 226.712 138.201 226.712C137.464 226.688 136.886 226.074 136.908 225.337L137.199 215.895C137.222 215.159 137.852 214.574 138.573 214.603C139.31 214.626 139.888 215.241 139.866 215.978L139.575 225.42C139.553 226.142 138.96 226.712 138.243 226.712Z" fill="#4C0505"/>
<path d="M212.601 101.994C217.174 103.232 217.174 107.615 211.839 108.949C218.028 111.616 217.448 116.003 210.791 118.095C216.206 120.454 216.888 126.289 210.6 127.623C215.146 130.851 215.459 136.007 209.838 137.247C209.838 137.247 218.508 141.629 208.218 146.584C211.942 149.073 212.505 152.133 208.504 156.017C212.441 159.122 212.669 162.092 207.932 164.878C212.959 166.574 212.887 171.833 207.742 173.643C211.561 176.761 210.886 179.806 206.503 182.79C209.948 186.468 209.095 189.163 205.646 191.27C208.683 195.942 207.441 198.823 202.883 200.321C207.106 206.259 202.049 211.514 198.215 208.8C199.167 214.391 194.663 216.434 189.83 212.546C188.431 217.726 181.358 218.476 178.652 215.469C175.764 219.715 172.451 220.554 168.614 217.234C167.489 220.821 163.717 222.741 161.373 216.678C159.105 220.233 154.566 219.479 154.704 215.851C152.608 217.801 148.454 217.744 147.848 215.214C147.642 214.372 147.833 213.255 148.625 211.849C147.772 188.038 149.289 162.949 152.715 136.829C155.581 114.969 159.788 92.3805 165.059 69.2207C165.146 69.0836 165.235 68.9464 165.33 68.8129C166.641 66.9681 168.684 65.7606 170.902 66.1337C172.098 66.3358 173.345 66.9991 174.557 68.268C176.397 64.8079 182.877 64.2016 184.336 69.0302C187.629 66.0154 195.262 65.539 196.024 73.2871C198.97 68.0587 205.582 73.9352 202.724 78.6223C206.703 76.4809 209.904 78.9883 207.522 82.7804C213.944 81.0958 217.587 87.8645 214.348 92.4375C219.556 95.5151 219.461 99.8977 212.601 101.994Z" fill="white"/>
<path d="M208.314 80.7087C207.898 80.3731 207.433 80.0534 206.912 79.7445C207.186 79.3554 207.411 78.9556 207.586 78.5442C208.139 79.0473 208.421 79.7979 208.314 80.7087Z" fill="white"/>
<path d="M208.462 81.0738L208.193 80.8566C207.787 80.5282 207.323 80.2092 206.814 79.9082L206.635 79.8028L206.755 79.6339C207.021 79.2572 207.241 78.8645 207.41 78.4683L207.515 78.2214L207.714 78.4019C208.332 78.9648 208.612 79.7913 208.503 80.7296L208.462 81.0738ZM207.183 79.6852C207.525 79.8952 207.847 80.1124 208.145 80.3362C208.144 79.7696 207.971 79.2673 207.643 78.8782C207.512 79.1511 207.358 79.4217 207.183 79.6852Z" fill="#650000"/>
<g opacity="0.3">
<path opacity="0.3" d="M212.601 101.993C217.174 103.232 217.174 107.614 211.839 108.948C218.028 111.616 217.448 116.003 210.791 118.095C216.206 120.454 216.888 126.288 210.6 127.623C215.147 130.851 215.459 136.007 209.838 137.246C209.838 137.246 218.509 141.629 208.218 146.584C211.942 149.072 212.506 152.133 208.504 156.016C212.441 159.122 212.67 162.091 207.933 164.877C212.96 166.573 212.887 171.832 207.742 173.643C211.561 176.76 210.886 179.806 206.504 182.79C209.949 186.467 209.095 189.162 205.646 191.269C208.683 195.942 207.441 198.822 202.883 200.321C207.106 206.259 202.049 211.514 198.215 208.8C199.168 214.391 194.663 216.433 189.83 212.546C188.431 217.725 181.358 218.476 178.652 215.469C175.764 219.715 172.452 220.553 168.614 217.234C168.298 218.24 167.775 219.113 167.135 219.715C165.573 221.189 163.305 221.06 161.636 217.31C161.544 217.108 161.457 216.898 161.373 216.677C160.939 217.359 160.421 217.881 159.872 218.254L159.045 218.696C156.903 219.569 154.605 218.445 154.704 215.849C152.608 217.8 148.454 217.743 147.848 215.213C147.837 215.163 147.825 215.11 147.814 215.057C147.718 214.524 147.775 213.887 148.031 213.148C148.069 213.034 148.115 212.919 148.161 212.801C148.283 212.5 148.439 212.184 148.626 211.849C156.125 207.664 160.39 200.739 158.771 189.554C152.814 155.369 155.535 122.35 166.484 90.4249C168.481 84.6054 168.573 78.2525 166.488 72.4596C166.076 71.3199 165.604 70.238 165.059 69.2203C165.146 69.0832 165.234 68.9461 165.329 68.8126C166.64 66.9677 168.683 65.7602 170.901 66.1334C172.342 67.9587 173.485 70.0814 174.339 72.4596C176.423 78.2525 176.333 84.6054 174.335 90.4249C171.108 99.8345 168.596 109.335 166.813 118.932C166.813 118.932 166.813 118.939 166.809 118.958C166.732 119.709 163.672 141.024 171.992 143.33L161.923 141.946C161.733 142.548 161.588 142.911 161.462 143.113L163.89 142.74C162.964 158.098 163.86 173.701 166.623 189.554C167.644 196.604 166.325 201.959 163.337 206.002C166.276 207.413 168.886 206.208 171.219 202.778C173.925 205.785 180.998 205.035 182.397 199.855C187.229 203.743 191.734 201.7 190.781 196.109C194.615 198.823 199.673 193.567 195.45 187.63C200.008 186.132 201.251 183.251 198.213 178.579C201.662 176.471 202.515 173.777 199.07 170.099C203.453 167.116 204.128 164.07 200.309 160.952C205.453 159.142 205.526 153.883 200.499 152.187C205.236 149.401 205.008 146.432 201.071 143.326C205.072 139.442 204.509 136.382 200.785 133.893C211.075 128.939 202.405 124.556 202.405 124.556C208.026 123.317 207.713 118.161 203.167 114.932C209.455 113.598 208.773 107.764 203.357 105.404C210.016 103.312 210.594 98.9258 204.405 96.2575C209.741 94.9237 209.741 90.5411 205.168 89.3026C210.118 87.7898 211.547 85.0839 209.996 82.5383C214.813 82.9078 217.142 88.4913 214.348 92.4358C219.557 95.5148 219.461 99.8973 212.601 101.993Z" fill="#650000"/>
</g>
<g opacity="0.3">
<path opacity="0.3" d="M159.871 218.254C159.601 218.437 159.326 218.585 159.044 218.696L159.871 218.254Z" fill="#792937"/>
<path opacity="0.3" d="M159.113 218.873L158.954 218.527L159.781 218.086L159.977 218.412C159.691 218.605 159.4 218.761 159.113 218.873Z" fill="#650000"/>
</g>
<g opacity="0.3">
<path opacity="0.3" d="M166.262 122.016C166.251 122.085 166.239 122.15 166.228 122.215C166.239 122.123 166.254 122.058 166.262 122.016Z" fill="#792937"/>
<path opacity="0.3" d="M166.415 122.249L166.039 122.191C166.049 122.116 166.06 122.057 166.07 122.013H166.07L166.075 121.985L166.451 122.048L166.415 122.249Z" fill="#650000"/>
</g>
<path d="M209.995 82.5377C209.229 82.4727 208.402 82.5456 207.521 82.778C207.994 82.031 208.245 81.3302 208.314 80.7087C209.049 81.2919 209.613 81.909 209.995 82.5377Z" fill="white"/>
<path d="M207.1 83.0862L207.359 82.6763C207.798 81.9841 208.055 81.315 208.124 80.6878L208.161 80.345L208.431 80.5593C209.18 81.1526 209.76 81.7849 210.156 82.4395L210.35 82.76L209.977 82.7282C209.213 82.6625 208.403 82.7419 207.569 82.9628L207.1 83.0862ZM208.45 81.0675C208.357 81.5279 208.177 82.0043 207.912 82.49C208.498 82.3673 209.071 82.3139 209.627 82.3276C209.321 81.8953 208.927 81.4738 208.45 81.0675Z" fill="#650000"/>
<path d="M166.483 90.423C155.534 122.348 152.813 155.367 158.77 189.552C162.855 217.773 129.486 218.871 101.269 217.251C100.873 217.228 100.476 217.206 100.08 217.183C89.9162 216.356 83.0025 213.497 80.6438 203.272C73.7113 166.282 72.0685 127.813 83.1201 91.4176C88.8559 72.5226 105.194 67.1224 123.941 62.1184C123.944 62.1184 123.952 62.1148 123.959 62.1148C126.38 61.4667 128.845 60.8265 131.33 60.1675C150.881 55.2054 162.238 60.6359 166.487 72.4584C168.572 78.2505 168.48 84.6034 166.483 90.423Z" fill="#F44906"/>
<g opacity="0.3">
<path opacity="0.3" d="M102.367 217.728L113.926 217.716L113.765 222.941C110.088 223.006 106.353 222.941 102.653 222.796L102.367 217.728Z" fill="#650000"/>
</g>
<g opacity="0.3">
<path opacity="0.3" d="M138.533 215.936L138.426 219.427C135.065 220.605 131.311 221.428 127.317 221.981L126.974 215.948L138.533 215.936Z" fill="#650000"/>
</g>
<g opacity="0.55">
<path opacity="0.55" d="M158.16 61.7489C152.322 59.4587 144.528 59.3057 134.634 61.8174C132.149 62.4771 129.684 63.1173 127.264 63.7647C127.256 63.7647 127.249 63.7683 127.245 63.7683C108.499 68.7723 92.1603 74.1725 86.4244 93.0682C75.3729 129.464 77.0156 167.932 83.9474 204.922C85.1094 209.968 87.3851 213.222 90.6128 215.318C85.6125 213.432 82.1711 209.899 80.6431 203.272C73.7114 166.282 72.0686 127.813 83.1202 91.4175C88.856 72.5226 105.194 67.1224 123.941 62.1184C123.944 62.1184 123.952 62.1148 123.96 62.1148C126.38 61.4667 128.845 60.8265 131.33 60.1675C143.225 57.1484 152.085 57.9755 158.16 61.7489Z" fill="white"/>
</g>
<g opacity="0.75">
<g opacity="0.75">
<path opacity="0.75" d="M168.015 78.1746C159.022 87.473 147.342 87.4766 140.514 85.1626C139.601 84.8537 138.773 84.3471 138.014 83.7538C125.282 73.8014 93.208 84.3976 81.5884 96.7765L79.8569 103.798C96.007 84.1493 127.258 77.5733 136.493 85.263C139.342 87.6354 142.885 89.0414 146.567 89.4752C155.072 90.477 165.385 89.0472 168.015 83.6044" fill="white"/>
</g>
<g opacity="0.75">
<path opacity="0.75" d="M160.064 113.436C151.465 121.59 132.728 121.207 128.408 118.413C111.218 106.397 87.5032 124.256 75.6901 132.504L75.2729 140.388C82.2127 127.646 112.793 110.66 124.752 119.159C128.425 121.769 132.592 123.61 137.058 124.21C145.589 125.357 155.487 124.192 158.77 119.966" fill="white"/>
</g>
<g opacity="0.75">
<path opacity="0.75" d="M155.945 164.573C143.973 166.462 137.87 162.17 131.807 156.872C127.282 152.918 121.575 154.49 121.575 154.49L88.6464 164.59C79.309 167.258 75.5364 162.513 75.5364 162.513L76.3866 173.647C76.3866 173.647 77.8482 169.862 87.3761 167.829L118.334 157.658C124.612 155.595 131.583 157.49 135.781 162.594C135.907 162.748 136.033 162.905 136.158 163.066C142.16 170.783 155.945 169.226 155.945 169.226" fill="white"/>
</g>
<g opacity="0.75">
<path opacity="0.75" d="M158.322 186.88C154.726 193.063 144.193 192.769 134.254 188.785C132.514 188.088 130.872 187.177 129.269 186.206C119.675 180.4 107.217 189.105 95.4108 194.506C88.0691 198.577 82.453 197.428 78.5635 191.059C79.3639 197.631 80.5519 203.337 82.2517 207.898C82.5757 201.649 88.6465 200.667 98.0784 195.713C110.135 189.828 122.548 182.394 131.65 189.385C133.586 190.872 135.66 192.175 137.912 193.12C145.368 196.248 152.511 196.967 159.104 193.456" fill="white"/>
</g>
</g>
<path d="M115.916 219.06C110.644 219.06 105.267 218.831 99.9993 218.514C90.877 217.772 82.083 215.451 79.344 203.572C79.3396 203.554 79.336 203.536 79.3324 203.518C71.2047 160.156 72.0268 123.361 81.8441 91.0299C88.1855 70.1415 107.257 65.1245 127.449 59.8124C128.621 59.5034 129.802 59.1931 130.988 58.8777C140.716 56.4093 148.831 56.3753 155.122 58.7716C161.168 61.0747 165.415 65.528 167.744 72.0072C169.876 77.9422 169.877 84.6358 167.744 90.8567C156.823 122.701 154.247 155.83 160.084 189.323C160.086 189.336 160.088 189.348 160.089 189.36C161.232 197.248 159.593 203.658 155.218 208.415C147.433 216.882 132.183 219.06 115.916 219.06ZM81.9495 202.999C84.1855 212.65 90.5868 215.073 100.188 215.853C119.833 217.037 143.646 217.058 153.256 206.61C157.111 202.418 158.484 196.908 157.453 189.763C151.542 155.83 154.155 122.262 165.221 89.9927C167.158 84.3435 167.162 78.2771 165.233 72.9109C160.93 60.9383 149.32 56.9787 131.659 61.4601C130.486 61.7727 129.303 62.0837 128.126 62.3926C107.832 67.7315 90.3053 72.3421 84.397 91.8051C74.7081 123.71 73.9077 160.08 81.9495 202.999Z" fill="#4C0505"/>
<path d="M123.94 62.1181C123.944 62.1181 123.952 62.1145 123.959 62.1145C123.951 62.1181 123.944 62.1224 123.936 62.1224C123.937 62.1217 123.937 62.1217 123.94 62.1181Z" fill="#792937"/>
<path d="M123.937 62.3124H123.492L123.855 61.9313L123.959 61.9241H124.734L124.006 62.3052L123.937 62.3124Z" fill="#650000"/>
<g opacity="0.3">
<path opacity="0.3" d="M154.959 189.552C149.002 155.367 151.723 122.349 162.673 90.423C164.67 84.6034 164.761 78.2505 162.676 72.4576C159.667 64.0859 153.088 58.9254 142.565 58.3848C139.173 58.5472 135.435 59.1253 131.33 60.1668C130.199 60.467 129.074 60.7622 127.954 61.0567C128.6 61.056 129.224 61.0777 129.807 61.1354C129.799 61.1361 129.791 61.1376 129.782 61.1383C142.372 60.0968 144.752 68.4562 138.914 84.3898C127.569 120.618 124.227 157.901 127.71 196.092C129.513 213.139 117.249 216.942 101.269 217.251C105.417 217.49 109.676 217.668 113.912 217.711C137.067 217.458 158.263 212.377 154.959 189.552Z" fill="#650000"/>
</g>
<path d="M165.167 221.924C164.146 221.924 162.48 221.482 161.038 219.056C159.48 220.325 157.644 220.557 156.246 220.119C155.113 219.764 154.261 219.008 153.789 217.997C151.782 218.852 149.368 218.751 147.86 217.565C147.031 216.913 145.332 214.987 147.461 211.194C147.822 210.551 148.635 210.322 149.277 210.683C149.92 211.044 150.148 211.857 149.788 212.499C149.324 213.325 148.672 214.809 149.509 215.467C150.4 216.167 152.552 216.03 153.795 214.872C154.19 214.504 154.768 214.409 155.26 214.635C155.751 214.859 156.058 215.359 156.037 215.899C156.004 216.765 156.361 217.359 157.042 217.572C157.915 217.844 159.292 217.456 160.249 215.956C160.52 215.532 161.004 215.297 161.507 215.346C162.007 215.396 162.437 215.723 162.618 216.192C163.37 218.137 164.332 219.284 165.194 219.254C166.006 219.228 166.909 218.208 167.342 216.829C167.477 216.4 167.819 216.068 168.251 215.946C168.683 215.823 169.148 215.926 169.488 216.221C170.964 217.498 172.327 218.064 173.538 217.907C174.878 217.732 176.228 216.659 177.548 214.716C177.778 214.378 178.151 214.164 178.561 214.135C178.971 214.108 179.369 214.27 179.642 214.574C180.667 215.712 182.745 216.181 184.697 215.715C185.627 215.493 187.865 214.705 188.542 212.197C188.66 211.762 188.989 211.416 189.417 211.277C189.845 211.137 190.315 211.223 190.666 211.505C192.633 213.088 194.615 213.626 195.839 212.907C196.834 212.322 197.22 210.906 196.899 209.021C196.809 208.489 197.047 207.956 197.503 207.668C197.96 207.381 198.544 207.397 198.984 207.708C200.23 208.59 201.434 208.143 202.145 207.431C203.354 206.219 203.715 203.788 201.795 201.09C201.55 200.745 201.483 200.304 201.615 199.901C201.747 199.498 202.063 199.183 202.466 199.051C204.345 198.434 205.478 197.606 205.836 196.591C206.227 195.479 205.787 193.933 204.527 191.993C204.33 191.692 204.265 191.323 204.345 190.971C204.425 190.62 204.643 190.316 204.95 190.128C206.413 189.234 207.219 188.308 207.345 187.377C207.481 186.368 206.871 185.13 205.529 183.699C205.262 183.414 205.134 183.028 205.176 182.64C205.219 182.252 205.429 181.903 205.751 181.684C207.763 180.314 208.853 178.979 208.903 177.822C208.946 176.854 208.27 175.795 206.897 174.673C206.523 174.368 206.343 173.885 206.426 173.41C206.509 172.935 206.843 172.542 207.297 172.382C209.168 171.723 210.326 170.478 210.317 169.132C210.309 167.85 209.258 166.73 207.505 166.138C207.01 165.972 206.658 165.531 206.605 165.012C206.551 164.493 206.805 163.99 207.255 163.725C208.522 162.98 210.049 161.832 210.134 160.591C210.219 159.342 208.845 157.982 207.677 157.061C207.375 156.823 207.191 156.466 207.171 156.082C207.152 155.698 207.298 155.324 207.575 155.056C209.242 153.438 210.032 152.009 209.922 150.809C209.827 149.76 209.004 148.711 207.476 147.69C207.079 147.425 206.854 146.966 206.887 146.488C206.921 146.01 207.207 145.587 207.639 145.379C210.384 144.058 211.904 142.679 211.918 141.498C211.935 140.128 209.934 138.792 209.232 138.433C208.732 138.177 208.444 137.632 208.516 137.075C208.587 136.517 209 136.063 209.55 135.941C211.315 135.552 212.416 134.706 212.649 133.56C212.955 132.049 211.848 130.145 209.826 128.709C209.395 128.402 209.186 127.869 209.293 127.35C209.401 126.832 209.804 126.426 210.322 126.316C212.363 125.883 213.609 124.892 213.74 123.596C213.873 122.278 212.848 120.443 210.257 119.316C209.746 119.093 209.427 118.578 209.457 118.022C209.486 117.467 209.858 116.987 210.389 116.821C213.577 115.819 214.765 114.44 214.815 113.484C214.872 112.38 213.561 111.142 211.31 110.172C210.784 109.945 210.462 109.409 210.509 108.839C210.555 108.268 210.96 107.791 211.515 107.653C213.639 107.122 214.599 106.079 214.607 105.281C214.615 104.455 213.69 103.669 212.252 103.28C211.678 103.124 211.276 102.608 211.266 102.014C211.257 101.42 211.642 100.891 212.21 100.717C214.896 99.896 216.525 98.682 216.68 97.3857C216.821 96.202 215.695 94.7802 213.668 93.5813C213.347 93.3915 213.12 93.0761 213.042 92.7116C212.965 92.3471 213.043 91.9667 213.258 91.6622C214.503 89.9047 214.532 87.5582 213.329 85.8224C212.141 84.1068 210.145 83.4673 207.857 84.0685C207.329 84.2078 206.768 84.0093 206.444 83.5683C206.119 83.1274 206.098 82.5326 206.389 82.0693C207.052 81.0126 207.186 80.0584 206.738 79.5792C206.257 79.0638 204.991 78.9108 203.354 79.7928C202.823 80.0779 202.168 79.9733 201.754 79.5359C201.34 79.0985 201.27 78.4381 201.584 77.9242C202.531 76.3717 201.91 74.9144 201.599 74.3601C200.999 73.289 199.975 72.5687 199.051 72.568C199.051 72.568 199.051 72.568 199.05 72.568C198.324 72.568 197.697 73.0292 197.184 73.9379C196.898 74.4446 196.316 74.708 195.747 74.5882C195.178 74.4684 194.752 73.9928 194.695 73.4139C194.454 70.9664 193.41 69.3215 191.676 68.6582C189.485 67.8195 186.681 68.6871 185.236 70.0108C184.899 70.3204 184.424 70.4352 183.982 70.314C183.54 70.1927 183.191 69.8527 183.059 69.4132C182.457 67.424 180.867 66.9801 179.973 66.8928C178.228 66.7225 176.439 67.5619 175.731 68.8921C175.53 69.2703 175.16 69.5287 174.735 69.5871C174.307 69.6449 173.884 69.4955 173.588 69.1858C172.343 67.878 171.048 67.284 169.738 67.4175C168.409 67.5532 167.082 68.4901 166.19 69.922C165.801 70.5471 164.978 70.7383 164.352 70.3486C163.727 69.9588 163.536 69.136 163.925 68.511C165.271 66.3522 167.291 64.9859 169.467 64.7629C170.709 64.6351 172.483 64.838 174.367 66.2974C175.803 64.8351 178.015 64.0209 180.234 64.2375C182.222 64.4323 183.861 65.4327 184.865 67.0018C187.006 65.7524 189.983 65.1534 192.631 66.1667C194.597 66.9188 196.02 68.4367 196.781 70.5449C197.467 70.1212 198.234 69.9004 199.052 69.9004C199.053 69.9004 199.056 69.9004 199.057 69.9004C200.943 69.9025 202.855 71.1411 203.929 73.0559C204.549 74.1624 204.82 75.3699 204.743 76.5507C206.319 76.3378 207.742 76.7456 208.69 77.7582C209.54 78.6676 209.842 79.8686 209.597 81.18C212.014 81.2082 214.135 82.2988 215.525 84.3045C217.1 86.5788 217.3 89.5308 216.135 92.0093C218.446 93.6816 219.572 95.6723 219.33 97.7033C219.198 98.8076 218.525 100.643 215.764 102.139C216.742 102.992 217.287 104.093 217.276 105.309C217.263 106.557 216.589 108.03 214.885 109.119C217.201 110.793 217.534 112.574 217.481 113.623C217.386 115.461 216.056 117.106 213.743 118.325C215.601 119.831 216.601 121.838 216.396 123.867C216.212 125.688 215.058 127.19 213.199 128.131C214.89 129.965 215.665 132.12 215.265 134.094C214.967 135.56 214.043 136.769 212.632 137.597C213.64 138.532 214.604 139.863 214.587 141.523C214.569 143.437 213.236 145.207 210.62 146.802C211.8 147.957 212.458 149.218 212.581 150.569C212.737 152.284 212.015 154.079 210.432 155.918C212.133 157.535 212.909 159.133 212.797 160.774C212.7 162.195 211.951 163.49 210.518 164.698C212.069 165.804 212.976 167.377 212.987 169.116C212.999 171.061 211.906 172.825 210.037 174.01C211.115 175.274 211.63 176.591 211.571 177.94C211.494 179.712 210.467 181.381 208.44 183.015C209.672 184.654 210.193 186.238 209.99 187.736C209.794 189.182 208.935 190.498 207.432 191.659C208.627 193.866 208.937 195.819 208.353 197.478C207.839 198.937 206.66 200.109 204.841 200.975C206.589 204.405 205.793 207.553 204.034 209.316C202.807 210.545 201.211 211.053 199.66 210.806C199.526 212.785 198.674 214.336 197.191 215.207C195.321 216.306 192.872 216.06 190.425 214.588C189.387 216.427 187.575 217.771 185.318 218.311C182.982 218.869 180.611 218.505 178.88 217.39C177.344 219.257 175.668 220.319 173.885 220.553C172.34 220.754 170.752 220.335 169.15 219.301C168.21 220.887 166.801 221.872 165.28 221.921C165.243 221.923 165.205 221.924 165.167 221.924Z" fill="#4C0505"/>
<path d="M173.971 143.598L170.449 152.618L146.696 147.534L138.166 145.71C134.686 148.954 130.151 147.9 127.225 146.143C126.481 145.71 125.834 145.272 125.279 144.839C118.687 139.676 124.787 134.657 130.867 137.767C131.403 138.041 131.939 138.377 132.467 138.784C129.58 131.863 138.981 131.573 139.536 138.88L147.228 139.936L173.971 143.598Z" fill="white"/>
<path d="M173.911 144.037C170.928 144.473 168.048 144.153 165.17 143.829C162.293 143.492 159.442 142.961 156.573 142.563L139.357 140.2C138.734 140.115 138.27 139.612 138.211 139.013L138.208 138.98C138.156 138.46 138.068 137.951 137.91 137.479C137.746 137.013 137.525 136.581 137.243 136.207C136.69 135.458 135.858 134.948 135.038 134.85C134.63 134.792 134.25 134.867 133.968 135.002C133.679 135.138 133.51 135.351 133.38 135.643C133.254 135.937 133.225 136.359 133.284 136.818C133.349 137.282 133.505 137.777 133.7 138.271L133.703 138.281C133.974 138.969 133.635 139.746 132.947 140.016C132.499 140.192 132.013 140.109 131.654 139.841C130.721 139.141 129.683 138.588 128.592 138.333C127.511 138.06 126.373 138.084 125.428 138.417C124.959 138.585 124.551 138.839 124.269 139.143C123.985 139.448 123.827 139.784 123.784 140.153C123.689 140.888 124.136 141.865 124.916 142.688C125.679 143.527 126.665 144.255 127.747 144.895C128.278 145.214 128.794 145.497 129.347 145.718C129.895 145.943 130.457 146.136 131.026 146.256C132.163 146.527 133.316 146.532 134.387 146.296C135.451 146.03 136.428 145.499 137.258 144.732L137.263 144.728C137.591 144.424 138.039 144.32 138.447 144.404L154.588 147.859L158.623 148.723C159.967 149.015 161.314 149.296 162.67 149.53C164.027 149.764 165.374 150.043 166.695 150.441C167.357 150.633 168.011 150.864 168.655 151.145C169.297 151.429 169.933 151.747 170.543 152.183C170.761 152.339 170.811 152.641 170.655 152.859C170.581 152.963 170.472 153.029 170.357 153.053C169.621 153.202 168.912 153.232 168.21 153.227C167.507 153.221 166.817 153.164 166.134 153.068C164.765 152.89 163.422 152.593 162.088 152.252C160.755 151.91 159.411 151.614 158.065 151.331L154.03 150.467L137.889 147.012L139.077 146.683C137.955 147.73 136.527 148.522 135.002 148.893C133.473 149.238 131.896 149.202 130.441 148.859C128.982 148.537 127.596 147.931 126.369 147.179C125.165 146.462 123.969 145.608 122.936 144.475C122.418 143.914 121.943 143.261 121.593 142.486C121.242 141.721 121.021 140.8 121.134 139.842C121.238 138.887 121.699 137.969 122.331 137.309C122.963 136.639 123.732 136.194 124.514 135.91C125.298 135.627 126.104 135.5 126.897 135.481C127.689 135.463 128.475 135.549 129.222 135.74C130.73 136.097 132.094 136.831 133.283 137.727L131.238 139.297C130.975 138.634 130.747 137.936 130.639 137.163C130.542 136.392 130.553 135.523 130.901 134.658C131.236 133.801 131.936 133.004 132.781 132.61C133.619 132.202 134.525 132.092 135.352 132.199C137.017 132.405 138.444 133.355 139.374 134.598C139.842 135.22 140.19 135.911 140.438 136.62C140.677 137.332 140.802 138.057 140.869 138.776L139.72 137.556L156.938 139.91C159.808 140.299 162.697 140.553 165.558 141.003C168.418 141.465 171.278 141.931 174.034 143.154C174.267 143.258 174.373 143.531 174.269 143.764C174.2 143.916 174.061 144.014 173.911 144.037Z" fill="#4C0505"/>
<path d="M134.778 99.58C134.006 99.58 133.238 99.4544 132.499 99.1939C129.619 98.1798 127.9 95.4508 127.9 91.894C127.9 91.0517 128.582 90.3696 129.424 90.3696C130.266 90.3696 130.948 91.0524 130.948 91.894C130.948 94.1322 131.882 95.7446 133.511 96.3184C135.233 96.9254 137.286 96.218 138.621 94.5587C139.148 93.9026 140.108 93.7987 140.764 94.3263C141.42 94.8539 141.524 95.8139 140.997 96.4692C139.393 98.4649 137.075 99.58 134.778 99.58Z" fill="#4C0505"/>
<path d="M155.599 102.315C154.894 102.315 154.206 102.201 153.57 101.982C151.234 101.176 149.205 98.7968 149.942 95.2963C150.115 94.4728 150.924 93.9459 151.748 94.1184C152.572 94.2916 153.099 95.1007 152.926 95.9242C152.45 98.1834 154.059 98.926 154.564 99.1C155.944 99.5763 157.898 99.1317 158.927 97.035C159.298 96.2793 160.212 95.9676 160.967 96.3385C161.723 96.7095 162.035 97.6233 161.664 98.3789C160.318 101.119 157.874 102.315 155.599 102.315Z" fill="#4C0505"/>
<path d="M145.676 112.47C145.215 112.47 144.746 112.426 144.273 112.336C141.475 111.806 139.468 109.837 139.034 107.196C138.914 106.469 139.407 105.783 140.134 105.663C140.86 105.544 141.547 106.036 141.667 106.763C142.039 109.028 144.136 109.596 144.77 109.715C146.077 109.963 147.93 109.698 148.86 108.138C149.236 107.506 150.055 107.298 150.689 107.676C151.321 108.052 151.529 108.872 151.151 109.505C150.03 111.384 147.97 112.47 145.676 112.47Z" fill="#4C0505"/>
<path d="M196.5 119.866C194.816 119.866 193.153 119.244 191.943 118.099C190.314 116.559 189.716 114.29 190.303 111.876C190.501 111.058 191.325 110.557 192.144 110.754C192.962 110.953 193.464 111.777 193.266 112.595C192.935 113.956 193.203 115.093 194.038 115.883C194.921 116.718 196.332 117.032 197.55 116.664C198.432 116.397 199.577 115.675 200.017 113.753C200.205 112.933 201.024 112.421 201.843 112.608C202.664 112.796 203.177 113.614 202.988 114.435C202.399 117.008 200.738 118.884 198.433 119.582C197.802 119.773 197.149 119.866 196.5 119.866Z" fill="#4C0505"/>
<path d="M172.912 114.61C171.229 114.61 169.566 113.988 168.355 112.843C166.726 111.303 166.129 109.034 166.715 106.62C166.914 105.802 167.739 105.301 168.557 105.498C169.374 105.697 169.877 106.521 169.678 107.34C169.348 108.7 169.615 109.837 170.45 110.628C171.334 111.463 172.745 111.777 173.962 111.408C174.844 111.141 175.988 110.419 176.429 108.497C176.617 107.677 177.435 107.164 178.255 107.352C179.075 107.54 179.589 108.358 179.4 109.179C178.811 111.752 177.15 113.629 174.845 114.326C174.214 114.517 173.562 114.61 172.912 114.61Z" fill="#4C0505"/>
<path d="M182.653 126.125C182.203 126.125 181.749 126.083 181.294 126C179.184 125.615 177.414 124.356 176.561 122.631C176.196 121.892 176.498 120.998 177.236 120.633C177.975 120.268 178.869 120.57 179.234 121.308C179.671 122.192 180.642 122.85 181.83 123.067C183.188 123.316 184.532 122.935 185.512 122.022C186.114 121.461 187.058 121.494 187.619 122.097C188.181 122.7 188.147 123.643 187.544 124.205C186.2 125.456 184.47 126.125 182.653 126.125Z" fill="#4C0505"/>
<path d="M113.949 228.244C113.745 228.399 113.445 228.501 113.123 228.603C112.801 228.705 112.441 228.779 112.075 228.863C111.334 229.025 110.571 229.201 109.706 229.318H109.704C109.602 229.332 109.508 229.261 109.494 229.16C109.489 229.124 109.495 229.088 109.51 229.058C109.697 228.644 109.949 228.289 110.218 227.951C110.493 227.619 110.793 227.314 111.118 227.033C111.445 226.756 111.791 226.491 112.194 226.299C112.597 226.111 113.041 225.957 113.61 225.983C114.236 226.013 114.72 226.545 114.69 227.171C114.674 227.518 114.503 227.822 114.247 228.019L113.949 228.244Z" fill="#4C0505"/>
<path d="M119.021 237H106.395C103.999 237 102.016 235.125 101.88 232.733L101.034 217.797C100.992 217.062 101.555 216.432 102.291 216.39C103.027 216.349 103.656 216.911 103.698 217.647L104.544 232.582C104.599 233.564 105.413 234.332 106.395 234.332H119.021C119.445 234.332 119.849 234.148 120.13 233.828C120.397 233.522 120.515 233.138 120.462 232.747C120.249 231.173 119.451 229.802 118.272 228.984C117.179 228.226 115.853 227.997 114.436 228.321C113.719 228.485 113.003 228.036 112.839 227.317C112.674 226.599 113.124 225.884 113.842 225.72C115.978 225.232 118.091 225.613 119.792 226.791C121.586 228.035 122.794 230.075 123.106 232.389C123.261 233.538 122.908 234.703 122.138 235.583C121.351 236.484 120.215 237 119.021 237Z" fill="#4C0505"/>
<path d="M113.636 228.489C113.623 228.489 113.608 228.489 113.595 228.488C112.858 228.465 112.28 227.85 112.302 227.114L112.593 217.672C112.615 216.936 113.233 216.356 113.967 216.38C114.704 216.403 115.282 217.018 115.26 217.754L114.969 227.196C114.946 227.918 114.354 228.489 113.636 228.489Z" fill="#4C0505"/>
<g opacity="0.25">
<path opacity="0.25" d="M106.631 77.208C96.9071 82.7129 92.9583 91.8157 92.5772 103.142C92.4639 106.509 96.5686 108.224 98.9114 105.803C105.042 99.4656 109.489 91.3711 111.751 80.9987C112.393 78.0532 109.254 75.7233 106.631 77.208Z" fill="white"/>
</g>
<g opacity="0.25">
<path opacity="0.25" d="M97.4527 120.493C96.889 125.069 96.137 128.743 93.1511 128.375C90.1644 128.007 88.2005 123.999 88.7649 119.422C89.3286 114.846 92.207 111.434 95.1929 111.802C98.1788 112.17 98.0164 115.916 97.4527 120.493Z" fill="white"/>
</g>
<g opacity="0.3">
<path opacity="0.3" d="M146.696 147.534L138.166 145.709C134.686 148.954 130.152 147.899 127.225 146.143C126.482 145.709 125.834 145.272 125.279 144.839C130.293 145.786 132.64 144.124 130.727 138.305L130.868 137.767C131.403 138.041 131.939 138.377 132.467 138.783C129.58 131.863 138.981 131.573 139.536 138.88L147.228 139.936C142.892 142.616 143.058 145.136 146.696 147.534Z" fill="#792937"/>
<path opacity="0.3" d="M132.833 147.992C130.783 147.992 128.76 147.286 127.126 146.306C126.396 145.881 125.734 145.437 125.161 144.989L124.542 144.506L125.313 144.652C127.909 145.143 129.663 144.893 130.524 143.91C131.414 142.895 131.421 141.03 130.545 138.364L130.527 138.311L130.742 137.489L130.953 137.597C131.331 137.79 131.703 138.011 132.063 138.257C131.295 135.975 131.996 134.747 132.514 134.2C133.362 133.306 134.753 133.059 136.147 133.554C138.148 134.265 139.474 136.187 139.711 138.713L147.778 139.82L147.327 140.099C145.243 141.387 144.178 142.664 144.16 143.897C144.143 145.039 145.032 146.21 146.8 147.375L147.645 147.933L138.222 145.917C136.586 147.408 134.698 147.992 132.833 147.992ZM126.031 145.157C126.428 145.435 126.86 145.71 127.321 145.978C130.345 147.793 134.746 148.637 138.036 145.57L138.109 145.502L145.837 147.155C144.456 146.083 143.764 144.988 143.78 143.891C143.798 142.614 144.777 141.325 146.69 140.055L139.357 139.048L139.346 138.895C139.16 136.449 137.917 134.587 136.021 133.913C134.791 133.476 133.523 133.691 132.793 134.462C131.933 135.37 131.879 136.879 132.644 138.711L132.919 139.372L132.351 138.935C131.916 138.6 131.459 138.302 130.991 138.048L130.926 138.3C131.842 141.113 131.805 143.03 130.812 144.163C129.935 145.16 128.368 145.487 126.031 145.157Z" fill="#650000"/>
</g>
<g opacity="0.3">
<path opacity="0.3" d="M175.376 151.556C174.279 152.387 172.868 152.679 171.525 152.377L162.502 150.368L158.727 149.528C162.744 148.134 164.095 145.703 162.776 142.227L164.909 142.442L164.646 142.854L165.789 142.977L165.913 143.349C165.947 143.284 165.91 143.148 165.832 142.982L173.376 143.808L172.99 143.257L174.324 143.393C178.995 145.944 177.985 149.579 175.376 151.556Z" fill="#650000"/>
</g>
<g opacity="0.3">
<path opacity="0.3" d="M188.339 215.174L187.063 232.655C186.941 234.351 185.527 235.666 183.827 235.666H168.312C166.357 235.666 164.859 233.894 165.217 231.973C165.331 231.374 165.518 230.803 165.781 230.265C166.566 229.853 167.133 229.568 167.133 229.568C178.136 232.777 182.755 228.512 181.158 216.957C183.511 217.629 186.491 217.076 188.339 215.174Z" fill="#650000"/>
</g>
<path d="M180.501 172.507C181.22 173.397 181.648 174.589 181.531 175.893C181.477 176.54 181.273 177.202 180.925 177.796C180.577 178.387 180.094 178.909 179.526 179.285C178.394 180.055 177.008 180.301 175.765 180.075C174.521 179.853 173.396 179.152 172.769 178.162C172.649 177.975 172.706 177.725 172.893 177.606C172.997 177.541 173.117 177.528 173.225 177.562L173.246 177.568C174.224 177.868 175.1 177.964 175.912 177.869C176.719 177.779 177.443 177.51 178.008 177.104C178.573 176.693 178.974 176.162 179.269 175.442C179.41 175.08 179.521 174.671 179.6 174.219C179.676 173.766 179.713 173.279 179.777 172.743L179.78 172.716C179.806 172.493 180.009 172.333 180.232 172.359C180.342 172.371 180.437 172.428 180.501 172.507Z" fill="#650000"/>
<g opacity="0.6">
<g opacity="0.6">
<path opacity="0.6" d="M185.274 195.545C185.427 196.678 185.174 197.919 184.397 198.973C184.016 199.498 183.497 199.959 182.893 200.285C182.288 200.611 181.604 200.806 180.924 200.833C179.557 200.903 178.244 200.395 177.3 199.557C176.351 198.721 175.753 197.539 175.731 196.367C175.726 196.144 175.903 195.961 176.125 195.957C176.247 195.954 176.357 196.006 176.432 196.09L176.447 196.106C177.126 196.869 177.825 197.406 178.569 197.746C179.306 198.088 180.065 198.233 180.758 198.18C181.453 198.121 182.072 197.876 182.698 197.412C183.007 197.176 183.313 196.884 183.616 196.539C183.916 196.19 184.2 195.795 184.532 195.369L184.549 195.348C184.688 195.171 184.944 195.139 185.121 195.277C185.208 195.345 185.26 195.443 185.274 195.545Z" fill="#650000"/>
</g>
</g>
<g opacity="0.6">
<g opacity="0.6">
<path opacity="0.6" d="M193.645 85.4256C194.653 85.9676 195.509 86.9008 195.906 88.1488C196.107 88.7666 196.175 89.4559 196.084 90.1372C195.993 90.8171 195.749 91.4862 195.371 92.0528C194.626 93.2004 193.443 93.9632 192.21 94.2368C190.976 94.514 189.668 94.3039 188.706 93.6334C188.524 93.5064 188.479 93.2552 188.607 93.0726C188.676 92.973 188.783 92.9145 188.895 92.9023L188.916 92.9001C189.933 92.7983 190.779 92.5472 191.49 92.1451C192.2 91.7496 192.763 91.2206 193.126 90.6287C193.488 90.0311 193.652 89.3866 193.645 88.6078C193.635 88.2195 193.578 87.7994 193.477 87.3519C193.372 86.9044 193.218 86.4418 193.069 85.9228L193.061 85.8969C192.999 85.6803 193.124 85.4544 193.34 85.3924C193.445 85.362 193.555 85.3772 193.645 85.4256Z" fill="#650000"/>
</g>
</g>
<path d="M209.995 179.019C206.008 180.471 201.976 181.775 197.899 182.933C160.928 193.436 120.333 192.084 77.4882 183.394C67.4688 171.904 75.1331 159.602 75.1331 159.602C100.991 163.101 126.289 165.208 150.653 164.984C163.165 162.937 188.322 158.372 201.5 155.967C206.668 155.022 209.995 154.408 209.995 154.408C215.417 164.495 214.994 172.555 209.995 179.019Z" fill="#6D445B"/>
<g opacity="0.55">
<path opacity="0.55" d="M75.1322 161.888C100.99 165.386 126.288 167.494 150.652 167.269C163.164 165.223 188.321 160.657 201.499 158.252C206.667 157.307 209.994 156.693 209.994 156.693C212.354 161.082 213.605 165.086 213.857 168.743C214.159 164.39 212.942 159.508 209.994 154.025C209.994 154.025 206.667 154.639 201.499 155.584C188.321 157.989 163.164 162.555 150.652 164.601C126.288 164.826 100.99 162.719 75.1322 159.22C75.1322 159.22 71.9189 164.381 72.3758 171.138C72.7359 165.736 75.1322 161.888 75.1322 161.888Z" fill="white"/>
</g>
<g opacity="0.55">
<path opacity="0.55" d="M210.635 155.649C200.406 157.524 169.052 163.252 154.593 165.615C130.229 165.84 104.931 163.733 79.073 160.238C79.073 160.238 71.4086 172.536 81.4281 184.03C86.0394 184.964 90.624 185.814 95.1783 186.572C89.3285 185.665 83.4288 184.598 77.4873 183.394C67.4678 171.903 75.1322 159.601 75.1322 159.601C100.99 163.1 126.288 165.207 150.652 164.983C168.069 162.132 209.994 154.407 209.994 154.407C210.219 154.826 210.433 155.238 210.635 155.649Z" fill="white"/>
</g>
<path d="M141.34 191.701C121.516 191.701 100.216 189.366 77.2211 184.703C76.9339 184.644 76.6733 184.493 76.4806 184.272C70.9721 177.952 70.5867 171.389 71.2334 166.995C71.9299 162.263 73.9169 159.033 74.0014 158.898C74.2792 158.452 74.7953 158.213 75.3121 158.281C103.51 162.094 128.118 163.847 150.537 163.648C167.803 160.821 209.334 153.173 209.752 153.096C210.324 152.992 210.895 153.267 211.169 153.776C216.62 163.918 216.58 172.686 211.049 179.836C210.895 180.035 210.688 180.187 210.451 180.273C189.534 187.896 166.64 191.701 141.34 191.701ZM78.2013 182.179C129.675 192.56 172.525 191.16 209.17 177.9C213.686 171.831 213.72 164.621 209.269 155.897C202.881 157.072 166.629 163.721 150.868 166.298C150.801 166.309 150.733 166.315 150.665 166.315C128.327 166.524 103.85 164.798 75.8577 161.047C74.4792 163.728 70.6019 173.119 78.2013 182.179Z" fill="#4C0505"/>
<g opacity="0.3">
<path opacity="0.3" d="M126.973 189.971C136.196 187.838 135.1 165.322 127.292 164.961H149.751L157.007 163.916L178.337 166.64C178.337 166.64 186.152 174.805 191.961 169.031C191.961 169.031 185.911 179.263 176.088 174.436L168.332 173.648C168.332 173.648 168.719 187.062 162.854 189.387L143.116 189.972H126.973V189.971Z" fill="#650000"/>
</g>
<g opacity="0.3">
<path opacity="0.3" d="M209.995 179.019C206.008 180.471 201.976 181.775 197.899 182.933C207.404 177.132 201.5 155.966 201.5 155.966C206.668 155.021 209.995 154.407 209.995 154.407C215.417 164.495 214.994 172.555 209.995 179.019Z" fill="#650000"/>
</g>
<path d="M178.711 170.346L164.339 167.912C164.336 167.911 164.336 167.911 164.332 167.91L145.968 164.799L146.353 153.541L154.254 155.227L181.28 160.998C185.973 154.486 196.529 156.562 187.69 165.246C198.414 171.729 185.197 181.41 178.711 170.346Z" fill="#F44906"/>
<g opacity="0.55">
<path opacity="0.55" d="M191.115 160.338C189.342 159.106 185.41 159.887 182.797 162.922C182.417 163.358 181.846 163.575 181.279 163.46L155.152 158.102L153.619 157.787C153.682 157.108 153.839 156.394 154.102 155.646L154.283 155.684L181.355 161.234C184.887 156.247 191.856 156.209 191.115 160.338Z" fill="white"/>
</g>
<path d="M146.375 153.293C149.467 153.03 152.391 153.589 155.321 154.117C158.243 154.683 161.131 155.417 164.048 156.007L181.543 159.594L180.187 160.129C181.238 158.648 182.653 157.42 184.307 156.618C185.134 156.219 186.021 155.92 186.968 155.777C187.913 155.643 188.929 155.632 189.996 156.01C190.524 156.205 191.069 156.519 191.516 157.002C191.964 157.483 192.264 158.125 192.364 158.74C192.47 159.357 192.419 159.936 192.304 160.447C192.19 160.963 192.013 161.425 191.813 161.856C191.408 162.714 190.903 163.45 190.367 164.133C189.829 164.815 189.256 165.444 188.661 166.039L188.399 163.948C189.354 164.52 190.282 165.19 191.109 166.042C191.923 166.898 192.66 167.961 192.985 169.265C193.143 169.912 193.198 170.607 193.104 171.287C193.012 171.967 192.791 172.629 192.46 173.212C191.803 174.389 190.774 175.256 189.65 175.806C187.384 176.926 184.683 176.761 182.543 175.702C181.464 175.181 180.509 174.463 179.7 173.644C178.883 172.827 178.213 171.907 177.634 170.953L178.55 171.583L161.238 168.573L156.909 167.821C155.466 167.568 154.024 167.314 152.572 167.119C151.119 166.926 149.674 166.691 148.25 166.332C147.537 166.159 146.831 165.95 146.133 165.684C145.436 165.419 144.746 165.114 144.077 164.688C143.853 164.545 143.786 164.247 143.929 164.023C144 163.912 144.11 163.839 144.229 163.811C145.003 163.637 145.755 163.582 146.501 163.568C147.247 163.552 147.983 163.595 148.713 163.672C150.175 163.814 151.614 164.081 153.047 164.39C154.481 164.696 155.923 164.943 157.366 165.193L161.695 165.945L179.007 168.955C179.403 169.023 179.731 169.267 179.924 169.585C180.881 171.182 182.156 172.559 183.703 173.3C185.225 174.054 187.038 174.122 188.477 173.41C189.189 173.064 189.789 172.532 190.131 171.911C190.481 171.291 190.568 170.603 190.396 169.908C190.227 169.211 189.78 168.512 189.186 167.891C188.584 167.269 187.84 166.722 187.038 166.242C186.404 165.863 186.197 165.041 186.576 164.408C186.631 164.315 186.703 164.225 186.776 164.151C187.837 163.084 188.829 161.914 189.396 160.724C189.675 160.142 189.809 159.544 189.736 159.199C189.705 159.025 189.647 158.917 189.552 158.808C189.455 158.702 189.295 158.595 189.074 158.513C188.628 158.348 187.995 158.317 187.364 158.414C186.728 158.509 186.08 158.723 185.468 159.018C184.24 159.613 183.162 160.544 182.363 161.671C182.047 162.115 181.508 162.308 181.007 162.206L163.512 158.621C160.597 158.016 157.654 157.555 154.745 156.925C151.843 156.258 148.935 155.622 146.196 154.164C145.97 154.043 145.884 153.762 146.005 153.537C146.081 153.394 146.225 153.307 146.375 153.293Z" fill="#4C0505"/>
<g opacity="0.3">
<path opacity="0.3" d="M164.383 167.95L145.994 164.989L146.287 153.729L154.202 155.35C151.835 161.712 156.458 165.453 164.383 167.95Z" fill="#650000"/>
</g>
</svg>
