<svg width="676" height="284" viewBox="0 0 676 284" fill="none" xmlns="http://www.w3.org/2000/svg">
<g filter="url(#filter0_d)">
<path d="M113.641 78.3184C113.641 86.2936 111.281 92.4622 106.561 96.8242C101.873 101.154 95.1999 103.318 86.541 103.318H81.1211V127H61.834V55.6133H86.541C95.5579 55.6133 102.329 57.5827 106.854 61.5215C111.378 65.4603 113.641 71.0592 113.641 78.3184ZM81.1211 87.5957H84.6367C87.5339 87.5957 89.8288 86.7819 91.5215 85.1543C93.2467 83.5267 94.1094 81.2806 94.1094 78.416C94.1094 73.5983 91.4401 71.1895 86.1016 71.1895H81.1211V87.5957Z" fill="white"/>
<path d="M144.305 101.023V127H125.018V55.6133H148.406C167.807 55.6133 177.508 62.6445 177.508 76.707C177.508 84.9753 173.471 91.3717 165.398 95.8965L186.199 127H164.324L149.188 101.023H144.305ZM144.305 86.5215H147.918C154.656 86.5215 158.025 83.543 158.025 77.5859C158.025 72.6706 154.721 70.2129 148.113 70.2129H144.305V86.5215Z" fill="white"/>
<path d="M253.387 55.6133V98.582C253.387 107.924 250.734 115.167 245.428 120.311C240.154 125.421 232.537 127.977 222.576 127.977C212.843 127.977 205.356 125.486 200.115 120.506C194.907 115.525 192.303 108.364 192.303 99.0215V55.6133H211.688V97.5078C211.688 102.553 212.632 106.215 214.52 108.494C216.408 110.773 219.191 111.912 222.869 111.912C226.808 111.912 229.656 110.789 231.414 108.543C233.204 106.264 234.1 102.553 234.1 97.4102V55.6133H253.387Z" fill="white"/>
<path d="M310.76 127H268.377V55.6133H310.76V71.0918H287.664V82.3223H309.051V97.8008H287.664V111.277H310.76V127Z" fill="white"/>
<path d="M323.26 55.6133H348.162C357.863 55.6133 365.057 57.0618 369.744 59.959C374.464 62.8236 376.824 67.2995 376.824 73.3867C376.824 77.3906 375.799 80.8086 373.748 83.6406C371.697 86.4727 368.995 88.2956 365.643 89.1094V89.5977C370.07 90.7695 373.276 92.7227 375.262 95.457C377.247 98.1914 378.24 101.74 378.24 106.102C378.24 112.579 375.799 117.69 370.916 121.434C366.066 125.145 359.441 127 351.043 127H323.26V55.6133ZM342.547 83.0059H348.357C351.124 83.0059 353.257 82.4362 354.754 81.2969C356.284 80.1576 357.049 78.4648 357.049 76.2188C357.049 72.2148 354.021 70.2129 347.967 70.2129H342.547V83.0059ZM342.547 97.1172V112.107H349.334C355.356 112.107 358.367 109.568 358.367 104.49C358.367 102.114 357.553 100.291 355.926 99.0215C354.331 97.752 352.003 97.1172 348.943 97.1172H342.547Z" fill="white"/>
<path d="M434.441 127L430.926 113.621H407.732L404.119 127H382.928L406.219 55.3203H431.951L455.535 127H434.441ZM426.922 97.8008L423.846 86.082C423.13 83.4779 422.251 80.1087 421.209 75.9746C420.2 71.8405 419.533 68.8783 419.207 67.0879C418.914 68.748 418.328 71.4824 417.449 75.291C416.603 79.0996 414.699 86.6029 411.736 97.8008H426.922Z" fill="white"/>
<path d="M549.871 89.793C549.871 101.707 546.583 110.887 540.008 117.332C533.465 123.777 524.253 127 512.371 127H489.275V55.6133H513.982C525.441 55.6133 534.279 58.543 540.496 64.4023C546.746 70.2617 549.871 78.7253 549.871 89.793ZM529.852 90.4766C529.852 83.9336 528.549 79.0833 525.945 75.9258C523.374 72.7682 519.451 71.1895 514.178 71.1895H508.562V111.18H512.859C518.719 111.18 523.016 109.487 525.75 106.102C528.484 102.684 529.852 97.4753 529.852 90.4766Z" fill="white"/>
<path d="M605.096 127H562.713V55.6133H605.096V71.0918H582V82.3223H603.387V97.8008H582V111.277H605.096V127Z" fill="white"/>
<path d="M131.463 235V163.613H150.848V235H131.463Z" fill="white"/>
<path d="M197.43 235L182.83 183.584H182.391C183.074 192.34 183.416 199.144 183.416 203.994V235H166.326V163.613H192.01L206.902 214.297H207.293L221.893 163.613H247.625V235H229.9V203.701C229.9 202.074 229.917 200.267 229.949 198.281C230.014 196.296 230.242 191.429 230.633 183.682H230.193L215.789 235H197.43Z" fill="white"/>
<path d="M306.805 235L303.289 221.621H280.096L276.482 235H255.291L278.582 163.32H304.314L327.898 235H306.805ZM299.285 205.801L296.209 194.082C295.493 191.478 294.614 188.109 293.572 183.975C292.563 179.84 291.896 176.878 291.57 175.088C291.277 176.748 290.691 179.482 289.812 183.291C288.966 187.1 287.062 194.603 284.1 205.801H299.285Z" fill="white"/>
<path d="M364.324 193.203H395.135V231.68C386.769 234.544 377.573 235.977 367.547 235.977C356.544 235.977 348.032 232.786 342.01 226.406C336.02 220.026 333.025 210.928 333.025 199.111C333.025 187.588 336.313 178.62 342.889 172.207C349.464 165.794 358.676 162.588 370.525 162.588C375.018 162.588 379.249 163.011 383.221 163.857C387.225 164.704 390.708 165.778 393.67 167.08L387.566 182.217C382.423 179.678 376.775 178.408 370.623 178.408C364.992 178.408 360.63 180.247 357.537 183.926C354.477 187.572 352.947 192.796 352.947 199.6C352.947 206.273 354.331 211.367 357.098 214.883C359.897 218.366 363.917 220.107 369.158 220.107C372.023 220.107 374.66 219.831 377.068 219.277V208.096H364.324V193.203Z" fill="white"/>
<path d="M452.068 235H409.686V163.613H452.068V179.092H428.973V190.322H450.359V205.801H428.973V219.277H452.068V235Z" fill="white"/>
<path d="M532.537 235H507.244L481.17 184.707H480.73C481.349 192.617 481.658 198.656 481.658 202.822V235H464.568V163.613H489.764L515.74 213.223H516.033C515.577 206.029 515.35 200.251 515.35 195.889V163.613H532.537V235Z" fill="white"/>
</g>
<defs>
<filter id="filter0_d" x="61.834" y="24.3203" width="613.262" height="250.656" filterUnits="userSpaceOnUse" color-interpolation-filters="sRGB">
<feFlood flood-opacity="0" result="BackgroundImageFix"/>
<feColorMatrix in="SourceAlpha" type="matrix" values="0 0 0 0 0 0 0 0 0 0 0 0 0 0 0 0 0 0 127 0"/>
<feOffset dx="35" dy="4"/>
<feGaussianBlur stdDeviation="17.5"/>
<feColorMatrix type="matrix" values="0 0 0 0 0 0 0 0 0 0 0 0 0 0 0 0 0 0 0.25 0"/>
<feBlend mode="normal" in2="BackgroundImageFix" result="effect1_dropShadow"/>
<feBlend mode="normal" in="SourceGraphic" in2="effect1_dropShadow" result="shape"/>
</filter>
</defs>
</svg>
