<svg width="290" height="290" viewBox="0 0 290 290" fill="none" xmlns="http://www.w3.org/2000/svg">
<rect width="290" height="290" fill="#C4C4C4"/>
<g opacity="0.2">
<path d="M204 96.5385V91.1538C203.988 86.8734 202.282 82.7718 199.255 79.7451C196.228 76.7183 192.127 75.0124 187.846 75H80.1538C75.8734 75.0124 71.7718 76.7183 68.7451 79.7451C65.7183 82.7718 64.0124 86.8734 64 91.1538V177.308C64.0124 181.588 65.7183 185.69 68.7451 188.716C71.7718 191.743 75.8734 193.449 80.1538 193.462H85.5385" stroke="black" stroke-width="5" stroke-linejoin="round"/>
<path d="M210.061 101.923H106.4C97.8523 101.923 90.9229 108.853 90.9229 117.401V199.523C90.9229 208.071 97.8523 215 106.4 215H210.061C218.609 215 225.538 208.071 225.538 199.523V117.401C225.538 108.853 218.609 101.923 210.061 101.923Z" stroke="black" stroke-width="5" stroke-linejoin="round"/>
<path d="M184.119 143.045C189.838 143.045 194.474 138.442 194.474 132.763C194.474 127.085 189.838 122.482 184.119 122.482C178.4 122.482 173.764 127.085 173.764 132.763C173.764 138.442 178.4 143.045 184.119 143.045Z" stroke="black" stroke-width="5" stroke-miterlimit="10"/>
<path d="M173.762 184.095L144.432 155.022C142.558 153.169 140.05 152.097 137.415 152.022C134.78 151.946 132.215 152.873 130.237 154.615L90.9229 189.302" stroke="black" stroke-width="5" stroke-linecap="round" stroke-linejoin="round"/>
<path d="M147.877 215L187.787 175.379C189.624 173.568 192.066 172.501 194.643 172.385C197.219 172.269 199.748 173.111 201.74 174.75L225.54 194.441" stroke="black" stroke-width="5" stroke-linecap="round" stroke-linejoin="round"/>
</g>
</svg>
