<svg width="120" height="120" viewBox="0 0 120 120" fill="none" xmlns="http://www.w3.org/2000/svg">
<path d="M120 0H0V120H120V0Z" fill="white"/>
<path d="M34.3445 26.0292C31.0471 25.9271 27.7599 26.6723 24.8096 28.4997C10.6195 37.3098 17.4899 55.8592 24.636 66.8744C34.5793 82.1872 48.5753 95.9996 64.5113 104.912C68.36 107.066 73.1989 100.665 75.5162 98.0822C79.1099 94.0701 82.1418 89.5887 85.0615 85.0664C92.6364 73.2956 102.11 58.0846 99.9357 43.4148C99.0068 37.6263 95.7498 31.3989 90.2066 29.0816C84.1632 26.5702 77.5682 26.2027 71.4941 28.8468C65.3894 31.5011 60.5708 36.9933 58.7228 43.4247C54.8844 37.8203 50.4643 32.3994 44.5735 29.0407C41.4295 27.2338 37.887 26.1415 34.3445 26.0292Z" fill="#CC3A4F"/>
<path d="M29.8014 71.7236C30.271 70.6821 30.7508 69.641 31.2408 68.6098C31.4858 68.0893 31.7308 67.5786 31.9759 67.0581C32.6292 65.6698 31.6185 67.7624 32.2413 66.5069C33.2519 64.4549 34.2728 62.4133 35.3243 60.3815C37.4783 56.2469 39.7447 52.1636 42.1231 48.1515C44.4507 44.2213 46.8805 40.352 49.4022 36.5442C50.668 34.6453 51.9544 32.7567 53.2711 30.8885C53.9245 29.9595 54.5986 29.0305 55.2619 28.1015C55.5681 27.6728 55.4866 27.7953 55.0066 28.4486C55.1804 28.2138 55.3438 27.9892 55.5172 27.7544C55.9153 27.2134 56.3133 26.6825 56.7114 26.1517C57.6714 24.8654 58.7535 23.3851 58.876 21.7006C58.9575 20.5267 58.5085 19.1281 57.3035 18.6585C54.2514 17.4538 45.2982 16.9026 43.5218 19.2812C40.7758 22.9563 37.999 26.2027 36.1104 30.3679C33.9257 35.1762 31.5369 39.8926 28.9643 44.5068C28.1578 45.9567 27.2697 47.4571 25.8813 48.3658C25.1973 48.8048 24.4214 49.0908 23.7885 49.601C23.176 50.1013 22.7574 50.7956 22.349 51.4693C20.4196 54.6339 17.6122 58.0233 16.5199 61.5861C15.5194 64.8327 14.3964 67.7421 12.9774 70.8762C12.4874 71.9582 12.4568 73.6937 13.2633 74.6533C14.1106 75.6538 20.4911 78.9 21.665 78.6551C25.3402 77.8792 29.8014 71.7236 29.8014 71.7236Z" fill="#E27920"/>
<path d="M39.8982 80.8189C40.3678 79.7778 40.8476 78.7367 41.3376 77.7055C41.5826 77.185 41.8275 76.6744 42.0725 76.1538C42.7259 74.7655 41.7154 76.8581 42.3382 75.6026C43.3486 73.5506 44.3695 71.5086 45.4209 69.4773C47.5751 65.3426 49.8415 61.2593 52.22 57.2472C54.5475 53.317 56.9773 49.4476 59.499 45.6399C60.7648 43.741 62.0513 41.8524 63.368 39.9842C64.0213 39.0552 64.695 38.1262 65.3587 37.1972C65.6649 36.7685 65.5834 36.891 65.1034 37.5444C65.2669 37.3095 65.4402 37.085 65.614 36.8501C66.0121 36.3091 66.4102 35.7782 66.8082 35.2474C67.7678 33.9611 68.8503 32.4808 68.9728 30.7964C69.0543 29.6224 68.6049 28.2238 67.4004 27.7542C64.3482 26.5495 55.395 25.9983 53.6186 28.3769C51.8016 30.8168 49.6578 33.2056 47.9835 35.717C46.2886 38.2487 45.2475 41.5255 43.7571 44.221C42.1238 47.161 40.5005 50.101 38.8671 53.0513C37.8666 54.8584 36.8662 56.6654 35.682 58.3495C34.8857 59.4829 33.9975 60.565 33.3238 61.7799C32.0783 64.0462 31.5883 66.7309 29.9753 68.7424C28.7298 70.2941 27.27 71.4577 26.2899 73.2237C25.0955 75.3879 24.1155 77.7055 23.0946 79.9615C22.6046 81.0436 22.574 82.779 23.3805 83.7386C24.2278 84.7392 30.6082 87.9858 31.7823 87.7404C35.4267 86.9749 39.8982 80.8189 39.8982 80.8189Z" fill="#F7E44D"/>
<path d="M51.0468 92.2428C51.6488 90.8955 52.2612 89.5478 52.884 88.2005C53.1902 87.5264 53.5068 86.8631 53.8233 86.1894C54.6604 84.3923 53.3743 87.1081 54.1601 85.4748C55.4466 82.81 56.7633 80.1663 58.111 77.5321C60.8673 72.1623 63.7767 66.8744 66.8189 61.678C69.7999 56.5838 72.9137 51.5612 76.1499 46.6304C77.7728 44.1601 79.4268 41.7199 81.1113 39.3006C81.9484 38.0857 82.8058 36.8913 83.6636 35.6867C84.0617 35.1354 83.9491 35.2885 83.3367 36.1359C83.551 35.8398 83.7654 35.5438 83.9901 35.2375C84.5007 34.5433 85.0109 33.8491 85.5215 33.1549C86.7567 31.4807 88.145 29.5717 88.2881 27.387C88.3899 25.8659 87.8081 24.0487 86.2564 23.426C82.3262 21.8539 72.8524 23.2933 70.5757 26.3763C68.381 29.3471 65.6963 32.3586 63.8073 35.4927C62.8477 37.0751 62.5005 39.2802 61.7963 41.0054C61.0308 42.9042 59.4484 43.9047 58.4888 45.7118C57.468 47.631 56.3243 49.6114 54.8032 51.1631C53.3437 52.6536 52.2716 54.5934 51.0058 56.247C50.2502 57.2372 49.699 58.3602 49.1578 59.4832C46.2687 65.3533 43.1553 71.1009 39.8169 76.7256C36.6012 82.1467 34.0286 87.4958 31.4458 93.2641C30.8231 94.6627 34.8249 98.7663 35.8764 100.012C36.9687 101.319 39.0819 101.523 40.603 101.206C45.3194 100.226 49.0965 96.6021 51.0468 92.2428Z" fill="#9ED93C"/>
<path d="M60.3156 102.553C60.7852 101.512 61.2648 100.471 61.7552 99.4401C62.0001 98.9191 62.2451 98.4089 62.4901 97.8884C63.1435 96.4997 62.1326 98.5927 62.7553 97.3368C63.7662 95.2848 64.787 93.2432 65.8385 91.2118C67.9927 87.0772 78.6504 75.1736 81.0189 71.1619C83.3465 67.2313 91.2686 48.8047 93.7898 45.0069C95.056 43.1084 96.3421 41.2196 97.6592 39.3514C98.3126 38.4224 98.9862 37.4934 99.6499 36.5644C99.9561 36.1356 99.8742 36.2582 99.3946 36.9115C99.5581 36.6767 99.7315 36.4521 99.9048 36.2173C100.303 35.6763 100.701 35.1454 101.099 34.6145C102.059 33.3283 103.141 31.848 103.264 30.1635C103.346 28.9896 102.896 27.5909 101.692 27.1214C98.639 25.9167 89.6862 25.3654 87.9098 27.7441C86.6846 29.3775 85.7556 31.2661 84.5204 32.8484C82.989 34.7881 81.2639 36.4827 79.8549 38.5551C77.109 42.5874 74.853 46.9571 71.831 50.8058C69.6566 53.572 67.084 56.0531 65.3995 59.1358C64.2868 61.1676 63.5924 63.4033 62.7963 65.5778C60.3768 72.1927 56.9875 78.4405 52.761 84.0656C48.9123 89.1801 46.1457 95.8463 43.4812 101.706C42.9913 102.789 42.9607 104.524 43.7672 105.484C44.6146 106.484 50.9949 109.73 52.1688 109.485C55.8545 108.709 60.3156 102.553 60.3156 102.553Z" fill="#6ABFEF"/>
<path d="M71.4736 110.986C71.9433 109.945 72.4233 108.904 72.9132 107.873C73.1582 107.352 73.4031 106.841 73.6481 106.321C74.3015 104.933 73.291 107.025 73.9138 105.77C74.9242 103.718 75.9451 101.676 76.9965 99.6444C79.1507 95.5097 81.4171 91.4264 83.7956 87.4143C86.1231 83.4841 102.427 57.2372 104.958 53.4398C106.224 51.5409 107.51 49.6523 108.828 47.7841C109.481 46.8551 110.155 45.9261 110.818 44.9972C111.125 44.5685 111.043 44.691 110.563 45.3443C110.726 45.1093 110.9 44.8846 111.073 44.65C111.472 44.1088 111.87 43.5779 112.268 43.0474C113.227 41.7609 114.309 40.2806 114.432 38.5962C114.514 37.4222 114.065 36.0236 112.86 35.554C109.807 34.3494 100.855 33.7981 99.0782 36.1767C97.118 38.8105 95.2398 41.4957 93.3815 44.211C91.5951 46.8344 89.0532 49.5911 88.1445 52.623C86.256 58.9217 82.795 64.6797 77.9867 69.1507C76.7416 70.3147 75.3736 71.4377 74.659 72.9895C74.2402 73.8981 74.0768 74.9086 73.7913 75.8682C73.3113 77.4915 72.4742 78.982 71.6573 80.4621C69.9525 83.5147 68.2477 86.5668 66.5429 89.6297C64.634 93.0493 61.8264 95.8263 60.1013 99.2359C58.2637 102.86 56.3445 106.433 54.66 110.139C54.17 111.221 54.1394 112.956 54.9459 113.916C55.7929 114.917 62.1736 118.163 63.3475 117.918C67.0125 117.142 71.4736 110.986 71.4736 110.986Z" fill="#7660C4"/>
<path d="M46.8714 12.9416C46.5751 13.4623 46.708 13.9421 46.8507 14.4934C46.9836 15.0038 47.106 15.5244 47.2389 16.0349C47.4838 17.0047 47.7288 17.9541 48.0553 18.8933C48.3718 19.8325 48.6681 20.7819 49.0252 21.7109C49.4233 22.742 49.7502 23.9058 50.6485 24.6306C51.1691 25.0492 52.1084 24.9879 52.2718 24.2019C52.5168 23.0585 52.139 22.0376 51.7716 20.9555C51.4447 19.9755 51.0569 19.026 50.6895 18.0562C50.3117 17.0557 49.8727 16.0859 49.4133 15.1161C48.9946 14.2381 48.678 12.9723 47.7185 12.5843C47.4226 12.4822 47.0245 12.6762 46.8714 12.9416Z" fill="#7660C4"/>
<path d="M58.7236 2.37537C58.3764 2.92664 58.417 3.62083 58.417 4.25376C58.417 4.94798 58.417 5.65238 58.4273 6.34656C58.4273 7.78598 58.4476 9.22544 58.4886 10.6546C58.5804 13.4927 58.417 16.443 59.1829 19.1993C59.4688 20.2407 61.3061 20.4142 61.4695 19.1993C61.6739 17.6987 61.6433 16.3409 61.4898 14.83C61.3471 13.3906 61.2043 11.9511 61.0512 10.5219C60.908 9.12332 60.7346 7.73496 60.5509 6.33634C60.459 5.5911 60.3568 4.85608 60.265 4.11085C60.1731 3.42687 60.1222 2.78372 59.6728 2.24265C59.4175 1.93639 58.9173 2.06911 58.7236 2.37537Z" fill="#9ED93C"/>
<path d="M71.2591 10.9713C70.1771 12.7272 69.0338 14.4627 68.0535 16.2798C67.5838 17.1578 67.1042 18.0357 66.6346 18.9239C66.114 19.8937 65.5525 20.8533 65.236 21.915C64.9298 22.9564 66.4302 23.9772 67.1655 23.038C67.8594 22.1601 68.3191 21.1902 68.8091 20.1898C69.2684 19.2608 69.7277 18.3318 70.187 17.4028C71.1263 15.504 71.8819 13.5235 72.6983 11.5736C73.0662 10.7263 71.7184 10.2363 71.2591 10.9713Z" fill="#5FA8C6"/>
<path d="M47.3103 41.2605C41.2564 36.6972 33.7938 33.0527 26.1373 32.5525C22.2375 32.2973 18.3378 33.1241 15.2752 35.6457C12.6311 37.8202 10.9058 41.0461 10.2525 44.3842C8.6395 52.6332 13.407 60.6161 17.6844 67.2724C22.1252 74.1939 27.3215 80.6458 33.069 86.5262C38.9288 92.5084 45.4011 97.8881 52.3226 102.584C53.9558 103.687 55.6611 104.963 57.6415 105.32C59.4485 105.647 61.1327 105.086 62.5723 103.983C64.2361 102.707 65.5636 100.982 66.9415 99.4092C68.4216 97.735 69.8815 96.0509 71.3414 94.356C77.1502 87.5673 82.7753 80.5436 87.3895 72.8768C91.5651 65.9553 96.3936 57.278 94.0967 48.9273C93.188 45.6198 91.1976 42.5979 88.3288 40.6786C85.0007 38.4429 80.8152 38.106 76.9665 38.8513C73.8527 39.4536 71.127 40.8624 68.4423 42.4858C65.6041 44.1906 62.8375 46.0076 60.1938 47.9983C59.2135 48.7332 58.3458 49.6316 57.3758 50.3462C56.6918 50.8464 57.3556 52.0105 58.0499 51.4998C58.9276 50.8568 59.979 50.3768 60.8981 49.7847C62.1229 48.9885 63.3481 48.2023 64.563 47.3958C66.9721 45.7829 69.4222 44.1906 71.9848 42.8226C78.0179 39.5863 86.3178 39.3311 90.4421 45.6504C94.9747 52.6026 91.6263 60.9327 88.0942 67.5174C84.2045 74.7451 79.345 81.4013 74.1386 87.7307C71.5557 90.8851 68.871 93.9579 66.1656 97.0104C64.8589 98.4802 63.5931 100.032 62.1945 101.41C60.6936 102.881 59.0298 103.677 56.9778 102.809C55.2729 102.094 53.7212 100.879 52.1898 99.8383C50.5872 98.7459 49.0152 97.6125 47.4734 96.4489C44.36 94.1011 41.3585 91.5893 38.4796 88.9456C32.8853 83.8001 27.7502 78.1448 23.2584 72.0091C21.0737 69.0281 19.032 65.9454 17.1434 62.7703C15.0404 59.2382 13.1007 55.5219 12.233 51.4796C10.7935 44.7724 13.5397 36.8401 20.696 34.829C27.7298 32.8587 35.6212 36.1766 41.7874 39.3311C43.4923 40.1988 45.1458 41.1686 46.7488 42.2305C47.3612 42.6389 47.8718 41.6892 47.3103 41.2605Z" fill="#2D0404"/>
<path d="M55.232 47.5593C55.3032 47.1919 55.2217 46.8956 55.0073 46.6101C54.8439 46.3957 54.6804 46.1913 54.4967 45.9973C54.4458 45.9464 54.0887 45.5276 54.0581 45.538C54.1293 45.6402 54.15 45.6505 54.109 45.5992C54.0987 45.5789 54.0784 45.5582 54.068 45.5483C54.0374 45.5073 53.9964 45.4564 53.9658 45.4155C53.9046 45.334 53.8433 45.252 53.7821 45.1705C53.67 45.0277 53.5781 44.8846 53.4353 44.7724C53.2922 44.6599 53.1593 44.5581 53.0166 44.4559C52.986 44.4356 52.8738 44.3334 52.986 44.4356C53.1084 44.5477 52.9553 44.405 52.9247 44.3843C52.8432 44.3131 52.7513 44.2519 52.6694 44.1906C52.537 44.0884 52.4042 43.966 52.2713 43.8741C52.3326 43.9047 52.4042 43.9759 52.3123 43.8944C52.2713 43.8534 52.2204 43.8128 52.1795 43.7719C51.9651 43.5778 51.7508 43.3738 51.5058 43.2207C51.0771 42.9451 50.485 43.0982 50.1887 43.486C49.8825 43.884 49.9131 44.4559 50.2707 44.8233C50.4134 44.9764 50.6075 45.0989 50.7705 45.2317C50.934 45.3646 51.0974 45.5073 51.2505 45.6604C51.5977 46.0076 51.9039 46.416 52.3222 46.6813C52.4857 46.7835 52.6491 46.8956 52.8126 46.9978C52.9044 47.0591 52.6798 46.8753 52.8022 46.9978C52.8329 47.0284 52.8738 47.0591 52.9044 47.0897C52.986 47.1613 53.0576 47.2328 53.1391 47.304C53.3331 47.4877 53.5371 47.6512 53.7515 47.8146C53.8537 47.8962 53.5781 47.6818 53.7618 47.8246C53.8433 47.8862 53.9149 47.9475 53.9964 47.988C54.2418 48.1105 54.4562 48.1105 54.7214 48.0699C54.9461 48.0393 55.1807 47.7939 55.232 47.5593Z" fill="#2D0404"/>
<path d="M57.7025 51.6634C58.4171 51.6634 58.4171 50.5503 57.7025 50.5503C56.9878 50.5503 56.9878 51.6634 57.7025 51.6634Z" fill="black"/>
<path d="M51.6684 5.61171C51.7296 5.9792 51.7094 6.34673 51.7603 6.71426C51.8012 7.02051 51.8521 7.33698 51.8931 7.64323C51.9953 8.31701 52.0768 8.99079 52.1993 9.66457C52.4443 11.0019 52.6689 12.3392 52.9445 13.6664C53.1179 14.4933 54.3841 14.1462 54.2103 13.3193C53.9347 11.9922 53.6182 10.6752 53.3223 9.35832C53.1692 8.69476 52.9855 8.0516 52.8117 7.39822C52.7302 7.09197 52.6586 6.79591 52.5771 6.48966C52.4749 6.14257 52.3218 5.80566 52.2299 5.44839C52.1484 5.08086 51.6072 5.24418 51.6684 5.61171Z" fill="#2D0404"/>
<path d="M75.0779 20.884C73.6585 21.6089 72.3112 22.4868 70.9941 23.375C69.6774 24.2632 68.3194 25.1309 67.1148 26.162C66.6659 26.5499 67.2373 27.2237 67.7272 26.9582C69.1362 26.2028 70.4227 25.2432 71.729 24.3244C73.0259 23.4158 74.3223 22.4766 75.5065 21.4251C75.8128 21.1597 75.4246 20.7105 75.0779 20.884Z" fill="#2D0404"/>
</svg>
