<svg width="290" height="290" viewBox="0 0 290 290" fill="none" xmlns="http://www.w3.org/2000/svg">
<g clip-path="url(#clip0)">
<rect width="290" height="290" fill="white"/>
<path d="M265.084 114.611C264.786 131.257 258.768 149.583 254.782 165.009C251.719 177.019 248.167 188.893 244.209 200.632C241.824 207.844 239.221 215.001 236.456 222.104C235.913 223.486 234.558 224.381 233.067 224.327L51.9965 217.034C50.5867 216.953 49.3125 216.058 48.8516 214.73C47.2792 210.392 45.7882 206.027 44.3513 201.635C36.1369 176.287 30.3081 150.207 26.9464 123.747C26.5669 120.711 30.0641 118.732 32.5041 120.575C47.0353 131.582 60.1296 144.487 71.4075 158.801C73.1426 161.024 76.6669 160.292 77.426 157.581L105.512 58.0043C106.326 55.1306 110.148 54.5884 111.775 57.0826L159.706 131.663C160.98 133.615 163.718 133.805 165.237 132.07L183.97 110.815C190.287 103.604 196.522 94.4678 203.815 87.9071C205.441 86.4431 207.99 86.8227 209.155 88.7204C212.951 95.0371 215.011 107.454 216.584 112.74C219.213 121.443 221.545 130.199 223.605 139.01C224.175 141.369 226.967 142.48 228.946 141.071C231.278 139.417 233.284 137.085 235.209 134.917C242.61 126.539 250.689 118.813 259.391 111.791C261.723 109.948 265.111 111.629 265.084 114.611Z" fill="#F7E44D"/>
<path d="M112.208 68.9028C116.926 68.3064 120.857 64.782 122.7 60.4986C124.815 55.6187 122.971 50.4948 119.772 46.5096C118.851 45.371 117.82 44.2866 116.573 43.5275C111.314 40.3013 103.642 43.5275 100.443 48.1905C97.596 52.3112 97.2164 58.0315 99.6564 62.4234C102.069 66.7882 107.247 69.5263 112.208 68.9028Z" fill="#6ABFEF"/>
<path d="M40.2846 117.214C38.7122 113.31 34.8625 110.571 30.7689 109.921C26.1601 109.162 20.9007 110.68 18.2981 114.746C16.7799 117.105 15.9395 119.979 16.2648 122.771C16.6986 126.458 19.4909 129.495 22.4731 131.447C25.7263 133.561 30.0098 134.239 33.6426 132.775C39.4713 130.443 42.6161 123.042 40.2846 117.214Z" fill="#9ED93C"/>
<path d="M218.264 82.5121C217.126 78.5811 214.143 75.9785 210.185 75.2737C208.396 74.9483 206.525 74.7043 204.763 75.1923C203.489 75.5448 202.35 76.2496 201.266 77.0087C197.525 79.6655 193.973 82.8104 193.404 87.5818C192.862 92.0279 194.407 96.7993 197.823 99.7815C202.052 103.468 208.965 103.821 213.276 100.215C216.068 97.8837 217.559 94.3323 218.291 90.7808C218.861 88.0427 219.023 85.169 218.264 82.5121Z" fill="#7660C4"/>
<path d="M264.893 126.323C269.041 125.97 272.593 122.798 273.785 118.894C275.141 114.448 274.002 111.005 270.071 108.213C267.523 106.396 264.351 105.258 261.26 105.773C258.441 106.234 255.974 108.023 254.185 110.273C252.477 112.442 252.287 114.963 252.965 117.566C254.347 122.717 259.552 126.756 264.893 126.323Z" fill="#E27920"/>
<path d="M46.8714 131.094C57.5529 139.092 67.5566 148.96 76.1235 159.153C77.235 160.482 79.8376 159.804 80.1359 158.096C82.5216 144.297 85.829 130.823 89.8143 117.403C93.7995 104.065 99.0047 90.8892 102.122 77.334C102.421 75.9785 100.36 74.9212 99.7638 76.3309C94.2604 89.0457 90.248 102.574 86.073 115.749C81.8438 129.142 77.5875 142.887 75.5271 156.822C76.8555 156.469 78.1839 156.117 79.5394 155.764C74.9036 150.478 69.9423 145.49 64.5745 140.962C59.288 136.516 53.7303 132.965 47.9016 129.386C46.763 128.708 45.8954 130.362 46.8714 131.094Z" fill="#2D0404"/>
<path d="M124.407 76.0328C134.275 93.1395 144.875 109.839 155.584 126.404C156.858 128.383 158.159 130.389 159.434 132.368C160.355 133.805 161.25 135.513 162.633 136.57C165.94 139.092 168.597 136.597 170.603 133.886C173.341 130.145 175.971 126.323 178.546 122.473C181.312 118.325 184.348 114.258 186.436 109.704C187.113 108.267 185.405 106.749 184.158 107.942C178.248 113.581 173.585 120.873 168.814 127.488C168.217 128.329 166.374 131.962 165.479 132.233C165.777 132.639 165.777 132.612 165.398 132.178C165.045 131.772 164.72 131.311 164.449 130.85C163.88 130.037 163.337 129.196 162.795 128.383C160.382 124.777 157.97 121.145 155.503 117.539C145.824 103.279 136.037 89.0729 125.708 75.2737C125.166 74.4875 123.919 75.1653 124.407 76.0328Z" fill="#2D0404"/>
<path d="M217.829 109.297C219.51 114.719 221.164 120.168 222.845 125.591C223.685 128.302 224.526 131.013 225.339 133.724C226.179 136.435 226.83 139.281 227.887 141.884C228.701 143.89 230.761 145.273 232.876 144.053C233.933 143.429 234.665 142.318 235.424 141.396C236.346 140.284 237.24 139.146 238.162 138.007C241.795 133.453 245.509 128.979 248.464 123.937C249.169 122.744 247.57 121.605 246.594 122.5C242.934 125.807 239.843 129.522 236.698 133.263C235.126 135.133 233.553 137.004 232.035 138.929C231.981 139.01 230.842 140.257 230.897 140.339C231.656 140.691 231.927 140.664 231.683 140.312C231.547 140.068 231.439 139.824 231.385 139.552C230.951 138.441 230.544 137.302 230.138 136.164C226.749 127.027 223.387 117.864 219.998 108.728C219.483 107.399 217.396 107.915 217.829 109.297Z" fill="#2D0404"/>
<path d="M263.076 128.871C258.142 143.836 253.479 158.936 249.141 174.091C244.831 189.219 239.707 204.292 236.806 219.772C236.508 221.426 238.622 221.941 239.246 220.45C245.319 205.946 248.735 190.276 252.882 175.148C257.057 159.94 260.826 144.595 264.919 129.386C265.299 128.166 263.483 127.678 263.076 128.871Z" fill="#2D0404"/>
<path d="M110.418 99.1038C109.253 115.099 110.662 131.23 111.367 147.252C111.72 155.06 112.235 162.84 112.723 170.648C112.967 174.66 113.238 178.673 113.482 182.685C113.726 186.725 113.536 191.116 116.545 194.18C118.497 196.159 121.29 195.4 122.781 193.367C125.166 190.14 124.245 185.749 123.946 182.007C123.621 177.995 123.323 173.983 122.998 169.97C122.374 161.946 121.723 153.921 120.937 145.896C119.365 130.064 118.47 114.014 115.081 98.4531C114.512 95.715 110.608 96.5554 110.418 99.1038Z" fill="white"/>
<path d="M51.6435 159.641C53.0261 162.434 54.0834 165.362 55.439 168.181C56.7403 170.892 58.0416 173.603 59.3429 176.287C60.6442 178.998 61.9455 181.709 63.2468 184.393C63.8703 185.695 64.4938 187.023 65.1445 188.297C65.9578 189.897 67.0964 191.062 68.3164 192.364C70.4581 194.587 74.0638 192.282 73.3589 189.436C72.9252 187.701 72.4914 186.128 71.5696 184.556C70.8377 183.309 70.0515 182.089 69.2924 180.869C67.6929 178.321 66.1205 175.799 64.5209 173.251C62.9214 170.702 61.349 168.181 59.7495 165.633C58.0958 162.976 56.1709 160.563 54.5443 157.906C53.4328 156.063 50.6675 157.717 51.6435 159.641Z" fill="white"/>
<path d="M193.918 123.259C191.153 128.41 189.228 134.212 187.059 139.634C184.782 145.354 182.505 151.074 180.228 156.822C177.95 162.542 175.646 168.262 173.423 174.01C171.308 179.486 168.38 185.179 168.001 191.089C167.784 194.559 172.23 194.966 173.911 192.689C177.435 187.999 178.845 181.519 180.77 176.043C182.722 170.458 184.592 164.846 186.517 159.235C188.415 153.623 190.34 148.038 192.238 142.426C194.19 136.706 196.575 130.823 197.877 124.913C198.392 122.636 195.138 121.009 193.918 123.259Z" fill="white"/>
<path d="M228.457 159.451C226.993 162.162 225.203 164.602 223.794 167.34C222.33 170.133 220.866 172.952 219.402 175.745C216.474 181.357 213.492 187.023 211.323 192.987C209.832 197.054 216.121 199.521 218.182 195.888C221.354 190.384 223.712 184.447 226.098 178.591C227.264 175.772 228.402 172.952 229.568 170.133C230.761 167.205 231.52 164.196 232.686 161.241C233.689 158.801 229.704 157.174 228.457 159.451Z" fill="white"/>
<path d="M35.866 110.599C32.7212 106.993 27.7329 105.827 23.2597 107.454C18.6509 109.108 15.1808 113.012 13.527 117.566C12.6595 119.952 12.3884 122.744 13.1746 125.211C13.9879 127.732 15.723 129.712 17.8918 131.175C22.1481 134.049 28.3835 134.998 33.1278 132.856C35.4865 131.772 37.5197 129.928 38.9566 127.814C40.2037 125.997 41.993 122.446 40.3934 120.386C39.8512 119.681 38.9837 119.464 38.2788 120.114C37.0317 121.253 36.8691 123.124 35.9744 124.506C35.1069 125.808 33.914 126.865 32.5314 127.57C29.3595 129.169 25.4556 129.224 22.2024 127.787C20.7384 127.136 19.2744 126.16 18.4069 124.805C17.4851 123.368 17.4038 121.606 17.8105 119.979C18.5967 116.699 20.7655 113.771 23.6934 112.09C26.8653 110.246 31.3657 110.328 34.3478 112.551C35.5407 113.445 36.7335 111.602 35.866 110.599Z" fill="#2D0404"/>
<path d="M122.375 52.7722C122.022 56.7032 120.477 60.3632 117.522 63.0471C114.621 65.6768 110.555 66.5172 106.786 65.6768C102.991 64.8364 99.873 62.3422 98.3819 58.7365C96.918 55.2664 97.0535 51.1998 99.0055 47.9466C100.09 46.1302 101.689 44.6391 103.533 43.5547C105.404 42.4432 107.491 42.0636 109.497 41.413C110.527 41.0877 110.582 39.5695 109.497 39.2713C104.916 38.0242 99.7917 41.3316 97.1077 44.8289C94.1798 48.6515 93.3665 53.7211 94.722 58.3299C96.1318 63.0742 99.6832 66.8154 104.4 68.3878C108.955 69.9331 114.242 69.174 118.091 66.2461C122.185 63.1555 124.706 57.7063 123.459 52.5825C123.296 51.986 122.429 52.1758 122.375 52.7722Z" fill="#2D0404"/>
<path d="M201.454 75.5449C197.523 77.9306 194.161 80.9941 192.345 85.3047C190.637 89.3983 190.501 94.0884 192.209 98.2092C196.032 107.454 208.15 109.623 215.47 103.143C219.401 99.6732 221.434 94.3596 220.919 89.1544C220.729 87.1211 217.802 87.0397 217.693 89.1544C217.341 96.4471 212 103.225 204.219 102.682C196.845 102.167 193.267 94.0071 195.002 87.5006C196.113 83.3798 198.851 79.4759 202.24 76.9004C203.054 76.304 202.376 75.0027 201.454 75.5449Z" fill="#2D0404"/>
<path d="M266.086 106.044C265.544 106.098 265.029 105.746 264.514 105.665C264.08 105.61 263.646 105.61 263.213 105.637C262.291 105.692 261.315 105.827 260.447 106.153C258.739 106.803 257.113 107.888 255.866 109.243C253.1 112.252 252.368 116.726 253.534 120.575C254.754 124.588 257.818 127.651 261.803 128.871C265.815 130.118 270.37 129.305 273.542 126.54C275.033 125.211 276.09 123.368 276.578 121.443C277.147 119.138 276.822 116.97 275.954 114.747C275.385 113.283 273.081 113.391 273.081 115.126C273.108 117.62 272.891 120.765 271.427 122.636C269.773 124.75 266.737 125.536 264.161 125.211C261.206 124.859 258.685 122.988 257.465 120.304C256.299 117.783 256.327 114.557 257.709 112.117C258.523 110.68 259.58 109.433 260.962 108.538C261.667 108.077 262.399 107.589 263.185 107.237C263.592 107.047 264.026 106.912 264.46 106.776C264.921 106.613 265.49 106.18 266.005 106.288C266.249 106.342 266.276 106.017 266.086 106.044Z" fill="#2D0404"/>
<path d="M28.5722 142.345C31.3104 154.002 34.0485 165.606 37.1933 177.155C40.2297 188.27 42.8594 199.982 47.8206 210.419C48.6068 212.046 50.7756 210.799 50.5316 209.28C48.6339 197.786 44.242 186.562 40.7448 175.474C37.2204 164.277 33.5334 153.108 30.0091 141.911C29.7108 141.016 28.3553 141.396 28.5722 142.345Z" fill="#2D0404"/>
<path d="M50.0437 231.484C61.4029 233.3 73.2502 233.355 84.745 233.924C96.4567 234.52 108.168 235.09 119.907 235.578C143.575 236.554 167.215 237.584 190.882 238.37C197.633 238.587 204.41 238.831 211.161 239.048C217.45 239.238 224.174 240.132 230.355 238.885C231.358 238.695 231.25 237.204 230.355 236.933C225.068 235.415 219.321 235.686 213.872 235.388C208.016 235.09 202.16 234.819 196.304 234.547C184.593 234.005 172.881 233.436 161.142 232.975C137.475 232.053 113.834 231.05 90.1671 230.345C76.9914 229.939 63.4362 228.8 50.2877 229.83C49.393 229.939 49.0677 231.321 50.0437 231.484Z" fill="black"/>
<path d="M72.056 216.438C77.3425 217.631 82.9815 217.82 88.3765 218.335C94.1781 218.878 100.007 219.338 105.808 219.799C117.656 220.721 129.503 221.507 141.35 222.294C152.981 223.08 164.584 223.866 176.214 224.517C182.016 224.842 187.845 225.194 193.646 225.52C199.068 225.845 205.358 227.011 210.672 225.682C211.729 225.411 211.539 224.083 210.672 223.73C205.737 221.778 199.556 222.131 194.324 221.751C188.522 221.318 182.694 220.884 176.892 220.45C165.262 219.582 153.658 218.85 142.028 218.091C130.398 217.332 118.794 216.546 107.164 215.95C101.362 215.651 95.5336 215.299 89.732 215.082C83.9846 214.865 78.0203 214.269 72.3 214.784C71.4325 214.892 71.1071 216.221 72.056 216.438Z" fill="black"/>
<path d="M27.6529 197.362C88.4345 198.935 149.243 200.48 210.025 202.052C227.348 202.486 244.699 202.947 262.022 203.381C264.923 203.462 265.872 201.022 264.625 198.718C263.134 195.98 259.447 194.245 256.438 194.163C195.656 192.591 134.848 191.046 74.066 189.473C56.7424 189.039 39.3917 188.579 22.0682 188.145C19.1674 188.063 18.2185 190.503 19.4656 192.808C20.9567 195.573 24.6708 197.281 27.6529 197.362Z" fill="#CC3A4F"/>
<path d="M27.6529 238.791C88.4345 240.363 149.243 241.909 210.025 243.481C227.348 243.915 244.699 244.376 262.022 244.809C264.923 244.891 265.872 242.451 264.625 240.146C263.134 237.408 259.447 235.673 256.438 235.592C195.656 234.019 134.847 232.474 74.066 230.902C56.7424 230.468 39.3917 230.007 22.0682 229.573C19.1674 229.492 18.2185 231.932 19.4656 234.236C20.9567 236.975 24.6437 238.71 27.6529 238.791Z" fill="#7660C4"/>
<path d="M21.4391 204.611C79.2656 205.94 137.065 207.268 194.891 208.624C211.402 209.003 227.939 209.383 244.449 209.762C247.35 209.816 248.299 207.404 247.052 205.099C245.561 202.361 241.847 200.626 238.865 200.545C181.038 199.216 123.239 197.888 65.4121 196.532C48.9019 196.153 32.3646 195.773 15.8543 195.394C12.9535 195.339 12.0047 197.752 13.2517 200.057C14.7428 202.795 18.4569 204.53 21.4391 204.611Z" fill="#E27920"/>
<path d="M51.3171 209.253C116.816 215.326 182.531 218.308 248.301 218.064C251.175 218.064 252.178 215.76 250.904 213.401C249.44 210.717 245.699 208.847 242.717 208.847C177.95 209.091 113.156 206.271 48.6603 200.307C40.012 199.521 45.7866 208.738 51.3171 209.253Z" fill="#F7E44D"/>
<path d="M41.0161 219.555C106.461 222.782 171.878 226.035 237.322 229.261C240.223 229.396 241.145 226.848 239.925 224.598C238.407 221.806 234.747 220.206 231.738 220.043C166.293 216.817 100.876 213.564 35.4313 210.338C32.5305 210.202 31.6088 212.751 32.8287 215.001C34.3469 217.793 38.0068 219.393 41.0161 219.555Z" fill="#9ED93C"/>
<path d="M33.099 227.282C98.4893 231.131 163.88 234.954 229.243 238.804C232.171 238.966 233.065 236.391 231.845 234.141C230.327 231.321 226.694 229.776 223.658 229.586C158.268 225.736 92.8775 221.914 27.5143 218.064C24.5864 217.901 23.6917 220.477 24.9117 222.727C26.4299 225.547 30.0627 227.092 33.099 227.282Z" fill="#5FA8C6"/>
</g>
<defs>
<clipPath id="clip0">
<rect width="290" height="290" fill="white"/>
</clipPath>
</defs>
</svg>
