<svg width="34" height="28" viewBox="0 0 34 28" fill="none" xmlns="http://www.w3.org/2000/svg">
<path d="M23.3882 3.36616C22.1098 3.36595 20.8825 3.8676 19.9702 4.76317C19.058 5.65875 18.5338 6.87665 18.5104 8.15481L18.4633 10.804C18.4605 10.9462 18.4277 11.0862 18.3671 11.2149C18.3064 11.3436 18.2192 11.458 18.1112 11.5506C18.0032 11.6432 17.8768 11.7119 17.7404 11.7522C17.6039 11.7925 17.4605 11.8036 17.3195 11.7846L14.6939 11.428C11.2391 10.957 7.92894 9.36585 4.75333 6.72007C3.74749 12.2875 5.71207 16.1443 10.4435 19.1198L13.382 20.9666C13.5216 21.0543 13.6376 21.1749 13.7198 21.3179C13.802 21.4608 13.848 21.6217 13.8536 21.7865C13.8592 21.9513 13.8244 22.115 13.7522 22.2632C13.6799 22.4115 13.5725 22.5397 13.4392 22.6368L10.7614 24.593C12.3543 24.6922 13.8664 24.6216 15.1212 24.3726C23.0568 22.7882 28.3333 16.8171 28.3333 6.96732C28.3333 6.16332 26.6311 3.36616 23.3882 3.36616V3.36616ZM15.1464 8.09258C15.1758 6.47121 15.6828 4.89454 16.6039 3.55996C17.5251 2.22538 18.8195 1.19221 20.3251 0.589798C21.8307 -0.0126139 23.4805 -0.157492 25.0681 0.173302C26.6556 0.504097 28.1103 1.29586 29.25 2.44947C30.4459 2.44106 31.4635 2.74382 33.7392 1.36458C33.1757 4.12306 32.8982 5.32064 31.6973 6.96732C31.6973 19.8212 23.7969 26.0715 15.7805 27.671C10.2837 28.7677 2.29088 26.9663 0 24.5745C1.16731 24.4837 5.91054 23.974 8.6522 21.9674C6.33272 20.4384 -2.89977 15.0056 3.1672 0.399115C6.01483 3.72443 8.90282 5.9884 11.8295 7.18934C13.7773 7.98829 14.2549 7.97147 15.1481 8.09426L15.1464 8.09258Z" fill="white"/>
</svg>
